<svg width="12" height="16" viewBox="0 0 12 16" fill="none" xmlns="http://www.w3.org/2000/svg">
<path fill-rule="evenodd" clip-rule="evenodd" d="M11.6854 11.5325L11.8654 12.3875C12.036 13.1267 11.8676 13.9035 11.4062 14.5056C10.9448 15.1078 10.2386 15.4725 9.48044 15.5H2.52044C1.76232 15.4725 1.05611 15.1078 0.594697 14.5056C0.133281 13.9035 -0.0351383 13.1267 0.135437 12.3875L0.315437 11.5325C0.522463 10.3751 1.5174 9.52454 2.69294 9.50002H9.30794C10.4835 9.52454 11.4784 10.3751 11.6854 11.5325ZM9.48044 14.3675C9.86128 14.3631 10.2197 14.1867 10.4554 13.8875V13.895C10.7447 13.5322 10.8574 13.0594 10.7629 12.605L10.5829 11.75C10.4831 11.1164 9.94892 10.642 9.30794 10.6175H2.69294C2.05196 10.642 1.51781 11.1164 1.41794 11.75L1.23794 12.605C1.14581 13.057 1.25839 13.5265 1.54544 13.8875C1.78119 14.1867 2.1396 14.3631 2.52044 14.3675H9.48044Z" fill="#A4A8BE"/>
<path fill-rule="evenodd" clip-rule="evenodd" d="M6.37543 8.00001H5.62543C3.96857 8.00001 2.62543 6.65686 2.62543 5.00001V3.02001C2.62343 2.35105 2.88828 1.70892 3.36131 1.23589C3.83434 0.762868 4.47647 0.498011 5.14543 0.500011H6.85543C7.52438 0.498011 8.16652 0.762868 8.63954 1.23589C9.11257 1.70892 9.37743 2.35105 9.37543 3.02001V5.00001C9.37543 6.65686 8.03228 8.00001 6.37543 8.00001ZM5.14543 1.62501C4.37499 1.62501 3.75043 2.24957 3.75043 3.02001V5.00001C3.75043 6.03555 4.58989 6.87501 5.62543 6.87501H6.37543C7.41096 6.87501 8.25043 6.03555 8.25043 5.00001V3.02001C8.25043 2.65003 8.10345 2.29521 7.84184 2.0336C7.58023 1.77198 7.2254 1.62501 6.85543 1.62501H5.14543Z" fill="#A4A8BE"/>
</svg>
