<svg width="15" height="14" viewBox="0 0 15 14" fill="none" xmlns="http://www.w3.org/2000/svg">
<path fill-rule="evenodd" clip-rule="evenodd" d="M5.59329 1.41264C5.80931 0.713921 6.45951 0.240775 7.19079 0.250136C7.92621 0.242748 8.57772 0.722975 8.78829 1.42764L9.28329 2.92764C9.50557 3.62186 10.1519 4.09216 10.8808 4.09014H12.4408C13.1869 4.06187 13.8621 4.52937 14.0982 5.23767C14.3343 5.94597 14.0746 6.72511 13.4608 7.15014L12.1783 8.08764C11.5872 8.51224 11.3385 9.2704 11.5633 9.96264L12.0583 11.4626C12.2284 11.9819 12.1365 12.5514 11.8118 12.9908C11.487 13.4303 10.9696 13.6853 10.4233 13.6751C10.069 13.6725 9.72484 13.5569 9.44079 13.3451L8.21079 12.4076C7.62091 11.9774 6.82067 11.9774 6.23079 12.4076L4.94079 13.3451C4.65333 13.5764 4.29719 13.7057 3.92829 13.7126C3.378 13.7172 2.86005 13.4532 2.54047 13.0052C2.22089 12.5572 2.13984 11.9815 2.32329 11.4626L2.81829 9.96264C3.05678 9.27248 2.81996 8.50739 2.23329 8.07264L0.950791 7.13514C0.356318 6.70864 0.106221 5.94645 0.332439 5.25066C0.558657 4.55487 1.20916 4.08549 1.94079 4.09014H3.50079C4.23379 4.09011 4.88135 3.61279 5.09829 2.91264L5.59329 1.41264ZM7.58829 1.80264C7.54217 1.62304 7.37598 1.50074 7.19079 1.51014C6.99641 1.50348 6.82684 1.64106 6.79329 1.83264L6.29829 3.33264C5.9049 4.54487 4.77526 5.3656 3.50079 5.36514H1.91079C1.73406 5.37022 1.57944 5.48545 1.52403 5.65334C1.46863 5.82124 1.5243 6.00586 1.66329 6.11514L2.94579 7.05264C3.98025 7.80086 4.41359 9.13119 4.01829 10.3451L3.52329 11.8451C3.47468 11.9683 3.49463 12.108 3.57579 12.2126C3.65996 12.3338 3.79589 12.4087 3.94329 12.4151C4.03331 12.4124 4.12007 12.3809 4.19079 12.3251L5.45829 11.3876C6.49135 10.6371 7.89023 10.6371 8.92329 11.3876L10.1758 12.2801C10.2465 12.3359 10.3333 12.3674 10.4233 12.3701C10.564 12.361 10.6933 12.2895 10.7758 12.1751C10.857 12.0705 10.8769 11.9308 10.8283 11.8076L10.3333 10.3076C9.93799 9.09369 10.3713 7.76336 11.4058 7.01514L12.6883 6.08514C12.8273 5.97586 12.883 5.79124 12.8275 5.62334C12.7721 5.45545 12.6175 5.34022 12.4408 5.33514H10.8808C9.60632 5.3356 8.47669 4.51487 8.08329 3.30264L7.58829 1.80264Z" fill="#A4A8BE"/>
</svg>
