<svg width="234" height="184" viewBox="0 0 234 184" fill="none" xmlns="http://www.w3.org/2000/svg">
<g clip-path="url(#clip0_4820_14118)">
<g opacity="0.57">
<path opacity="0.2" d="M138.127 18.0587C122.41 52.2412 44.5916 64.402 23.1029 72.3584C1.61525 80.3148 48.3518 162.366 117.854 179.046C187.355 195.727 241.906 85.1248 215.758 50.4858C189.61 15.8467 157.422 -23.9108 138.126 18.0587H138.127Z" fill="black"/>
</g>
<g opacity="0.57">
<path opacity="0.2" d="M201.784 162.972C204.563 141.864 224.776 115.3 232.891 125.083C241.006 134.865 195.472 210.917 201.784 162.972Z" fill="black"/>
</g>
<g opacity="0.57">
<path opacity="0.2" d="M0.832158 111.619C5.45322 85.424 41.6783 140.175 31.0279 144.527C20.3775 148.878 -4.28624 140.632 0.832158 111.619Z" fill="black"/>
</g>
<path d="M188.103 163.853C188.924 163.579 195.809 68.1515 195.809 66.875C195.809 65.5984 192.982 61.4941 192.435 61.0387C191.888 60.5822 43.6501 69.9223 41.8261 70.4697C41.3809 70.6035 33.0711 161.664 33.2539 162.03C33.4367 162.395 37.9965 165.404 39.2731 165.495C39.8879 165.539 73.23 165.223 107.754 164.855L109.547 174.691C102.864 175.081 72.8725 176.844 71.738 177.169C70.4614 177.533 68.6824 183.963 68.6824 183.963C68.6824 183.963 123.537 184.054 125.087 183.963C126.637 183.872 156.732 181.227 156.732 181.227C156.732 181.227 157.279 175.163 156.276 174.616C155.666 174.283 138.942 174.355 125.966 174.463L124.182 164.676C155.53 164.328 187.741 163.974 188.104 163.854L188.103 163.853Z" fill="url(#paint0_linear_4820_14118)"/>
<g style="mix-blend-mode:multiply" opacity="0.7">
<path d="M41.5439 155.813L47.991 76.5128L184.464 68.249L176.221 154.75L41.5439 155.813Z" fill="#49258D"/>
</g>
<g style="mix-blend-mode:multiply" opacity="0.57">
<path d="M118.612 168.139L120.072 176.036L126.638 176.163L125.966 174.46L124.182 164.674C155.53 164.325 187.741 163.972 188.104 163.851C188.925 163.578 195.81 68.15 195.81 66.8734C195.81 65.5969 192.983 61.4926 192.436 61.0371C191.022 61.0494 182.632 160.66 182.632 160.66L33.2539 162.028C33.4367 162.392 37.9965 165.402 39.273 165.493C39.8878 165.536 73.2299 165.221 107.754 164.852L108.213 167.375L118.612 168.136V168.139Z" fill="#49258D"/>
</g>
<g style="mix-blend-mode:multiply" opacity="0.57">
<path d="M68.6826 183.962C68.6826 183.962 123.537 184.053 125.087 183.962C126.637 183.871 156.732 181.226 156.732 181.226C156.732 181.226 157.279 175.162 156.277 174.614C147.614 174.379 122.991 179.448 122.991 179.448C122.991 179.448 79.0348 176.712 71.7392 177.169C70.4626 177.533 68.6836 183.963 68.6836 183.963L68.6826 183.962Z" fill="#49258D"/>
</g>
<g style="mix-blend-mode:multiply" opacity="0.57">
<path d="M41.5432 155.813H39.8193L46.7371 74.798L184.888 66.6221L184.316 69.7899L48.8194 77.3695L42.5062 155.813H41.5432Z" fill="#49258D"/>
</g>
<g style="mix-blend-mode:multiply" opacity="0.57">
<path d="M125.087 183.962C121.166 183.991 121.835 179.614 127.287 178.598C132.74 177.582 150.986 177.897 153.539 177.897C156.092 177.897 156.731 181.225 156.731 181.225L125.086 183.961L125.087 183.962Z" fill="#49258D"/>
</g>
<g style="mix-blend-mode:multiply" opacity="0.57">
<path d="M107.753 164.854L124.181 164.675L124.517 166.518C124.517 166.518 121.987 167.774 121.804 168.413C121.621 169.051 120.221 176.849 119.938 175.317C119.655 173.785 118.156 166.589 118.156 166.589L108.212 167.377L107.753 164.855V164.854Z" fill="#49258D"/>
</g>
<g style="mix-blend-mode:multiply" opacity="0.57">
<path d="M188.103 163.852C188.103 163.852 182.365 163.784 182.664 160.275C182.962 156.767 186.753 113.591 186.969 111.217C187.187 108.844 189.795 142.517 189.562 147.528C189.329 152.539 188.103 163.852 188.103 163.852Z" fill="#49258D"/>
</g>
<g style="mix-blend-mode:multiply" opacity="0.57">
<path d="M191.94 63.0239C191.627 65.242 191.657 124.176 193.021 105.663C194.385 87.1504 195.511 68.032 195.124 66.1825C194.737 64.3331 192.386 59.8734 191.94 63.0228V63.0239Z" fill="#49258D"/>
</g>
<g style="mix-blend-mode:screen" opacity="0.43">
<path d="M176.266 156.17C175.247 163.005 183.14 113.551 183.779 107.623C184.417 101.696 185.751 53.8144 184.079 72.8879C182.406 91.9614 176.266 156.17 176.266 156.17Z" fill="#460046"/>
</g>
<g style="mix-blend-mode:screen" opacity="0.43">
<path d="M41.2357 75.2355C41.826 70.4684 45.6556 83.6923 44.47 94.1793C43.2843 104.666 33.3519 159.649 34.9205 142.332C36.4891 125.015 41.2347 75.2345 41.2347 75.2345L41.2357 75.2355Z" fill="#460046"/>
</g>
<g style="mix-blend-mode:screen" opacity="0.43">
<path d="M104.022 155.321C91.345 155.421 125.359 159.658 136.941 158.564C148.523 157.469 166.485 154.828 158.552 154.891C150.619 154.953 104.021 155.321 104.021 155.321H104.022Z" fill="#460046"/>
</g>
<g style="mix-blend-mode:screen" opacity="0.43">
<path d="M109.546 174.69L109.811 175.936C109.811 175.936 133.978 176.438 137.124 176.164C140.27 175.89 122.989 179.447 122.989 179.447L77.6201 177.069L109.547 174.69H109.546Z" fill="#460046"/>
</g>
<g style="mix-blend-mode:screen" opacity="0.15">
<path d="M74.6553 155.552C60.6154 155.662 96.9068 111.051 129.737 93.9064C162.568 76.762 179.332 98.0045 179.165 111.798C178.997 125.592 176.219 154.751 176.219 154.751L74.6542 155.552H74.6553Z" fill="#460046"/>
</g>
<g style="mix-blend-mode:screen" opacity="0.15">
<path d="M45.9482 113.051C43.4676 130.931 157.322 71.3397 139.518 72.5907C121.714 73.8428 48.8199 77.3701 48.8199 77.3701L45.9482 113.051Z" fill="#460046"/>
</g>
<g style="mix-blend-mode:screen" opacity="0.43">
<path d="M101.235 155.342C97.637 155.189 117.791 158.746 123.263 157.286C128.734 155.827 130.194 155.113 130.194 155.113L101.235 155.342Z" fill="#460046"/>
</g>
<g style="mix-blend-mode:screen" opacity="0.43">
<path d="M83.5098 177.378C83.5098 177.378 100.464 176.529 102.562 176.529C104.659 176.529 121.895 179.304 121.895 179.304L83.5098 177.378Z" fill="#460046"/>
</g>
<g opacity="0.67">
<path opacity="0.51" d="M170.091 107.568L118.684 109.297L119.387 98.9901L170.996 96.3594L170.091 107.568Z" fill="white"/>
<path opacity="0.51" d="M168.991 121.195L117.829 121.835L118.528 111.59L169.889 110.062L168.991 121.195Z" fill="white"/>
<path d="M126.798 103.972C127.315 103.556 127.67 102.941 127.718 102.266C127.802 101.073 126.893 100.154 125.693 100.213C124.497 100.271 123.465 101.278 123.383 102.461C123.33 103.23 123.691 103.885 124.277 104.237C122.713 105.27 122.198 107.718 122.198 107.718L128.161 107.502C128.161 107.502 128.697 104.726 126.798 103.973V103.972Z" fill="white"/>
<path d="M120.334 116.432C123.57 112.678 126.132 112.524 129.919 116.225C129.919 116.225 128.62 119.553 124.546 119.536C120.525 119.52 120.334 116.432 120.334 116.432ZM124.356 118.352C127.257 118.754 127.766 114.705 125.201 114.726C122.657 114.747 121.188 117.912 124.356 118.352Z" fill="white"/>
<path d="M134.309 105.249C135.823 105.362 136.85 101.614 134.556 101.812C132.28 102.008 131.852 105.065 134.309 105.249Z" fill="white"/>
<path d="M145.033 101.345C143.472 101.24 142.42 105.028 144.773 104.841C147.143 104.652 147.6 101.516 145.033 101.345Z" fill="white"/>
<path d="M139.487 105.03C142.056 105.259 140.968 101.697 139.739 101.584C138.514 101.471 136.938 104.802 139.487 105.03Z" fill="white"/>
</g>
<g opacity="0.68">
<path opacity="0.82" d="M62.493 105.676L61.4922 136.691L110.745 136.493L113.405 104.294L62.493 105.676Z" fill="white"/>
<path d="M62.1836 114.249L112.726 113.077L113.405 104.294L62.493 105.676L62.1836 114.249Z" fill="#4A7AE6"/>
<path d="M105.254 111.803C108.18 111.987 110.27 111.803 110.908 111.803C111.547 111.803 112.425 106.529 111.857 106.032C111.289 105.537 106.327 105.607 105.681 106.032C105.034 106.458 105.254 111.803 105.254 111.803Z" fill="#FA4690"/>
<path opacity="0.51" d="M96.7544 110.696C96.6339 111.007 96.3193 111.828 96.5624 111.884C96.8055 111.94 102.599 112.382 102.658 111.884C102.718 111.387 103.141 110.627 102.824 110.696C102.506 110.765 96.7544 110.696 96.7544 110.696Z" fill="white"/>
<path opacity="0.51" d="M110.572 110.076C110.494 110.032 110.106 109.604 109.633 109.064C110.274 108.62 110.748 108.196 110.62 107.98C110.285 107.419 109.97 106.418 109.833 106.628C109.776 106.715 109.151 107.173 108.438 107.678C107.926 107.078 107.523 106.6 107.523 106.6C107.164 106.782 106.216 107.266 106.284 107.451C106.309 107.517 106.64 108.024 107.077 108.633C106.59 108.971 106.234 109.215 106.234 109.215C106.394 109.602 106.82 110.622 107.005 110.578C107.068 110.564 107.544 110.324 108.128 109.994C108.66 110.623 109.151 111.085 109.347 110.943C109.855 110.575 110.798 110.203 110.573 110.076H110.572Z" fill="white"/>
<g style="mix-blend-mode:multiply" opacity="0.39">
<path d="M71.3743 119.272L71.1445 120.618L100.287 120.641L100.573 118.961L71.3743 119.272Z" fill="#49258D"/>
</g>
<g style="mix-blend-mode:multiply" opacity="0.39">
<path d="M70.627 125.39L71.4674 126.751L99.3603 126.705L99.5686 125.483L70.627 125.39Z" fill="#49258D"/>
</g>
<g style="mix-blend-mode:multiply" opacity="0.39">
<path d="M70.3789 127.671L70.9232 128.768L96.4182 129.076L96.7317 127.741L70.3789 127.671Z" fill="#49258D"/>
</g>
</g>
<g style="mix-blend-mode:multiply" opacity="0.57">
<path d="M62.2753 105.003C61.9802 111.598 58.4569 114.59 62.2753 115.594C66.0937 116.599 145.424 115.827 146.791 111.797C148.16 107.767 150.353 73.6713 150.078 71.7054C149.801 69.7386 147.362 70.9579 147.351 68.844C147.339 66.73 147.503 63.5254 147.503 63.5254L133.893 64.3618L62.2753 105.003Z" fill="#49258D"/>
</g>
<path d="M55.8802 61.5873C54.1993 61.8405 53.8633 102.486 53.8633 104.243C53.8633 106 56.785 108.191 57.7572 108.174C58.7284 108.157 110.186 108.841 141.046 105.943C141.046 105.943 144.733 58.9668 143.949 56.9131C143.162 54.8512 104.936 26.7971 103.314 26.3426C101.688 25.8871 98.4308 24.8353 96.7396 26.1639C95.0484 27.4915 62.0781 60.7049 61.2417 60.9633C60.4053 61.2227 55.8802 61.5863 55.8802 61.5863V61.5873Z" fill="url(#paint1_linear_4820_14118)"/>
<g style="mix-blend-mode:multiply" opacity="0.31">
<path d="M55.8805 61.5874C54.1822 60.848 68.1107 74.073 75.4983 78.5878C78.4956 80.4199 84.3462 82.7544 86.4602 83.4468C87.4886 83.7838 88.6119 83.6409 89.5218 83.0547C89.5218 83.0547 74.4291 63.0376 74.0185 62.9007C73.608 62.7639 55.8815 61.5884 55.8815 61.5884L55.8805 61.5874Z" fill="#49258D"/>
</g>
<path style="mix-blend-mode:multiply" opacity="0.31" d="M57.7578 108.174C58.729 108.158 110.187 108.841 141.046 105.944C141.046 105.944 144.734 58.9672 143.95 56.9135C143.162 54.8516 104.937 26.7974 103.315 26.343C102.317 26.0632 100.705 25.5607 99.2157 25.5209C99.135 25.527 99.0594 25.527 98.9879 25.5209C98.9757 25.5209 98.9634 25.5209 98.9512 25.5209C96.9598 25.3953 140.224 56.744 140.224 56.744C140.198 56.7991 140.172 56.8849 140.148 56.985C138.89 56.6837 137.082 56.7102 133.88 57.3802C132.733 57.6202 136.662 61.2925 139.675 63.9344C139.29 76.8234 139.54 102.295 139.54 102.295C139.54 102.295 55.7644 102.805 54.1182 105.212C54.8494 106.71 56.9582 108.187 57.7558 108.173L57.7578 108.174Z" fill="url(#paint2_linear_4820_14118)"/>
<g style="mix-blend-mode:multiply" opacity="0.31">
<path d="M55.8799 61.5876C57.2473 61.4692 88.9728 83.2367 89.5202 83.0539C90.0676 82.8711 130.74 59.2929 132.199 58.1328C133.659 56.9717 137.292 56.8501 137.292 56.8501C137.292 56.8501 99.324 31.7565 97.4092 31.301C95.4944 30.8455 61.2424 60.9647 61.2424 60.9647L55.8809 61.5876H55.8799Z" fill="#49258D"/>
</g>
<g style="mix-blend-mode:multiply" opacity="0.31">
<path d="M60.3454 104.212C56.0358 104.47 95.0733 108.449 113.003 107.589C130.933 106.729 145.699 102.247 139.542 102.295C133.385 102.343 75.5831 103.301 60.3454 104.212Z" fill="#49258D"/>
</g>
<g style="mix-blend-mode:multiply" opacity="0.31">
<path d="M139.676 63.9345C139.769 62.6253 142.475 64.6882 143.053 66.8757C143.632 69.0631 139.522 102.476 139.495 95.9102C139.467 89.3447 139.676 63.9335 139.676 63.9335V63.9345Z" fill="#49258D"/>
</g>
<g style="mix-blend-mode:color-dodge" opacity="0.13">
<path d="M93.2057 80.9758C91.0846 82.187 136.604 64.6984 136.304 62.6253C136.004 60.5532 133.148 57.5386 132.674 57.8347C132.2 58.1319 93.2057 80.9748 93.2057 80.9748V80.9758Z" fill="white"/>
</g>
<g style="mix-blend-mode:multiply" opacity="0.13">
<path d="M57.8413 62.5678C57.7391 61.9408 75.773 58.727 89.5208 58.3849C103.269 58.0427 111.1 70.4905 111.1 70.4905L89.5208 83.0526L57.8413 62.5678Z" fill="#49258D"/>
</g>
<g style="mix-blend-mode:multiply" opacity="0.13">
<path d="M99.735 32.6686C95.0802 30.6793 93.3737 51.158 102.881 57.8154C112.388 64.4728 135.639 55.7586 135.639 55.7586L99.736 32.6686H99.735Z" fill="#49258D"/>
</g>
<g style="mix-blend-mode:multiply" opacity="0.31">
<path d="M140.226 56.7443C141.229 57.2457 142.981 55.8272 142.48 55.4055C135.073 49.1749 112.354 32.5381 112.354 32.5381C112.354 32.5381 122.562 43.8615 129.514 48.937C136.467 54.0125 140.226 56.7443 140.226 56.7443Z" fill="#49258D"/>
</g>
<g style="mix-blend-mode:color-dodge" opacity="0.13">
<path d="M60.3448 104.212C53.088 105.305 95.3791 79.2165 108.363 72.0842C121.347 64.9519 138.173 102.295 138.173 102.295L60.3448 104.212Z" fill="white"/>
</g>
<g style="mix-blend-mode:multiply" opacity="0.31">
<path d="M58.9312 63.2738C57.8405 62.5681 95.866 75.5755 96.7964 75.8492C97.7277 76.1229 117.523 66.8747 117.523 66.8747L89.5201 83.054C89.0983 82.9049 87.0783 85.1863 82.9771 80.4774C78.8758 75.7685 66.7875 68.2492 66.7875 68.2492L58.9312 63.2738Z" fill="#49258D"/>
</g>
<g style="mix-blend-mode:color-dodge" opacity="0.13">
<path d="M127.914 60.8018C127.914 60.8018 106.9 79.334 94.5166 80.1449L127.914 60.8018Z" fill="white"/>
</g>
<g style="mix-blend-mode:multiply" opacity="0.31">
<path d="M85.8955 36.787C101.924 32.8053 112.415 33.4384 118.063 36.7442C123.712 40.0499 129.94 43.1125 130.376 51.022C130.812 58.9314 130.157 59.3164 130.157 59.3164L125.36 62.4373L85.8955 36.785V36.787Z" fill="#49258D"/>
</g>
<path d="M62.3907 39.0969C62.3907 39.0969 85.1141 35.1519 104.325 35.6196C123.537 36.0873 124.175 37.0861 125.361 37.3393C126.546 37.5926 128.325 41.0127 128.462 41.8327C128.599 42.6538 127.915 60.8011 127.915 60.8011C112.354 70.9143 89.5217 83.0526 89.5217 83.0526C89.5217 83.0526 73.2892 73.067 64.2912 66.621C64.2912 66.621 61.7065 43.7465 62.3907 39.0959V39.0969Z" fill="#DFCDE7"/>
<path style="mix-blend-mode:color-dodge" opacity="0.37" d="M65.6263 67.6016C62.6647 64.9505 79.0371 39.0276 92.6511 39.5076C113.997 40.2592 120.128 65.4488 120.128 65.4488L89.522 83.0538L65.6273 67.6026L65.6263 67.6016Z" fill="url(#paint3_linear_4820_14118)"/>
<path style="mix-blend-mode:multiply" opacity="0.31" d="M127.914 60.8022C127.914 60.8022 128.598 42.6539 128.461 41.8339C128.324 41.0128 126.546 37.5937 125.36 37.3404C125.257 37.319 125.159 37.2914 125.054 37.2598C123.589 38.2687 125.36 62.4402 125.36 62.4402C125.36 62.4402 95.3569 79.1792 93.1326 79.1792C90.9084 79.1792 64.29 66.6242 64.29 66.6242C73.2871 73.0692 89.5205 83.0558 89.5205 83.0558C89.5205 83.0558 112.353 70.9174 127.914 60.8042V60.8022Z" fill="url(#paint4_linear_4820_14118)"/>
<path style="mix-blend-mode:color-dodge" opacity="0.26" d="M64.2372 40.4893C65.6281 39.175 90.8433 36.1123 91.8696 36.1123C92.8959 36.1123 81.6103 37.3439 73.608 41.1051C65.6056 44.8673 65.4361 63.9408 64.6334 61.3081C63.8307 58.6743 61.8485 42.7472 64.2382 40.4893H64.2372Z" fill="url(#paint5_linear_4820_14118)"/>
<path style="mix-blend-mode:color-dodge" opacity="0.26" d="M101.376 36.1123C105.479 36.6342 117.244 39.9175 119.569 42.3796C121.895 44.8418 123.537 61.5165 124.22 58.3772C124.904 55.239 123.969 37.8638 123.125 37.2571C122.283 36.6516 101.375 36.1113 101.375 36.1113L101.376 36.1123Z" fill="url(#paint6_linear_4820_14118)"/>
<g style="mix-blend-mode:multiply" opacity="0.39">
<path d="M71.5527 48.2624V51.0227L114.719 48.8353V45.3896L71.5527 48.2624Z" fill="#49258D"/>
</g>
<g style="mix-blend-mode:multiply" opacity="0.39">
<path d="M67.8623 55.2382L68.4485 58.7696L117.524 56.8497V53.1865L67.8623 55.2382Z" fill="#49258D"/>
</g>
<g style="mix-blend-mode:multiply" opacity="0.39">
<path d="M71.5527 60.8018L72.6291 63.5254L114.529 61.2767V58.7695L71.5527 60.8018Z" fill="#49258D"/>
</g>
<g style="mix-blend-mode:multiply" opacity="0.39">
<path d="M72.6299 65.4402L73.3641 67.644L112.917 66.2694L113.003 63.5254L72.6299 65.4402Z" fill="#49258D"/>
</g>
<g style="mix-blend-mode:multiply" opacity="0.39">
<path d="M74.1578 73.308L74.0996 71.8834L103.701 71.1777V73.1395L75.5447 74.2118L74.1578 73.308Z" fill="#49258D"/>
</g>
<path style="mix-blend-mode:color-dodge" opacity="0.75" d="M43.3769 145.681L42.5068 155.552L176.22 154.49L177.22 144.317L43.3769 145.681Z" fill="url(#paint7_linear_4820_14118)"/>
<g style="mix-blend-mode:color-dodge" opacity="0.75">
<path d="M52.404 147.436L51.6748 153.273L90.9217 152.554L91.1596 147.37L52.404 147.436Z" fill="#9BC8E2"/>
</g>
<g style="mix-blend-mode:color-dodge" opacity="0.75">
<path d="M151.849 146.958H156.957L155.771 152.019H151.029L151.849 146.958Z" fill="#9BC8E2"/>
</g>
<g style="mix-blend-mode:color-dodge" opacity="0.75">
<path d="M160.24 146.958V152.019H169.36L169.998 146.958H160.24Z" fill="#9BC8E2"/>
</g>
<path d="M47.2563 16.9932C49.4407 14.5535 52.005 11.3326 53.737 10.8403C55.468 10.3481 64.0882 29.5952 63.1691 29.9516C62.2499 30.308 60.1125 32.085 58.0731 30.8023C56.0337 29.5207 45.1331 19.3635 47.2563 16.9922V16.9932Z" fill="#FDBD15"/>
<path d="M68.9558 27.333C67.6977 26.5079 64.1387 17.6211 64.2898 16.6632C64.441 15.7053 71.515 15.1589 72.6292 15.7053C73.7434 16.2527 73.7035 26.7856 72.6292 27.333C71.5549 27.8804 69.5941 27.7517 68.9558 27.333Z" fill="#FDBD15"/>
<path d="M54.568 11.3816C53.9287 10.6228 57.9268 24.4799 58.5273 26.4764C59.1278 28.4729 58.2148 30.7553 59.2514 30.8095C60.2879 30.8646 63.9786 30.9759 63.6559 28.9059C63.3332 26.8359 57.2784 14.5985 54.568 11.3806V11.3816Z" fill="#DF8103"/>
<path d="M70.3214 15.4913C69.5044 15.5179 70.8024 24.4505 70.5971 25.5157C70.3918 26.5808 69.0316 27.7318 70.3336 27.6807C71.6357 27.6296 72.7233 27.8982 73.2983 26.7851C73.8742 25.673 73.384 17.1855 73.1277 16.1153C72.8714 15.045 70.3214 15.4903 70.3214 15.4903V15.4913Z" fill="#DF8103"/>
<path d="M53.3187 38.377C52.4333 38.8008 47.9358 37.2455 47.7213 36.7502C47.5069 36.2549 51.4437 31.0578 52.1718 30.6054C52.9 30.153 56.0842 34.6046 55.7084 35.492C55.3336 36.3795 53.769 38.1615 53.3187 38.377Z" fill="#FDBD15"/>
<path d="M50.4057 32.5637C50.0013 33.0753 53.3734 36.0349 53.594 36.6078C53.8146 37.1807 53.4786 38.4981 54.1199 37.679C54.7612 36.86 55.9275 35.6723 55.8795 34.8523C55.8315 34.0322 53.0027 30.7653 52.5482 30.4722C52.0938 30.1791 50.4057 32.5637 50.4057 32.5637Z" fill="#DF8103"/>
<g style="mix-blend-mode:multiply" opacity="0.57">
<path d="M182.448 102.02C186.221 102.527 186.642 101.863 188.217 105.465C189.792 109.067 192.201 118.598 193.275 99.5158C194.349 80.4331 182.449 102.021 182.449 102.021L182.448 102.02Z" fill="#49258D"/>
</g>
<path d="M181.55 72.6465C210.551 72.5996 200.564 102.906 182.234 101.927C163.904 100.948 162.822 72.6772 181.55 72.6465Z" fill="#FDBD15"/>
<path d="M185.874 72.8955C201.117 76.5536 190.924 108.481 172.42 97.6562C174.776 100.059 178.055 101.704 182.235 101.927C199.584 102.853 209.452 75.7621 185.875 72.8955H185.874Z" fill="#DF8103"/>
<path d="M179.585 101.575C177.9 101.223 184.815 100.678 189.6 94.5899C194.386 88.5003 198.853 89.641 196.483 94.3377C194.112 99.0343 186.945 103.114 179.585 101.576V101.575Z" fill="#DF4F03"/>
<path d="M191.968 77.2832C190.2 73.9642 194.602 75.0038 197.138 78.4689C199.674 81.9339 200.286 86.3875 197.138 88.5913C193.989 90.7951 194.203 81.4784 191.968 77.2832Z" fill="#DF4F03"/>
<g style="mix-blend-mode:color-dodge" opacity="0.24">
<path d="M192.459 78.7582C191.601 75.763 194.044 92.31 184.194 95.4768C174.344 98.6436 169.71 93.42 171.137 96.158C172.566 98.8959 179.157 100.904 183.898 99.1134C188.639 97.3232 195.524 89.4669 192.458 78.7582H192.459Z" fill="white"/>
</g>
<g style="mix-blend-mode:color-dodge" opacity="0.24">
<path d="M168.599 86.1062C168.641 90.8069 190.834 77.9517 188.232 74.8472C185.629 71.7426 168.463 70.8531 168.599 86.1062Z" fill="white"/>
</g>
<g style="mix-blend-mode:color-dodge" opacity="0.6">
<path d="M179.404 88.4172C180.225 88.6123 181.394 88.8471 182.697 87.7585C184.001 86.6699 184.867 76.4055 181.643 76.7486C175.947 77.3553 177.961 88.0731 179.404 88.4172Z" fill="white"/>
<path d="M181.601 92.8537C186.399 92.8118 187.856 90.176 187.263 88.9924C186.669 87.8088 184.702 86.4495 184.702 87.7588C184.702 89.068 184.452 91.6874 180.824 91.8886C177.194 92.0898 176.835 90.6795 177.242 89.0077C177.65 87.336 177.557 87.3002 175.648 87.9599C175.198 88.1162 174.118 88.5308 174.649 90.0381C175.098 91.3126 176.337 92.4707 179.605 92.774C179.75 93.3796 179.634 94.8829 179.457 94.9094C179.239 94.9431 176.179 95.132 176.242 95.5078C176.304 95.8837 176.432 97.1061 177.242 97.3512C178.052 97.5963 183.587 97.6637 184.005 96.9243C184.423 96.1859 185.249 94.7021 184.929 94.6041C184.61 94.507 181.331 95.1106 181.331 94.842C181.331 94.6388 181.515 93.4419 181.583 92.8527C181.59 92.8527 181.595 92.8527 181.602 92.8527L181.601 92.8537Z" fill="white"/>
</g>
<g style="mix-blend-mode:multiply" opacity="0.57">
<path d="M178.185 141.599C182.337 142.107 182.801 141.442 184.534 145.045C186.267 148.647 188.919 158.178 190.1 139.094C191.282 120.011 178.185 141.599 178.185 141.599Z" fill="#49258D"/>
</g>
<path d="M196.339 123.623C196.393 152.625 161.189 142.637 162.327 124.307C163.464 105.977 196.304 104.896 196.339 123.623Z" fill="#2FC260"/>
<g style="mix-blend-mode:multiply" opacity="0.57">
<path d="M181.694 110.104C185.77 110.478 192.793 112.778 191.907 123.429C190.799 136.742 179.886 142.305 168.521 137.207C178.352 145.162 196.379 144.383 196.34 123.623C196.323 114.989 189.335 110.569 181.695 110.104H181.694Z" fill="#49258D"/>
</g>
<g style="mix-blend-mode:multiply" opacity="0.31">
<path d="M182.106 141.714C178.447 141.862 188.672 133.302 191.716 131.25C194.759 129.198 195.478 130.839 194.315 133.61C193.151 136.38 190.02 141.395 182.106 141.714Z" fill="#49258D"/>
</g>
<g style="mix-blend-mode:multiply" opacity="0.31">
<path d="M190.929 113.364C189.918 112.928 192.604 117.745 192.126 124.054C191.647 130.361 197.161 127.613 196.25 122.011C195.339 116.409 192.672 114.117 190.929 113.365V113.364Z" fill="#49258D"/>
</g>
<g style="mix-blend-mode:color-dodge" opacity="0.24">
<path d="M191.907 120.831C191.443 117.57 190.754 129.771 183.677 134.125C176.6 138.478 168.249 136.882 170.327 137.931C172.405 138.979 180.611 140.262 185.786 136.024C190.96 131.786 192.395 124.255 191.907 120.831Z" fill="white"/>
</g>
<g style="mix-blend-mode:color-dodge" opacity="0.24">
<path d="M162.647 126.173C162.574 128.642 189.116 111.813 182.071 111.033C175.027 110.252 163.057 112.273 162.647 126.173Z" fill="white"/>
</g>
<path opacity="0.6" d="M173.583 125.881C174.144 125.299 179.742 120.746 179.387 121.279C179.032 121.812 175.775 126.933 175.538 127.571C175.301 128.208 178.637 135.416 179.042 134.832C179.446 134.247 185.072 118.436 184.539 117.252C184.006 116.068 166.358 121.22 166.595 122.108C166.832 122.997 173.001 126.484 173.583 125.881Z" fill="white"/>
</g>
<defs>
<linearGradient id="paint0_linear_4820_14118" x1="33.2509" y1="122.513" x2="195.809" y2="122.513" gradientUnits="userSpaceOnUse">
<stop stop-color="#773960"/>
<stop offset="0.02" stop-color="#75375F"/>
<stop offset="0.44" stop-color="#4F194F"/>
<stop offset="0.79" stop-color="#370646"/>
<stop offset="1" stop-color="#2F0043"/>
</linearGradient>
<linearGradient id="paint1_linear_4820_14118" x1="98.9608" y1="122.905" x2="98.9608" y2="53.2816" gradientUnits="userSpaceOnUse">
<stop stop-color="#DCD6EA"/>
<stop offset="1" stop-color="#B195C9"/>
</linearGradient>
<linearGradient id="paint2_linear_4820_14118" x1="99.09" y1="108.232" x2="99.09" y2="25.5199" gradientUnits="userSpaceOnUse">
<stop stop-color="#49258D"/>
<stop offset="1" stop-color="white"/>
</linearGradient>
<linearGradient id="paint3_linear_4820_14118" x1="92.7011" y1="94.9338" x2="92.7011" y2="14.2219" gradientUnits="userSpaceOnUse">
<stop stop-color="white"/>
<stop offset="0.04" stop-color="#EEEEEE"/>
<stop offset="0.18" stop-color="#B0B0B0"/>
<stop offset="0.33" stop-color="#7A7A7A"/>
<stop offset="0.47" stop-color="#4E4E4E"/>
<stop offset="0.6" stop-color="#2C2C2C"/>
<stop offset="0.73" stop-color="#131313"/>
<stop offset="0.85" stop-color="#050505"/>
<stop offset="0.94"/>
</linearGradient>
<linearGradient id="paint4_linear_4820_14118" x1="96.3852" y1="83.0537" x2="96.3852" y2="37.2587" gradientUnits="userSpaceOnUse">
<stop stop-color="#49258D"/>
<stop offset="1" stop-color="white"/>
</linearGradient>
<linearGradient id="paint5_linear_4820_14118" x1="64.66" y1="61.4939" x2="82.4671" y2="30.6518" gradientUnits="userSpaceOnUse">
<stop offset="0.06"/>
<stop offset="0.15" stop-color="#050505"/>
<stop offset="0.27" stop-color="#131313"/>
<stop offset="0.4" stop-color="#2C2C2C"/>
<stop offset="0.53" stop-color="#4E4E4E"/>
<stop offset="0.67" stop-color="#7A7A7A"/>
<stop offset="0.82" stop-color="#B0B0B0"/>
<stop offset="0.96" stop-color="#EEEEEE"/>
<stop offset="1" stop-color="white"/>
</linearGradient>
<linearGradient id="paint6_linear_4820_14118" x1="101.376" y1="47.4408" x2="124.457" y2="47.4408" gradientUnits="userSpaceOnUse">
<stop offset="0.06"/>
<stop offset="0.15" stop-color="#050505"/>
<stop offset="0.27" stop-color="#131313"/>
<stop offset="0.4" stop-color="#2C2C2C"/>
<stop offset="0.53" stop-color="#4E4E4E"/>
<stop offset="0.67" stop-color="#7A7A7A"/>
<stop offset="0.82" stop-color="#B0B0B0"/>
<stop offset="0.96" stop-color="#EEEEEE"/>
<stop offset="1" stop-color="white"/>
</linearGradient>
<linearGradient id="paint7_linear_4820_14118" x1="42.5068" y1="149.935" x2="177.22" y2="149.935" gradientUnits="userSpaceOnUse">
<stop stop-color="#5D82BE"/>
<stop offset="0.37" stop-color="#00368D"/>
<stop offset="1" stop-color="#8E248D"/>
</linearGradient>
<clipPath id="clip0_4820_14118">
<rect width="233.722" height="184" fill="white" transform="translate(0.139648)"/>
</clipPath>
</defs>
</svg>
