<svg width="16" height="20" viewBox="0 0 16 20" fill="none" xmlns="http://www.w3.org/2000/svg">
<path d="M9.83268 0.833008H2.49935C2.01312 0.833008 1.5468 1.02616 1.20299 1.36998C0.85917 1.7138 0.666016 2.18011 0.666016 2.66634V17.333C0.666016 17.8192 0.85917 18.2856 1.20299 18.6294C1.5468 18.9732 2.01312 19.1663 2.49935 19.1663H13.4993C13.9856 19.1663 14.4519 18.9732 14.7957 18.6294C15.1395 18.2856 15.3327 17.8192 15.3327 17.333V6.33301L9.83268 0.833008ZM5.39143 14.9992C5.00093 15.3237 4.40785 15.4768 3.68277 15.4768C3.24735 15.4768 2.94027 15.4493 2.73127 15.4218V11.7817C3.10616 11.7277 3.48461 11.7023 3.86335 11.7056C4.56735 11.7056 5.02385 11.8321 5.38043 12.1016C5.76543 12.3876 6.00743 12.8441 6.00743 13.4968C6.00743 14.2072 5.74893 14.6967 5.39143 14.9992ZM8.13227 15.4997C7.03227 15.4997 6.38968 14.6692 6.38968 13.6132C6.38968 12.5031 7.09827 11.6735 8.19277 11.6735C9.33035 11.6735 9.95185 12.5251 9.95185 13.5481C9.95093 14.7627 9.21393 15.4997 8.13227 15.4997ZM12.3993 14.8012C12.6514 14.8012 12.9319 14.7453 13.0978 14.6802L13.2243 15.3338C13.0703 15.4108 12.7238 15.4933 12.2738 15.4933C10.9932 15.4933 10.3332 14.6967 10.3332 13.6407C10.3332 12.3766 11.2343 11.6735 12.3563 11.6735C12.7908 11.6735 13.1198 11.7615 13.2683 11.8385L13.0978 12.504C12.8747 12.4118 12.6353 12.365 12.3938 12.3665C11.7283 12.3665 11.2113 12.768 11.2113 13.593C11.2113 14.3346 11.6513 14.8012 12.3993 14.8012ZM9.83268 7.24967H8.91602V2.66634L13.4993 7.24967H9.83268Z" fill="#37AD24"/>
</svg>
