<svg width="16" height="16" viewBox="0 0 16 16" fill="none" xmlns="http://www.w3.org/2000/svg">
<path fill-rule="evenodd" clip-rule="evenodd" d="M6 13.3337H2.33333C1.59695 13.3337 1 12.7367 1 12.0003V4.00033C1 3.26395 1.59695 2.66699 2.33333 2.66699H6C6.8178 2.66699 7.54387 3.05967 8 3.66675C8.45613 3.05967 9.1822 2.66699 10 2.66699H13.6667C14.4031 2.66699 15 3.26395 15 4.00033V12.0003C15 12.7367 14.4031 13.3337 13.6667 13.3337H10C9.40587 13.3337 8.8924 13.6791 8.64953 14.1801C8.52307 14.4409 8.2898 14.667 8 14.667C7.7102 14.667 7.47693 14.4409 7.35047 14.1801C7.1076 13.6791 6.59413 13.3337 6 13.3337ZM2 4.00033C2 3.81623 2.14924 3.66699 2.33333 3.66699H6C6.8284 3.66699 7.5 4.33857 7.5 5.16699V12.8335C7.0822 12.5197 6.56281 12.3337 6 12.3337H2.33333C2.14924 12.3337 2 12.1844 2 12.0003V4.00033ZM10 3.66699C9.1716 3.66699 8.5 4.33857 8.5 5.16699V12.8335C8.9178 12.5197 9.4372 12.3337 10 12.3337H13.6667C13.8507 12.3337 14 12.1844 14 12.0003V4.00033C14 3.81623 13.8507 3.66699 13.6667 3.66699H10Z" fill="black"/>
</svg>
