<svg width="1038" height="651" viewBox="0 0 1038 651" fill="none" xmlns="http://www.w3.org/2000/svg">
<g clip-path="url(#clip0_4786_7985)">
<path d="M562.626 575.407V537.234L595.701 556.328L562.626 575.407Z" fill="#37AD24" stroke="#37AD24" stroke-width="1.61898"/>
<path d="M610.548 575.407V537.234L643.607 556.328L610.548 575.407Z" fill="#37AD24" stroke="#37AD24" stroke-width="1.61898"/>
<path d="M423.504 75.4963L388 55V95.9763L423.504 75.4963Z" fill="#37AD24"/>
<path d="M471.41 75.4963L435.922 55V95.9763L471.41 75.4963Z" fill="#37AD24"/>
<path d="M424.623 115.74H454.979" stroke="#37AD24" stroke-width="4.04745" stroke-miterlimit="10" stroke-linecap="round"/>
<path d="M439.811 130.926V100.57" stroke="#37AD24" stroke-width="4.04745" stroke-miterlimit="10" stroke-linecap="round"/>
<path d="M76.5293 479.072H122.363" stroke="#37AD24" stroke-width="4.04745" stroke-miterlimit="10" stroke-linecap="round"/>
<path d="M99.4551 501.98V456.163" stroke="#37AD24" stroke-width="4.04745" stroke-miterlimit="10" stroke-linecap="round"/>
<path d="M216.439 75.6377H349.455" stroke="#E10000" stroke-width="5.66643" stroke-miterlimit="10" stroke-linecap="round"/>
<path d="M387.646 557.625H520.662" stroke="#E10000" stroke-width="5.66643" stroke-miterlimit="10" stroke-linecap="round"/>
<path d="M10.8477 134.489H246.571" stroke="#37AD24" stroke-width="4.04745" stroke-miterlimit="10" stroke-linecap="round"/>
<path d="M99.2754 266.129H249.128" stroke="#F6BE0F" stroke-width="5.66643" stroke-miterlimit="10" stroke-linecap="round"/>
<path d="M138.582 248.595H210.708" stroke="#37AD24" stroke-width="4.04745" stroke-miterlimit="10" stroke-linecap="round"/>
<path d="M822.344 369.191H881.517" stroke="#401A86" stroke-width="4.04745" stroke-miterlimit="10" stroke-linecap="round"/>
<path d="M781.203 310.989L843.502 166.997C843.502 166.35 843.502 166.01 843.502 166.058H274.965L212.262 310.973H781.203V310.989Z" fill="#F6BE0F"/>
<path d="M809.375 388.086C804.988 384.606 801.248 380.267 798.722 375.248C796.294 370.407 795.031 365.097 794.691 359.706C794.173 351.255 795.695 342.787 798.22 334.66H267.082L204.379 504.669H766.844L813.196 390.823C811.884 389.964 810.589 389.058 809.359 388.086H809.375Z" fill="#E10000"/>
<path d="M170.639 208.216H281.749" stroke="#F6BE0F" stroke-width="4.04745" stroke-miterlimit="10" stroke-linecap="round"/>
<path d="M811.463 176.76C811.463 176.112 811.463 175.772 811.463 175.821H242.91L180.207 320.736H242.91L180.207 490.745H749.149L811.447 321.837V320.736" stroke="#21094E" stroke-width="4.04745" stroke-miterlimit="10"/>
<g filter="url(#filter0_d_4786_7985)">
<path d="M355.7 230.881H340.302C340.349 228.837 340.088 227.031 339.518 225.462C338.947 223.87 338.092 222.516 336.951 221.399C335.834 220.282 334.468 219.438 332.852 218.868C331.236 218.274 329.418 217.977 327.398 217.977C323.501 217.977 319.925 218.951 316.669 220.9C313.413 222.849 310.669 225.676 308.435 229.383C306.201 233.067 304.657 237.522 303.801 242.75C302.969 247.788 303.017 252.006 303.944 255.404C304.871 258.803 306.51 261.369 308.863 263.104C311.239 264.815 314.198 265.67 317.738 265.67C319.925 265.67 322.004 265.397 323.976 264.85C325.949 264.28 327.743 263.472 329.359 262.426C330.998 261.357 332.424 260.062 333.636 258.541C334.872 257.02 335.834 255.297 336.523 253.373H352.029C351.055 256.723 349.534 259.955 347.466 263.068C345.423 266.181 342.892 268.961 339.874 271.409C336.856 273.833 333.422 275.758 329.573 277.184C325.723 278.609 321.505 279.322 316.919 279.322C310.289 279.322 304.597 277.801 299.845 274.76C295.116 271.718 291.706 267.334 289.614 261.607C287.523 255.88 287.131 248.976 288.438 240.897C289.745 233.079 292.3 226.449 296.102 221.007C299.928 215.541 304.573 211.395 310.039 208.567C315.528 205.739 321.398 204.325 327.648 204.325C331.996 204.325 335.929 204.919 339.446 206.107C342.963 207.295 345.957 209.03 348.429 211.311C350.924 213.569 352.801 216.337 354.061 219.617C355.32 222.896 355.867 226.651 355.7 230.881ZM431.963 242.822C430.632 250.616 428.054 257.234 424.228 262.676C420.426 268.118 415.78 272.253 410.291 275.081C404.825 277.908 398.932 279.322 392.611 279.322C385.981 279.322 380.266 277.813 375.466 274.795C370.689 271.777 367.232 267.417 365.093 261.714C362.954 255.987 362.55 249.083 363.881 241.004C365.164 233.186 367.719 226.556 371.545 221.114C375.371 215.648 380.04 211.49 385.553 208.638C391.066 205.763 396.995 204.325 403.34 204.325C409.923 204.325 415.602 205.846 420.379 208.888C425.179 211.929 428.636 216.325 430.751 222.076C432.89 227.803 433.294 234.718 431.963 242.822ZM416.6 241.004C417.432 235.99 417.396 231.784 416.493 228.385C415.614 224.963 413.998 222.373 411.645 220.615C409.293 218.856 406.322 217.977 402.734 217.977C398.837 217.977 395.261 218.951 392.005 220.9C388.773 222.849 386.04 225.676 383.807 229.383C381.597 233.067 380.064 237.546 379.208 242.822C378.353 247.86 378.377 252.066 379.28 255.44C380.206 258.814 381.858 261.369 384.234 263.104C386.634 264.815 389.617 265.67 393.181 265.67C397.055 265.67 400.595 264.72 403.804 262.819C407.035 260.894 409.756 258.102 411.966 254.442C414.176 250.759 415.721 246.279 416.6 241.004ZM449.599 205.323H468.633L480.646 254.371H481.501L509.696 205.323H528.731L516.611 278.324H501.64L509.554 230.809H508.912L482.25 277.968H472.019L461.041 230.631H460.435L452.45 278.324H437.479L449.599 205.323ZM556.882 205.323L544.762 278.324H529.328L541.447 205.323H556.882ZM630.64 205.323L618.521 278.324H605.19L581.129 232.378H580.559L572.895 278.324H557.461L569.58 205.323H583.125L607.079 251.234H607.685L615.277 205.323H630.64ZM687.877 228.92C687.687 227.185 687.283 225.653 686.665 224.322C686.071 222.967 685.251 221.827 684.206 220.9C683.16 219.949 681.889 219.225 680.392 218.726C678.895 218.227 677.16 217.977 675.188 217.977C671.457 217.977 667.964 218.904 664.708 220.757C661.476 222.611 658.72 225.308 656.438 228.849C654.157 232.366 652.601 236.667 651.769 241.752C650.913 246.838 650.913 251.163 651.769 254.727C652.648 258.292 654.3 261.013 656.724 262.89C659.171 264.743 662.32 265.67 666.169 265.67C669.663 265.67 672.799 265.052 675.58 263.817C678.36 262.557 680.63 260.787 682.388 258.506C684.17 256.224 685.311 253.527 685.81 250.414L688.875 250.877H670.09L672.015 239.257H702.563L700.995 248.454C699.973 254.87 697.727 260.383 694.258 264.993C690.788 269.603 686.463 273.144 681.283 275.615C676.126 278.087 670.471 279.322 664.316 279.322C657.472 279.322 651.709 277.813 647.028 274.795C642.37 271.754 639.055 267.441 637.083 261.856C635.134 256.248 634.79 249.594 636.049 241.895C637.024 235.978 638.758 230.702 641.254 226.068C643.772 221.411 646.85 217.466 650.486 214.234C654.121 211.002 658.149 208.543 662.569 206.856C667.013 205.169 671.635 204.325 676.435 204.325C680.57 204.325 684.313 204.931 687.663 206.143C691.038 207.331 693.925 209.018 696.325 211.204C698.749 213.391 700.579 215.993 701.815 219.011C703.074 222.005 703.656 225.308 703.561 228.92H687.877Z" fill="#401A86"/>
</g>
<g filter="url(#filter1_d_4786_7985)">
<path d="M378.591 398.144C378.71 395.174 377.843 392.881 375.989 391.265C374.159 389.649 371.391 388.841 367.684 388.841C365.165 388.841 362.979 389.197 361.125 389.91C359.272 390.599 357.786 391.562 356.669 392.797C355.576 394.009 354.899 395.411 354.638 397.004C354.376 398.311 354.459 399.451 354.887 400.425C355.339 401.4 356.04 402.243 356.99 402.956C357.965 403.645 359.117 404.251 360.448 404.774C361.779 405.273 363.192 405.701 364.69 406.057L370.963 407.626C374.029 408.339 376.785 409.289 379.233 410.477C381.704 411.666 383.772 413.127 385.435 414.862C387.122 416.596 388.31 418.64 389 420.993C389.689 423.345 389.784 426.042 389.285 429.084C388.524 433.552 386.754 437.425 383.974 440.704C381.193 443.96 377.546 446.491 373.031 448.297C368.515 450.079 363.288 450.97 357.347 450.97C351.453 450.97 346.475 450.067 342.411 448.261C338.348 446.455 335.389 443.782 333.536 440.241C331.706 436.677 331.159 432.268 331.896 427.017H346.831C346.57 429.464 346.926 431.508 347.901 433.148C348.899 434.764 350.384 435.987 352.356 436.819C354.329 437.627 356.646 438.031 359.307 438.031C361.945 438.031 364.286 437.651 366.329 436.89C368.397 436.13 370.072 435.073 371.355 433.718C372.638 432.363 373.423 430.807 373.708 429.048C373.993 427.409 373.743 426.031 372.959 424.914C372.175 423.797 370.916 422.846 369.181 422.062C367.47 421.254 365.343 420.541 362.8 419.923L355.172 417.927C349.279 416.43 344.823 414.089 341.805 410.905C338.787 407.721 337.706 403.432 338.562 398.037C339.322 393.617 341.164 389.756 344.087 386.453C347.033 383.126 350.74 380.547 355.208 378.718C359.699 376.864 364.606 375.937 369.929 375.937C375.347 375.937 379.922 376.876 383.653 378.753C387.384 380.607 390.105 383.197 391.816 386.524C393.526 389.851 394.049 393.724 393.384 398.144H378.591ZM469.21 414.434C467.879 422.228 465.301 428.846 461.475 434.288C457.673 439.73 453.027 443.865 447.538 446.693C442.072 449.521 436.179 450.935 429.858 450.935C423.228 450.935 417.513 449.426 412.712 446.408C407.936 443.39 404.478 439.029 402.34 433.326C400.201 427.599 399.797 420.696 401.128 412.616C402.411 404.798 404.966 398.168 408.791 392.726C412.617 387.261 417.287 383.102 422.8 380.25C428.313 377.375 434.242 375.937 440.587 375.937C447.169 375.937 452.849 377.458 457.625 380.5C462.426 383.542 465.883 387.938 467.998 393.689C470.137 399.416 470.541 406.331 469.21 414.434ZM453.847 412.616C454.679 407.602 454.643 403.396 453.74 399.998C452.861 396.576 451.245 393.986 448.892 392.227C446.54 390.469 443.569 389.589 439.981 389.589C436.084 389.589 432.507 390.564 429.252 392.512C426.02 394.461 423.287 397.289 421.053 400.996C418.843 404.679 417.311 409.159 416.455 414.434C415.6 419.472 415.623 423.678 416.526 427.052C417.453 430.427 419.105 432.981 421.481 434.716C423.881 436.427 426.864 437.283 430.428 437.283C434.302 437.283 437.842 436.332 441.05 434.431C444.282 432.506 447.003 429.714 449.213 426.054C451.423 422.371 452.968 417.892 453.847 412.616ZM547.727 414.434C546.397 422.228 543.818 428.846 539.992 434.288C536.19 439.73 531.544 443.865 526.055 446.693C520.589 449.521 514.696 450.935 508.375 450.935C501.745 450.935 496.03 449.426 491.23 446.408C486.453 443.39 482.996 439.029 480.857 433.326C478.718 427.599 478.314 420.696 479.645 412.616C480.928 404.798 483.483 398.168 487.309 392.726C491.135 387.261 495.804 383.102 501.317 380.25C506.83 377.375 512.759 375.937 519.104 375.937C525.687 375.937 531.366 377.458 536.143 380.5C540.943 383.542 544.4 387.938 546.515 393.689C548.654 399.416 549.058 406.331 547.727 414.434ZM532.364 412.616C533.196 407.602 533.16 403.396 532.257 399.998C531.378 396.576 529.762 393.986 527.41 392.227C525.057 390.469 522.087 389.589 518.498 389.589C514.601 389.589 511.025 390.564 507.769 392.512C504.537 394.461 501.804 397.289 499.571 400.996C497.361 404.679 495.828 409.159 494.972 414.434C494.117 419.472 494.141 423.678 495.044 427.052C495.971 430.427 497.622 432.981 499.998 434.716C502.399 436.427 505.381 437.283 508.945 437.283C512.819 437.283 516.36 436.332 519.568 434.431C522.799 432.506 525.52 429.714 527.73 426.054C529.94 422.371 531.485 417.892 532.364 412.616ZM626.423 376.935L614.303 449.937H600.972L576.912 403.99H576.341L568.678 449.937H553.243L565.363 376.935H578.908L602.861 422.846H603.467L611.06 376.935H626.423Z" fill="white"/>
</g>
<path d="M817.666 414.686H935.528" stroke="#E10000" stroke-width="5.66643" stroke-miterlimit="10" stroke-linecap="round"/>
<path d="M808.729 462.866H1034.35" stroke="#E10000" stroke-width="5.66643" stroke-miterlimit="10" stroke-linecap="round"/>
<path d="M565.396 145.676H684.942" stroke="#F6BE0F" stroke-width="5.66643" stroke-miterlimit="10" stroke-linecap="round"/>
<path d="M843.72 519.24C843.72 519.24 870.044 465.749 860.266 420.433C852.527 384.557 799.829 364.287 802.76 345.005C805.949 323.991 870.125 316.592 885.619 289.717C898.943 266.614 898.862 200.77 898.862 200.77L745.836 175.806C745.836 175.806 724.822 238.201 730.116 264.348C736.268 294.768 794.762 322.161 791.119 343.095C787.768 362.296 731.363 364.773 712.615 396.327C688.945 436.186 696.895 495.263 696.895 495.263L843.72 519.207V519.24Z" fill="white"/>
<path d="M822.297 204.007C822.297 204.007 862.658 230.688 875.675 278.723C890.359 253.37 885.68 214.336 885.68 214.336L822.297 203.991V204.007Z" fill="#F6BE0F"/>
<path d="M854.89 520.761L803.892 512.439L736.817 501.495L685.82 493.173C673.402 491.15 661.681 499.568 659.657 512.002L658.07 521.781L731.556 533.777L798.63 544.722L872.115 556.718L873.702 546.94C875.726 534.522 867.307 522.801 854.873 520.777L854.89 520.761Z" fill="#FFC300"/>
<path d="M870.818 171.176L803.743 160.231L730.258 148.251L728.671 158.03C726.648 170.447 735.066 182.169 747.5 184.192L798.498 192.514L865.572 203.458L916.57 211.78C928.988 213.803 940.709 205.385 942.733 192.951L944.319 183.172L870.834 171.192L870.818 171.176Z" fill="#E10000"/>
<path d="M864.558 530.441L813.56 522.12L746.485 511.176L695.488 502.854C683.07 500.83 671.349 509.249 669.325 521.683L667.738 531.461L741.224 543.442L808.298 554.386L881.783 566.383L883.37 556.604C885.394 544.186 876.975 532.465 864.541 530.441H864.558Z" fill="#E10000"/>
<path d="M861.14 161.493L794.066 150.549L720.58 138.568L718.994 148.347C716.97 160.765 725.389 172.486 737.822 174.51L788.82 182.831L855.894 193.776L906.892 202.097C919.31 204.121 931.031 195.702 933.055 183.268L934.642 173.49L861.156 161.493H861.14Z" stroke="#401A86" stroke-width="4.04745" stroke-miterlimit="10"/>
<path d="M854.89 520.761L803.892 512.439L736.817 501.495L685.82 493.173C673.402 491.15 661.681 499.568 659.657 512.002L658.07 521.781L731.556 533.777L798.63 544.722L872.115 556.718L873.702 546.94C875.726 534.522 867.307 522.801 854.873 520.777L854.89 520.761Z" stroke="#401A86" stroke-width="4.04745" stroke-miterlimit="10"/>
<path d="M745.836 175.821C745.836 175.821 724.822 238.217 730.116 264.363C736.268 294.784 794.762 322.177 791.119 343.11C787.768 362.311 731.363 364.788 712.615 396.342C688.945 436.202 696.895 495.278 696.895 495.278" stroke="#401A86" stroke-width="5.34263" stroke-miterlimit="10"/>
<path d="M898.861 200.771C898.861 200.771 898.942 266.614 885.618 289.717C870.108 316.592 805.948 323.991 802.758 345.005C799.828 364.271 852.526 384.557 860.264 420.434C870.043 465.749 843.718 519.24 843.718 519.24" stroke="#401A86" stroke-width="5.34263" stroke-miterlimit="10"/>
<path d="M742.807 261.903C742.014 262.307 741.755 263.311 742.224 264.056C744.766 268.038 752.764 280.084 763.789 291.821C776.352 305.21 792.591 317.757 801.576 319.214C825.78 323.165 874.025 287.078 874.851 284.018C842.067 293.634 830.637 290.154 800.313 263.149C779.509 244.612 749.639 258.341 742.791 261.886L742.807 261.903Z" fill="#FF7A00"/>
<path d="M836.532 509.994C834.362 488.834 824.584 425.645 785 419.185C745.804 412.79 716.128 468.823 706.852 488.834L836.516 509.994H836.532Z" fill="#FF7A00"/>
<path d="M812.375 409.651C811.679 413.941 807.631 416.839 803.357 416.143C799.067 415.447 796.169 411.4 796.865 407.126C797.561 402.835 801.609 399.937 805.883 400.633C810.173 401.33 813.071 405.377 812.375 409.651Z" fill="#FF7A00"/>
<path d="M781.567 391.565C781.033 394.819 777.973 397.037 774.703 396.503C771.449 395.969 769.231 392.909 769.765 389.638C770.299 386.384 773.359 384.166 776.629 384.701C779.884 385.235 782.102 388.295 781.567 391.565Z" fill="#FF7A00"/>
<path d="M800.669 370.147C800.248 372.721 797.819 374.454 795.261 374.049C792.687 373.628 790.955 371.2 791.359 368.642C791.764 366.084 794.209 364.335 796.767 364.74C799.325 365.145 801.073 367.589 800.669 370.147Z" fill="#FF7A00"/>
<path d="M816.73 383.244C816.73 383.244 841.857 395.03 849.644 422.602C856.136 445.623 850.308 462.412 850.308 462.412C850.308 462.412 843.152 432.995 839.639 423.945C830.297 399.936 816.73 383.244 816.73 383.244Z" fill="#F6BE0F"/>
<path d="M2.83398 577.83H166.157" stroke="#F6BE0F" stroke-width="5.66643" stroke-miterlimit="10" stroke-linecap="round"/>
<path d="M704.338 648.206H1009.11" stroke="#37AD24" stroke-width="4.04745" stroke-miterlimit="10" stroke-linecap="round"/>
<path d="M244.368 553.351C243.98 557.059 240.677 559.746 236.97 559.358C233.262 558.969 230.575 555.666 230.963 551.959C231.352 548.251 234.654 545.564 238.362 545.952C242.069 546.341 244.757 549.644 244.368 553.351Z" fill="white" stroke="#37AD24" stroke-width="4.04745" stroke-miterlimit="10"/>
<path d="M170.642 22.4068C170.253 26.1142 166.95 28.8017 163.243 28.4132C159.536 28.0246 156.848 24.7219 157.237 21.0145C157.625 17.307 160.928 14.6195 164.635 15.008C168.343 15.3966 171.03 18.6993 170.642 22.4068Z" fill="white" stroke="#37AD24" stroke-width="4.04745" stroke-miterlimit="10"/>
<path d="M832.771 68.7574C832.771 72.4811 829.759 75.4924 826.036 75.4924C822.312 75.4924 819.301 72.4811 819.301 68.7574C819.301 65.0338 822.312 62.0225 826.036 62.0225C829.759 62.0225 832.771 65.0338 832.771 68.7574Z" fill="white" stroke="#37AD24" stroke-width="4.04745" stroke-miterlimit="10"/>
<path d="M278.514 635.061C277.963 640.404 273.187 644.273 267.845 643.723C262.502 643.172 258.633 638.396 259.183 633.053C259.733 627.711 264.509 623.842 269.852 624.392C275.195 624.942 279.064 629.718 278.514 635.061Z" fill="white" stroke="#37AD24" stroke-width="4.04745" stroke-miterlimit="10"/>
<path d="M186.735 379.262C186.735 384.07 182.833 387.972 178.025 387.972C173.216 387.972 169.314 384.07 169.314 379.262C169.314 374.453 173.216 370.552 178.025 370.552C182.833 370.552 186.735 374.453 186.735 379.262Z" fill="#F6BE0F"/>
<path d="M764.753 98.7755C766.36 91.9431 762.125 85.1012 755.292 83.4936C748.46 81.8861 741.618 86.1216 740.01 92.954C738.403 99.7864 742.638 106.628 749.471 108.236C756.303 109.843 763.145 105.608 764.753 98.7755Z" fill="white" stroke="#37AD24" stroke-width="4.04745" stroke-miterlimit="10"/>
<path d="M180.402 620.554C179.916 625.184 175.788 628.535 171.158 628.066C166.527 627.596 163.176 623.452 163.645 618.822C164.131 614.191 168.26 610.84 172.89 611.31C177.52 611.779 180.871 615.924 180.402 620.554Z" fill="white" stroke="#37AD24" stroke-width="4.04745" stroke-miterlimit="10"/>
<path d="M136.482 187.226L126.66 177.403L116.838 187.226L126.66 197.048L136.482 187.226Z" fill="#E10000"/>
<path d="M49.1207 362.399L42.252 355.53L35.3832 362.399L42.252 369.268L49.1207 362.399Z" fill="#E10000"/>
<path d="M338.966 594.975L332.098 588.106L325.229 594.975L332.098 601.844L338.966 594.975Z" fill="#F6BE0F"/>
<path d="M853.295 123.902L843.473 114.08L833.65 123.902L843.473 133.725L853.295 123.902Z" fill="#F6BE0F"/>
</g>
<defs>
<filter id="filter0_d_4786_7985" x="286.479" y="204.325" width="424.225" height="86.9971" filterUnits="userSpaceOnUse" color-interpolation-filters="sRGB">
<feFlood flood-opacity="0" result="BackgroundImageFix"/>
<feColorMatrix in="SourceAlpha" type="matrix" values="0 0 0 0 0 0 0 0 0 0 0 0 0 0 0 0 0 0 127 0" result="hardAlpha"/>
<feOffset dx="5" dy="10"/>
<feGaussianBlur stdDeviation="1"/>
<feComposite in2="hardAlpha" operator="out"/>
<feColorMatrix type="matrix" values="0 0 0 0 1 0 0 0 0 1 0 0 0 0 1 0 0 0 1 0"/>
<feBlend mode="normal" in2="BackgroundImageFix" result="effect1_dropShadow_4786_7985"/>
<feBlend mode="normal" in="SourceGraphic" in2="effect1_dropShadow_4786_7985" result="shape"/>
</filter>
<filter id="filter1_d_4786_7985" x="330.791" y="375.938" width="305.345" height="89.604" filterUnits="userSpaceOnUse" color-interpolation-filters="sRGB">
<feFlood flood-opacity="0" result="BackgroundImageFix"/>
<feColorMatrix in="SourceAlpha" type="matrix" values="0 0 0 0 0 0 0 0 0 0 0 0 0 0 0 0 0 0 127 0" result="hardAlpha"/>
<feOffset dx="6.47591" dy="11.3329"/>
<feGaussianBlur stdDeviation="1.61898"/>
<feComposite in2="hardAlpha" operator="out"/>
<feColorMatrix type="matrix" values="0 0 0 0 0 0 0 0 0 0 0 0 0 0 0 0 0 0 1 0"/>
<feBlend mode="normal" in2="BackgroundImageFix" result="effect1_dropShadow_4786_7985"/>
<feBlend mode="normal" in="SourceGraphic" in2="effect1_dropShadow_4786_7985" result="shape"/>
</filter>
<clipPath id="clip0_4786_7985">
<rect width="1037.18" height="650.23" fill="white"/>
</clipPath>
</defs>
</svg>
