<svg width="18" height="18" viewBox="0 0 18 18" fill="none" xmlns="http://www.w3.org/2000/svg">
<path fill-rule="evenodd" clip-rule="evenodd" d="M12.001 6.56969C11.9765 7.79472 10.9763 8.77493 9.75102 8.77469C8.54035 8.75475 7.56257 7.78028 7.53852 6.56969V5.72219C7.53837 5.22298 7.73971 4.74484 8.09691 4.3961C8.45412 4.04737 8.93695 3.85756 9.43602 3.86969H10.141C10.6336 3.86769 11.1067 4.06199 11.4558 4.40961C11.8048 4.75724 12.001 5.22957 12.001 5.72219V6.56969ZM9.41352 4.97219C8.9993 4.97219 8.66352 5.30797 8.66352 5.72219L8.69352 6.56969C8.69352 7.1703 9.18041 7.65719 9.78102 7.65719C10.3816 7.65719 10.8685 7.1703 10.8685 6.56969V5.72219C10.8685 5.30797 10.5327 4.97219 10.1185 4.97219H9.41352Z" fill="#A4A8BE"/>
<path fill-rule="evenodd" clip-rule="evenodd" d="M17.611 11.4747L17.6935 12.6447C17.7802 13.0109 17.6956 13.3966 17.4635 13.6928C17.2315 13.9891 16.8773 14.1636 16.501 14.1672H13.1335C12.8397 14.4803 12.4304 14.6593 12.001 14.6622H7.50102C7.04996 14.6682 6.61815 14.4797 6.31602 14.1447C6.24623 14.1524 6.1758 14.1524 6.10602 14.1447H2.66352C2.2975 14.1309 1.9564 13.9556 1.73203 13.6661C1.50765 13.3766 1.42306 13.0026 1.50102 12.6447L1.61352 11.4747C1.72296 10.9164 2.20722 10.5103 2.77602 10.4997H6.00102C6.13563 10.4922 6.27046 10.51 6.39852 10.5522C6.68626 10.1928 7.12312 9.98539 7.58352 9.98969H11.9185C12.352 9.98807 12.7649 10.174 13.051 10.4997C13.1033 10.4923 13.1563 10.4923 13.2085 10.4997H16.4485C17.0173 10.5103 17.5016 10.9164 17.611 11.4747ZM13.1635 13.0197H16.561C16.584 12.9755 16.5867 12.9235 16.5685 12.8772V12.7272L16.4935 11.6622L16.4485 11.6022H13.051C12.734 11.6033 12.4313 11.4697 12.2185 11.2347C12.1441 11.1457 12.0345 11.0936 11.9185 11.0922H7.58352C7.45787 11.0938 7.33955 11.1516 7.26102 11.2497C7.04692 11.5038 6.73082 11.6495 6.39852 11.6472C6.26245 11.6478 6.12751 11.6224 6.00102 11.5722H2.81352C2.76852 11.5722 2.76852 11.5872 2.76852 11.6322L2.69352 12.6972V12.8472C2.67298 12.8925 2.67298 12.9444 2.69352 12.9897H6.13602C6.21585 12.9824 6.29619 12.9824 6.37602 12.9897C6.68082 12.9953 6.96924 13.1287 7.17102 13.3572C7.25377 13.454 7.37369 13.5113 7.50102 13.5147H12.031C12.1586 13.5122 12.2789 13.4548 12.361 13.3572C12.5719 13.1408 12.8614 13.0191 13.1635 13.0197Z" fill="#A4A8BE"/>
<path fill-rule="evenodd" clip-rule="evenodd" d="M16.4785 7.69469C16.4785 8.60596 15.7398 9.34469 14.8285 9.34469C14.3896 9.34668 13.968 9.17373 13.6569 8.86407C13.3459 8.55442 13.171 8.1336 13.171 7.69469V7.06469C13.171 6.6967 13.3172 6.34378 13.5774 6.08358C13.8376 5.82337 14.1905 5.67719 14.5585 5.67719H15.091C15.8573 5.67719 16.4785 6.29839 16.4785 7.06469V7.69469ZM14.3729 6.90907C14.3237 6.9583 14.296 7.02507 14.296 7.09469V7.72469C14.328 7.99248 14.5551 8.1941 14.8248 8.1941C15.0945 8.1941 15.3216 7.99248 15.3535 7.72469V7.09469C15.3535 6.94971 15.236 6.83219 15.091 6.83219H14.5585C14.4889 6.83219 14.4221 6.85984 14.3729 6.90907Z" fill="#A4A8BE"/>
<path fill-rule="evenodd" clip-rule="evenodd" d="M5.5676 8.86407C5.25654 9.17373 4.83493 9.34668 4.39602 9.34469C3.95841 9.34469 3.53873 9.17085 3.22929 8.86141C2.91986 8.55198 2.74602 8.1323 2.74602 7.69469V7.06469C2.74602 6.29839 3.36723 5.67719 4.13352 5.67719H4.66602C5.43231 5.67719 6.05352 6.29839 6.05352 7.06469V7.69469C6.05352 8.1336 5.87866 8.55442 5.5676 8.86407ZM4.13352 6.83219C3.98855 6.83219 3.87102 6.94971 3.87102 7.09469V7.72469C3.90297 7.99248 4.13008 8.1941 4.39977 8.1941C4.66946 8.1941 4.89657 7.99248 4.92852 7.72469V7.09469C4.92852 6.94971 4.811 6.83219 4.66602 6.83219H4.13352Z" fill="#A4A8BE"/>
</svg>
