<svg width="30" height="30" viewBox="0 0 30 30" fill="none" xmlns="http://www.w3.org/2000/svg">
<path d="M11.6367 18.375L13.5117 20.25L18.5117 15.25" stroke="#00A3FF" stroke-width="1.875" stroke-linecap="round" stroke-linejoin="round"/>
<path d="M12.5 7.5H17.5C20 7.5 20 6.25 20 5C20 2.5 18.75 2.5 17.5 2.5H12.5C11.25 2.5 10 2.5 10 5C10 7.5 11.25 7.5 12.5 7.5Z" stroke="#00A3FF" stroke-width="1.875" stroke-miterlimit="10" stroke-linecap="round" stroke-linejoin="round"/>
<path d="M20 5.02539C24.1625 5.25039 26.25 6.78789 26.25 12.5004V20.0004C26.25 25.0004 25 27.5004 18.75 27.5004H11.25C5 27.5004 3.75 25.0004 3.75 20.0004V12.5004C3.75 6.80039 5.8375 5.25039 10 5.02539" stroke="#00A3FF" stroke-width="1.875" stroke-miterlimit="10" stroke-linecap="round" stroke-linejoin="round"/>
</svg>
