<svg width="26" height="27" viewBox="0 0 26 27" fill="none" xmlns="http://www.w3.org/2000/svg">
<path fill-rule="evenodd" clip-rule="evenodd" d="M26 13.0794C26 5.85586 20.1797 0 13 0C5.82029 0 0 5.85586 0 13.0794C0 19.6078 4.75391 25.0188 10.9688 26V16.8602H7.66797V13.0794H10.9688V10.1979C10.9688 6.91985 12.9096 5.10916 15.879 5.10916C17.3013 5.10916 18.7891 5.36462 18.7891 5.36462V8.58339H17.1498C15.5349 8.58339 15.0312 9.5916 15.0312 10.626V13.0794H18.6367L18.0604 16.8602H15.0312V26C21.2461 25.0188 26 19.6078 26 13.0794Z" fill="#1877F2"/>
<path fill-rule="evenodd" clip-rule="evenodd" d="M18.0205 16.4285L18.6194 12.5369H14.8731V10.0115C14.8731 8.94682 15.3964 7.90906 17.0744 7.90906H18.7777V4.59595C18.7777 4.59595 17.2319 4.33301 15.754 4.33301C12.6685 4.33301 10.6519 6.19676 10.6519 9.57087V12.5369H7.22217V16.4285H10.6519V25.8361C11.3396 25.9437 12.0445 25.9997 12.7625 25.9997C13.4805 25.9997 14.4789 26.1072 15.1666 25.9997V16.592L18.0205 16.4285Z" fill="white"/>
</svg>
