<svg width="24" height="24" viewBox="0 0 24 24" fill="none" xmlns="http://www.w3.org/2000/svg">
<path fill-rule="evenodd" clip-rule="evenodd" d="M3 7.125C3 4.84683 4.84683 3 7.125 3C9.40317 3 11.25 4.84683 11.25 7.125V9.6C11.25 10.5113 10.5113 11.25 9.6 11.25H7.125C4.84683 11.25 3 9.40317 3 7.125ZM9.75 7.125V9.6C9.75 9.68284 9.68284 9.75 9.6 9.75H7.125C5.67525 9.75 4.5 8.57475 4.5 7.125C4.5 5.67525 5.67525 4.5 7.125 4.5C8.57475 4.5 9.75 5.67525 9.75 7.125Z" fill="#A4A8BE"/>
<path fill-rule="evenodd" clip-rule="evenodd" d="M3 16.875C3 14.5968 4.84683 12.75 7.125 12.75H9.6C10.5113 12.75 11.25 13.4887 11.25 14.4V16.875C11.25 19.1532 9.40317 21 7.125 21C4.84683 21 3 19.1532 3 16.875ZM7.125 14.25H9.6C9.68284 14.25 9.75 14.3172 9.75 14.4V16.875C9.75 18.3247 8.57475 19.5 7.125 19.5C5.67525 19.5 4.5 18.3247 4.5 16.875C4.5 15.4253 5.67525 14.25 7.125 14.25Z" fill="#A4A8BE"/>
<path fill-rule="evenodd" clip-rule="evenodd" d="M16.875 3C14.5968 3 12.75 4.84683 12.75 7.125V9.6C12.75 10.5113 13.4887 11.25 14.4 11.25H16.875C19.1532 11.25 21 9.40317 21 7.125C21 4.84683 19.1532 3 16.875 3ZM14.4 9.75H16.875C18.3247 9.75 19.5 8.57475 19.5 7.125C19.5 5.67525 18.3247 4.5 16.875 4.5C15.4253 4.5 14.25 5.67525 14.25 7.125V9.6C14.25 9.68284 14.3172 9.75 14.4 9.75Z" fill="#A4A8BE"/>
<path fill-rule="evenodd" clip-rule="evenodd" d="M12.75 14.4C12.75 13.4887 13.4887 12.75 14.4 12.75H16.875C19.1532 12.75 21 14.5968 21 16.875C21 19.1532 19.1532 21 16.875 21C14.5968 21 12.75 19.1532 12.75 16.875V14.4ZM14.4 14.25H16.875C18.3247 14.25 19.5 15.4253 19.5 16.875C19.5 18.3247 18.3247 19.5 16.875 19.5C15.4253 19.5 14.25 18.3247 14.25 16.875V14.4C14.25 14.3172 14.3172 14.25 14.4 14.25Z" fill="#A4A8BE"/>
</svg>
