<svg width="27" height="26" viewBox="0 0 27 26" fill="none" xmlns="http://www.w3.org/2000/svg">
<mask id="mask0_4933_1228" style="mask-type:luminance" maskUnits="userSpaceOnUse" x="1" y="5" width="9" height="16">
<path d="M1.31885 5.63379H9.82538V20.3671H1.31885V5.63379Z" fill="white"/>
</mask>
<g mask="url(#mask0_4933_1228)">
<mask id="mask1_4933_1228" style="mask-type:luminance" maskUnits="userSpaceOnUse" x="1" y="0" width="25" height="26">
<path d="M25.3765 10.7352H13.7722V15.5463H20.4518C19.8291 18.6028 17.2252 20.3575 13.7722 20.3575C9.6966 20.3575 6.41343 17.0745 6.41343 12.9992C6.41343 8.92389 9.6966 5.64098 13.7722 5.64098C15.527 5.64098 17.112 6.26363 18.3573 7.28243L21.9801 3.65997C19.7725 1.73549 16.9422 0.546875 13.7722 0.546875C6.86626 0.546875 1.31885 6.09381 1.31885 12.9992C1.31885 19.9046 6.86626 25.4516 13.7722 25.4516C19.9989 25.4516 25.6595 20.9234 25.6595 12.9992C25.6595 12.2634 25.5463 11.4709 25.3765 10.7352Z" fill="white"/>
</mask>
<g mask="url(#mask1_4933_1228)">
<path d="M0.186768 20.3571V5.64062L9.80981 12.9988L0.186768 20.3571Z" fill="#FBBC05"/>
</g>
</g>
<mask id="mask2_4933_1228" style="mask-type:luminance" maskUnits="userSpaceOnUse" x="1" y="0" width="25" height="14">
<path d="M1.31885 0.538086H25.6595V13.0008H1.31885V0.538086Z" fill="white"/>
</mask>
<g mask="url(#mask2_4933_1228)">
<mask id="mask3_4933_1228" style="mask-type:luminance" maskUnits="userSpaceOnUse" x="1" y="0" width="25" height="26">
<path d="M25.3765 10.7352H13.7722V15.5463H20.4518C19.8291 18.6028 17.2252 20.3575 13.7722 20.3575C9.6966 20.3575 6.41343 17.0745 6.41343 12.9992C6.41343 8.92389 9.6966 5.64098 13.7722 5.64098C15.527 5.64098 17.112 6.26363 18.3573 7.28243L21.9801 3.65997C19.7725 1.73549 16.9422 0.546875 13.7722 0.546875C6.86626 0.546875 1.31885 6.09381 1.31885 12.9992C1.31885 19.9046 6.86626 25.4516 13.7722 25.4516C19.9989 25.4516 25.6595 20.9234 25.6595 12.9992C25.6595 12.2634 25.5463 11.4709 25.3765 10.7352Z" fill="white"/>
</mask>
<g mask="url(#mask3_4933_1228)">
<path d="M0.186768 5.64025L9.80982 12.9985L13.7722 9.5458L27.3577 7.33831V-0.585938H0.186768V5.64025Z" fill="#EA4335"/>
</g>
</g>
<mask id="mask4_4933_1228" style="mask-type:luminance" maskUnits="userSpaceOnUse" x="1" y="0" width="25" height="26">
<path d="M1.31885 0.538086H25.6595V25.4518H1.31885V0.538086Z" fill="white"/>
</mask>
<g mask="url(#mask4_4933_1228)">
<mask id="mask5_4933_1228" style="mask-type:luminance" maskUnits="userSpaceOnUse" x="1" y="0" width="25" height="26">
<path d="M25.3765 10.7352H13.7722V15.5463H20.4518C19.8291 18.6028 17.2252 20.3575 13.7722 20.3575C9.6966 20.3575 6.41343 17.0745 6.41343 12.9992C6.41343 8.92389 9.6966 5.64098 13.7722 5.64098C15.527 5.64098 17.112 6.26363 18.3573 7.28243L21.9801 3.65997C19.7725 1.73549 16.9422 0.546875 13.7722 0.546875C6.86626 0.546875 1.31885 6.09381 1.31885 12.9992C1.31885 19.9046 6.86626 25.4516 13.7722 25.4516C19.9989 25.4516 25.6595 20.9234 25.6595 12.9992C25.6595 12.2634 25.5463 11.4709 25.3765 10.7352Z" fill="white"/>
</mask>
<g mask="url(#mask5_4933_1228)">
<path d="M0.186768 20.3567L17.1686 7.33831L21.6405 7.90435L27.3577 -0.585938V26.5829H0.186768V20.3567Z" fill="#34A853"/>
</g>
</g>
<mask id="mask6_4933_1228" style="mask-type:luminance" maskUnits="userSpaceOnUse" x="7" y="5" width="19" height="21">
<path d="M7.53735 5.63379H25.6595V25.4515H7.53735V5.63379Z" fill="white"/>
</mask>
<g mask="url(#mask6_4933_1228)">
<mask id="mask7_4933_1228" style="mask-type:luminance" maskUnits="userSpaceOnUse" x="1" y="0" width="25" height="26">
<path d="M25.3765 10.7352H13.7722V15.5463H20.4518C19.8291 18.6028 17.2252 20.3575 13.7722 20.3575C9.6966 20.3575 6.41343 17.0745 6.41343 12.9992C6.41343 8.92389 9.6966 5.64098 13.7722 5.64098C15.527 5.64098 17.112 6.26363 18.3573 7.28243L21.9801 3.65997C19.7725 1.73549 16.9422 0.546875 13.7722 0.546875C6.86626 0.546875 1.31885 6.09381 1.31885 12.9992C1.31885 19.9046 6.86626 25.4516 13.7722 25.4516C19.9989 25.4516 25.6595 20.9234 25.6595 12.9992C25.6595 12.2634 25.5463 11.4709 25.3765 10.7352Z" fill="white"/>
</mask>
<g mask="url(#mask7_4933_1228)">
<path d="M27.3578 26.5833L9.80989 12.9988L7.54565 11.3008L27.3578 5.64062V26.5833Z" fill="#4285F4"/>
</g>
</g>
</svg>
