<svg width="106" height="43" viewBox="0 0 106 43" fill="none" xmlns="http://www.w3.org/2000/svg">
<path d="M10.5919 34.1485C9.2497 34.1485 8.00619 34.7604 6.86137 35.9842L6.03237 35.4512C6.46661 34.3064 8.00619 32.9445 10.6511 31.3654L13.7303 29.7074C11.2038 29.7074 9.05231 29.135 7.27587 27.9902C5.49943 26.8454 4.1375 25.3255 3.19006 23.4307C2.2821 21.5358 1.82812 19.483 1.82812 17.2723C1.82812 13.9169 2.83477 11.0745 4.84807 8.74544C7.05875 6.17947 10.059 4.89648 13.8487 4.89648C17.6779 4.89648 20.6781 6.17947 22.8493 8.74544C24.7837 11.0745 25.7508 13.8379 25.7508 17.0355C25.7508 20.1936 24.9613 22.9175 23.3823 25.2071C21.8032 27.4573 19.5136 28.8587 16.5134 29.4114L13.4342 31.247C13.9474 31.4049 14.4408 31.5826 14.9146 31.7799L16.3949 32.3129C17.5792 32.7866 18.724 33.0234 19.8294 33.0234C20.9742 33.0234 22.0993 32.4116 23.2046 31.1878L24.0336 31.7207C23.7178 32.5892 23.0467 33.5564 22.0203 34.6222C21.0334 35.6881 19.9478 36.221 18.7635 36.221C18.0135 36.221 17.2634 36.1026 16.5134 35.8658C15.8028 35.6684 14.7961 35.3328 13.4934 34.8591C12.1907 34.3854 11.2235 34.1485 10.5919 34.1485ZM19.4741 24.6742C19.8689 23.9636 20.2636 22.9964 20.6584 21.7727C21.0531 20.5489 21.2505 19.2659 21.2505 17.9237C21.2505 13.226 20.1649 9.85078 17.9937 7.798C16.8489 6.73214 15.4475 6.19921 13.7895 6.19921C11.184 6.19921 9.2497 7.36376 7.98645 9.69287C6.88111 11.7062 6.34818 14.2129 6.38765 17.2131C6.42713 20.1739 6.9798 22.6609 8.04566 24.6742C9.34839 27.1217 11.2433 28.3455 13.7303 28.3455C16.2173 28.3455 18.1319 27.1217 19.4741 24.6742Z" fill="#1E1E1E"/>
<path d="M40.6283 17.752H38.4506V9.42656H40.6283V17.752ZM38.5679 13.7484L38.5846 14.3179C38.5623 14.4743 38.5065 14.7032 38.4171 15.0047C38.3278 15.2951 38.1882 15.6078 37.9983 15.9428C37.8196 16.2778 37.5851 16.6017 37.2948 16.9144C37.0044 17.2159 36.6471 17.4672 36.2227 17.6682C35.7983 17.858 35.2958 17.953 34.7151 17.953C34.2572 17.953 33.8049 17.8971 33.3582 17.7855C32.9227 17.6738 32.5262 17.4895 32.1689 17.2327C31.8115 16.9646 31.5267 16.6073 31.3146 16.1606C31.1024 15.7139 30.9963 15.1499 30.9963 14.4687V9.42656H33.174V14.1002C33.174 14.6362 33.2577 15.0606 33.4252 15.3733C33.6039 15.6748 33.8608 15.887 34.1958 16.0098C34.5308 16.1327 34.9273 16.1941 35.3851 16.1941C35.9882 16.1941 36.5075 16.0657 36.943 15.8088C37.3785 15.5408 37.7303 15.2169 37.9983 14.8372C38.2775 14.4575 38.4674 14.0946 38.5679 13.7484ZM46.6648 17.9362C45.8384 17.9362 45.0846 17.7575 44.4033 17.4002C43.7333 17.0316 43.1972 16.5235 42.7952 15.8758C42.4044 15.2169 42.2089 14.4575 42.2089 13.5976C42.2089 12.7154 42.4099 11.9504 42.812 11.3027C43.214 10.655 43.7556 10.1524 44.4368 9.79509C45.1292 9.42656 45.911 9.2423 46.782 9.2423C47.7424 9.2423 48.513 9.43773 49.0937 9.82859C49.6856 10.2083 50.1155 10.7276 50.3836 11.3865C50.6516 12.0453 50.7856 12.7824 50.7856 13.5976C50.7856 14.089 50.7074 14.5915 50.5511 15.1052C50.3947 15.6078 50.1546 16.0768 49.8308 16.5124C49.5069 16.9367 49.0825 17.2829 48.5577 17.5509C48.0328 17.8078 47.4018 17.9362 46.6648 17.9362ZM47.3683 16.2611C48.0272 16.2611 48.5968 16.1494 49.077 15.9261C49.5572 15.7027 49.9257 15.39 50.1825 14.988C50.4394 14.586 50.5678 14.1225 50.5678 13.5976C50.5678 13.0281 50.4338 12.5479 50.1658 12.157C49.9089 11.755 49.5404 11.4535 49.0602 11.2525C48.5912 11.0403 48.0272 10.9342 47.3683 10.9342C46.4414 10.9342 45.7211 11.1799 45.2074 11.6712C44.6937 12.1514 44.4368 12.7936 44.4368 13.5976C44.4368 14.1337 44.5597 14.6027 44.8054 15.0047C45.0511 15.3956 45.3917 15.7027 45.8272 15.9261C46.2739 16.1494 46.7876 16.2611 47.3683 16.2611ZM50.5678 9.42656H52.7455V17.752H50.7186C50.7186 17.752 50.7018 17.6459 50.6683 17.4337C50.646 17.2103 50.6237 16.9311 50.6013 16.5961C50.579 16.2611 50.5678 15.9316 50.5678 15.6078V9.42656ZM54.7164 9.42656H56.894V17.752H54.7164V9.42656ZM60.7636 9.2423C61.2773 9.2423 61.7519 9.3093 62.1875 9.44331C62.623 9.57732 63.0027 9.78392 63.3265 10.0631C63.6504 10.3423 63.9017 10.6997 64.0804 11.1352C64.259 11.5596 64.3484 12.0677 64.3484 12.6596V17.752H62.1707V13.0448C62.1707 12.3413 61.9976 11.8276 61.6514 11.5037C61.3164 11.1687 60.7636 11.0012 59.993 11.0012C59.4123 11.0012 58.8875 11.1129 58.4184 11.3362C57.9494 11.5596 57.5697 11.8443 57.2793 12.1905C56.989 12.5255 56.8215 12.8773 56.7768 13.2459L56.76 12.3915C56.8159 12.0007 56.9443 11.621 57.1453 11.2525C57.3463 10.8839 57.6144 10.5489 57.9494 10.2474C58.2956 9.93468 58.7032 9.689 59.1722 9.51032C59.6413 9.33164 60.1717 9.2423 60.7636 9.2423ZM65.7448 9.42656H72.2108V11.1184H65.7448V9.42656ZM67.8889 7.14838H70.0666V17.752H67.8889V7.14838ZM83.2263 17.752H81.0486V9.42656H83.2263V17.752ZM81.1659 13.7484L81.1826 14.3179C81.1603 14.4743 81.1045 14.7032 81.0151 15.0047C80.9258 15.2951 80.7862 15.6078 80.5963 15.9428C80.4177 16.2778 80.1831 16.6017 79.8928 16.9144C79.6024 17.2159 79.2451 17.4672 78.8207 17.6682C78.3963 17.858 77.8938 17.953 77.3131 17.953C76.8552 17.953 76.4029 17.8971 75.9562 17.7855C75.5207 17.6738 75.1243 17.4895 74.7669 17.2327C74.4095 16.9646 74.1248 16.6073 73.9126 16.1606C73.7004 15.7139 73.5943 15.1499 73.5943 14.4687V9.42656H75.772V14.1002C75.772 14.6362 75.8557 15.0606 76.0232 15.3733C76.2019 15.6748 76.4588 15.887 76.7938 16.0098C77.1288 16.1327 77.5253 16.1941 77.9831 16.1941C78.5862 16.1941 79.1055 16.0657 79.541 15.8088C79.9765 15.5408 80.3283 15.2169 80.5963 14.8372C80.8755 14.4575 81.0654 14.0946 81.1659 13.7484ZM85.209 9.42656H87.3866V17.752H85.209V9.42656ZM91.2562 9.2423C91.7699 9.2423 92.2445 9.3093 92.68 9.44331C93.1156 9.57732 93.4953 9.78392 93.8191 10.0631C94.143 10.3423 94.3943 10.6997 94.5729 11.1352C94.7516 11.5596 94.841 12.0677 94.841 12.6596V17.752H92.6633V13.0448C92.6633 12.3413 92.4902 11.8276 92.144 11.5037C91.809 11.1687 91.2562 11.0012 90.4856 11.0012C89.9049 11.0012 89.38 11.1129 88.911 11.3362C88.442 11.5596 88.0623 11.8443 87.7719 12.1905C87.4816 12.5255 87.314 12.8773 87.2694 13.2459L87.2526 12.3915C87.3085 12.0007 87.4369 11.621 87.6379 11.2525C87.8389 10.8839 88.1069 10.5489 88.442 10.2474C88.7882 9.93468 89.1958 9.689 89.6648 9.51032C90.1338 9.33164 90.6643 9.2423 91.2562 9.2423ZM98.5095 9.2423C99.0232 9.2423 99.4978 9.3093 99.9334 9.44331C100.369 9.57732 100.749 9.78392 101.072 10.0631C101.396 10.3423 101.648 10.6997 101.826 11.1352C102.016 11.5596 102.111 12.0677 102.111 12.6596V17.752H99.9334V13.0448C99.9334 12.3413 99.7603 11.8276 99.4141 11.5037C99.0679 11.1687 98.5095 11.0012 97.7389 11.0012C97.1582 11.0012 96.6334 11.1129 96.1643 11.3362C95.6953 11.5596 95.3156 11.8443 95.0252 12.1905C94.7349 12.5255 94.5729 12.8773 94.5394 13.2459L94.5059 12.3413C94.5618 11.9728 94.6958 11.6042 94.908 11.2357C95.1202 10.8672 95.3993 10.5321 95.7455 10.2306C96.0917 9.9291 96.4938 9.689 96.9516 9.51032C97.4207 9.33164 97.94 9.2423 98.5095 9.2423Z" fill="#1E1E1E"/>
<path d="M67.465 32.8356C72.8706 35.7814 80.1877 36.6105 86.7046 35.5262C85.5692 35.258 84.3502 34.9475 83.2149 34.6793C90.6036 35.4653 98.7228 32.9038 103.07 28.3459C98.648 23.8288 90.4835 21.3401 83.1121 22.1976C84.2429 21.9189 85.4567 21.5971 86.5875 21.3184C80.0495 20.2977 72.7466 21.1919 67.3937 24.1878C68.2079 23.6542 68.7737 22.8768 69.1122 22.1033C66.5291 24.1207 62.4809 24.4813 58.785 24.8204C55.0853 25.1595 50.9963 24.7028 48.8094 26.9719L48.8197 28.228C49.6039 28.1902 50.3842 28.1552 51.1685 28.1259C55.6502 27.9541 60.3485 27.8468 64.8322 27.9C69.187 27.9595 80.8334 28.0477 85.332 28.0809C89.8877 28.1366 94.4432 28.1752 98.9989 28.2423L98.9998 28.3563C88.4932 28.6159 75.4014 28.7936 64.8414 29.0165C59.529 29.1068 54.1548 29.0549 48.8247 28.8347L48.8348 30.0567C51.0589 32.3024 55.1452 31.9785 58.8465 32.2832C62.5515 32.5878 66.6053 32.908 69.2177 34.904C68.8627 34.1365 68.2879 33.3644 67.465 32.8356Z" fill="#1E1E1E"/>
<g style="mix-blend-mode:screen">
<path d="M83.1165 22.1968C84.2473 21.9181 85.4611 21.5963 86.5919 21.3176C80.0539 20.2969 72.751 21.1911 67.3981 24.187C68.2123 23.6534 68.7781 22.876 69.1166 22.1025C66.5335 24.1198 62.4853 24.4805 58.7894 24.8196C55.4873 25.1226 51.873 24.7919 49.5778 26.3323C51.1545 25.8977 52.8892 25.7728 54.5793 25.7621C56.7544 25.7463 58.9386 25.9042 61.105 25.746C63.2713 25.5878 65.5984 25.1468 67.1503 24.0002C66.8957 24.3745 66.7712 24.9106 66.5166 25.285C71.3598 22.9808 76.8982 21.8099 82.6286 21.8601C81.5109 22.3439 80.5003 22.961 79.6917 23.7139C87.7793 22.3831 96.6461 24.0965 102.899 28.1721C98.4397 23.7663 90.3932 21.3511 83.1127 22.194L83.1165 22.1968Z" fill="#1E1E1E"/>
</g>
<g style="mix-blend-mode:multiply">
<path d="M64.8324 27.9002C69.1873 27.9597 80.8337 28.0479 85.3323 28.0811C89.8879 28.1368 94.4434 28.1755 98.9992 28.2426C98.9992 28.2426 78.7217 26.0695 48.82 28.2283C49.6041 28.1904 50.3845 28.1555 51.1687 28.1262C55.6505 27.9544 60.3488 27.847 64.8324 27.9002Z" fill="#1E1E1E"/>
</g>
<g style="mix-blend-mode:multiply">
<path d="M67.4643 32.8348C72.8661 35.7806 80.1832 36.6097 86.7002 35.5282C85.5648 35.2601 84.3496 34.9495 83.2143 34.6842C83.2143 34.6842 83.2181 34.6842 83.2219 34.6842C83.2219 34.6842 83.2181 34.6842 83.2143 34.6842C85.0615 34.8807 86.9524 34.8691 88.8191 34.6667C88.8304 34.6666 88.8418 34.6637 88.8569 34.6637C89.0765 34.6398 89.2923 34.6132 89.5119 34.5837C89.5422 34.5807 89.5725 34.5749 89.6065 34.569C89.8034 34.5425 90.004 34.513 90.2008 34.4836C90.25 34.4749 90.2992 34.4661 90.3446 34.4602C90.5263 34.4308 90.7041 34.4015 90.882 34.3665C90.9463 34.3548 91.0068 34.3432 91.0711 34.3286C91.2338 34.2965 91.3965 34.2673 91.5592 34.2323C91.6349 34.2149 91.7143 34.1974 91.79 34.1828C91.9375 34.1508 92.085 34.1188 92.2326 34.0839C92.3196 34.0636 92.4103 34.0404 92.4973 34.02C92.6297 33.9881 92.7658 33.9533 92.8982 33.9213C93.0003 33.8952 93.0986 33.8663 93.1969 33.8402C93.3179 33.8083 93.4351 33.7764 93.5561 33.7417C93.6658 33.7098 93.7754 33.6751 93.885 33.6433C93.9909 33.6114 94.0967 33.5796 94.2025 33.5449C94.3235 33.5074 94.4406 33.4669 94.5578 33.4294C94.6523 33.3976 94.7468 33.3658 94.845 33.334C94.9697 33.2907 95.0982 33.2445 95.2229 33.2012C95.306 33.1695 95.393 33.1406 95.4761 33.1089C95.6083 33.0599 95.7405 33.008 95.8727 32.9561C95.9483 32.9272 96.0238 32.8984 96.0956 32.8696C96.2354 32.8148 96.3713 32.7572 96.5073 32.6968C96.5714 32.668 96.6394 32.642 96.7036 32.6132C96.8471 32.5499 96.9868 32.4866 97.1303 32.4233C97.1869 32.3974 97.2473 32.3714 97.304 32.3455C97.4512 32.2765 97.5946 32.2075 97.7381 32.1356C97.7871 32.1097 97.84 32.0867 97.889 32.0608C98.0362 31.9861 98.1834 31.9113 98.3306 31.8337C98.3758 31.8107 98.4173 31.7877 98.4626 31.7647C98.6136 31.6843 98.7607 31.601 98.9078 31.5177C98.9455 31.4976 98.9832 31.4746 99.0209 31.4545C99.1718 31.3683 99.3189 31.2794 99.4659 31.1904C99.4999 31.1703 99.5338 31.1502 99.564 31.1301C99.7148 31.0382 99.8618 30.9436 100.005 30.8489C100.035 30.8288 100.062 30.8116 100.092 30.7915C100.239 30.694 100.386 30.5964 100.529 30.4961C100.555 30.4789 100.582 30.4617 100.608 30.4416C100.751 30.3384 100.894 30.2352 101.038 30.1291C101.06 30.1119 101.083 30.0947 101.105 30.0775C101.248 29.9715 101.384 29.8626 101.523 29.7508C101.546 29.7336 101.565 29.7165 101.587 29.6993C101.723 29.5876 101.858 29.4758 101.99 29.3613C102.009 29.3441 102.028 29.3269 102.05 29.3097C102.182 29.1952 102.31 29.0778 102.438 28.9604C102.456 28.9432 102.475 28.926 102.494 28.9089C102.618 28.7915 102.742 28.6713 102.862 28.5511C102.874 28.5425 102.881 28.5311 102.893 28.5225C96.7077 32.6531 87.8737 34.4517 79.7648 33.1934C80.5895 33.9387 81.6063 34.5464 82.732 35.0197C77.0029 35.1261 71.4456 34.0069 66.5648 31.7451C66.8255 32.1171 66.9588 32.652 67.2196 33.0239C65.6489 31.8918 63.3148 31.4725 61.146 31.3345C58.9771 31.1965 56.7957 31.3747 54.6205 31.3791C53.0857 31.3834 51.516 31.291 50.0581 30.9617C52.3763 32.2128 55.7438 32.0291 58.8459 32.2824C62.5471 32.587 66.6009 32.9071 69.217 34.9003C68.862 34.1329 68.2872 33.3608 67.4643 32.8348C67.4643 32.8348 67.4643 32.8348 67.4681 32.8347C67.4681 32.8347 67.4681 32.8347 67.4643 32.8319L67.4643 32.8348Z" fill="#1E1E1E"/>
</g>
<g style="mix-blend-mode:screen">
<path d="M64.8406 29.0255C69.1941 28.9255 80.8381 28.7289 85.3358 28.6538C89.8902 28.5557 94.4447 28.4747 98.999 28.3652C98.999 28.3652 78.7589 30.7268 48.8239 28.8465C49.6086 28.8771 50.3895 28.9048 51.1742 28.9268C55.6584 29.0569 60.3581 29.1205 64.8406 29.0255Z" fill="#1E1E1E"/>
</g>
<g style="mix-blend-mode:screen">
<path d="M84.861 23.2759C87.9294 23.1249 91.0589 23.5005 93.9196 24.3503C90.9623 23.7317 87.9276 23.367 84.861 23.2759Z" fill="#1E1E1E"/>
</g>
<g style="mix-blend-mode:screen">
<path d="M71.7069 23.3261C73.6945 22.6218 75.8663 22.1987 78.0596 22.0859C75.9781 22.4261 73.7457 22.8609 71.7069 23.3261Z" fill="#1E1E1E"/>
</g>
<g style="mix-blend-mode:screen">
<path d="M57.5241 25.8051C58.7246 25.7055 59.9033 25.7142 61.1087 25.7485C59.9356 25.9562 58.7114 25.9477 57.5241 25.8051Z" fill="#1E1E1E"/>
</g>
<g style="mix-blend-mode:screen">
<path d="M86.7852 29.2383C81.3614 29.6053 75.9013 29.7077 70.4582 29.5706C75.0885 29.4864 82.2081 29.3479 86.7852 29.2383Z" fill="#1E1E1E"/>
</g>
<path d="M42.6816 30.3275L42.6536 26.9265L36.047 25.852C36.047 25.852 33.216 28.1411 30.0517 28.1559L30.0543 28.4635L35.4202 28.4385C35.5358 28.2015 35.8375 28.0321 36.19 28.0304C36.6485 28.0283 37.0222 28.3057 37.025 28.6504C37.0278 28.995 36.6588 29.2759 36.2002 29.278C35.844 29.2797 35.5433 29.113 35.4238 28.8772L30.0579 28.9021L30.0604 29.2098C33.2247 29.195 36.0931 31.4576 36.0931 31.4576L42.6816 30.3218L42.6816 30.3275Z" fill="#1E1E1E"/>
<g style="mix-blend-mode:screen">
<path d="M36.081 25.8566C37.8901 26.9506 40.3947 27.3719 42.6499 26.9484L42.6497 26.9227L36.081 25.8538L36.081 25.8566Z" fill="#1E1E1E"/>
</g>
<g style="mix-blend-mode:multiply">
<path d="M42.6821 30.3279L42.6819 30.3137C40.4276 29.9111 37.9414 30.3528 36.1504 31.455L42.6821 30.3279Z" fill="#1E1E1E"/>
</g>
<g style="mix-blend-mode:multiply">
<path d="M36.1294 29.4506C37.0427 29.4464 37.7787 29.0869 37.7751 28.6482C37.7715 28.2096 37.0296 27.857 36.1163 27.8612C35.6275 27.8635 35.1963 27.968 34.8945 28.1318L30.0477 28.1544L30.0502 28.462L35.4162 28.437C35.5317 28.2 35.8335 28.0306 36.1859 28.0289C36.6444 28.0268 37.0181 28.3042 37.021 28.6489C37.0238 28.9935 36.6547 29.2744 36.1962 29.2765C35.84 29.2782 35.5392 29.1115 35.4198 28.8757L30.0538 28.9006L30.0562 29.1883L34.8689 29.1659C35.1735 29.3383 35.6216 29.4501 36.1294 29.4478L36.1294 29.4506Z" fill="#1E1E1E"/>
</g>
<path d="M47.6379 30.2193L47.6113 26.9893L43.8559 27.0067L43.8825 30.2368L47.6379 30.2193Z" fill="#1E1E1E"/>
<g style="mix-blend-mode:screen">
<path d="M45.7394 27.4737C46.7778 27.4688 47.6135 27.2513 47.6113 26.9893L43.8559 27.0067C43.8581 27.2688 44.7011 27.4785 45.7356 27.4737L45.7394 27.4737Z" fill="#1E1E1E"/>
</g>
<g style="mix-blend-mode:multiply">
<path d="M45.7561 29.7519C44.7178 29.7567 43.8821 29.9743 43.8842 30.2363L47.6397 30.2188C47.6375 29.9568 46.7945 29.7471 45.7599 29.7519L45.7561 29.7519Z" fill="#1E1E1E"/>
</g>
</svg>
