<svg width="118" height="37" viewBox="0 0 118 37" fill="none" xmlns="http://www.w3.org/2000/svg">
<path d="M10.25 34.1121C8.69889 34.1121 7.26181 34.8192 5.93879 36.2335L4.98075 35.6176C5.48258 34.2946 7.26181 32.7206 10.3184 30.8958L13.8769 28.9797C10.9571 28.9797 8.47078 28.3182 6.41782 26.9951C4.36486 25.6721 2.79092 23.9157 1.69601 21.7259C0.646716 19.536 0.12207 17.1637 0.12207 14.6089C0.12207 10.7311 1.28542 7.44638 3.6121 4.75472C6.1669 1.78934 9.63412 0.306641 14.0138 0.306641C18.439 0.306641 21.9063 1.78934 24.4154 4.75472C26.6509 7.44638 27.7686 10.6399 27.7686 14.3352C27.7686 17.9849 26.8562 21.1328 25.0313 23.7788C23.2065 26.3792 20.5604 27.9988 17.0932 28.6375L13.5347 30.7589C14.1278 30.9414 14.6981 31.1467 15.2456 31.3748L16.9564 31.9907C18.325 32.5381 19.648 32.8119 20.9254 32.8119C22.2484 32.8119 23.5486 32.1047 24.826 30.6905L25.7841 31.3064C25.4191 32.31 24.6435 33.4277 23.4574 34.6595C22.3169 35.8913 21.0623 36.5072 19.6936 36.5072C18.8268 36.5072 17.96 36.3703 17.0932 36.0966C16.272 35.8685 15.1087 35.4807 13.6032 34.9333C12.0977 34.3858 10.98 34.1121 10.25 34.1121ZM20.5148 23.1629C20.971 22.3418 21.4272 21.224 21.8835 19.8098C22.3397 18.3955 22.5678 16.9128 22.5678 15.3617C22.5678 9.93275 21.3132 6.03212 18.804 3.65981C17.481 2.42803 15.8614 1.81215 13.9453 1.81215C10.9343 1.81215 8.69889 3.15798 7.239 5.84964C5.9616 8.17633 5.34572 11.0733 5.39134 14.5405C5.43696 17.9621 6.07566 20.8363 7.30743 23.1629C8.81294 25.9915 11.0028 27.4057 13.8769 27.4057C16.7511 27.4057 18.9637 25.9915 20.5148 23.1629Z" fill="#FFDB64"/>
<path d="M44.9618 15.4746H42.4451V5.85328H44.9618V15.4746ZM42.5807 10.8479L42.6 11.5061C42.5742 11.6867 42.5097 11.9513 42.4064 12.2998C42.3032 12.6353 42.1419 12.9967 41.9225 13.3839C41.716 13.771 41.4449 14.1453 41.1094 14.5067C40.7738 14.8551 40.3608 15.1455 39.8704 15.3778C39.38 15.5972 38.7992 15.7069 38.1281 15.7069C37.599 15.7069 37.0763 15.6424 36.5601 15.5133C36.0567 15.3843 35.5986 15.1713 35.1856 14.8745C34.7726 14.5647 34.4435 14.1518 34.1983 13.6355C33.9531 13.1193 33.8305 12.4675 33.8305 11.6803V5.85328H36.3471V11.2544C36.3471 11.8739 36.4439 12.3643 36.6375 12.7257C36.844 13.0741 37.1408 13.3193 37.528 13.4613C37.9152 13.6033 38.3733 13.6742 38.9025 13.6742C39.5994 13.6742 40.1995 13.5258 40.7029 13.229C41.2062 12.9192 41.6127 12.545 41.9225 12.1062C42.2451 11.6674 42.4645 11.2479 42.5807 10.8479ZM51.9379 15.6876C50.9829 15.6876 50.1117 15.4811 49.3245 15.0681C48.5501 14.6422 47.9306 14.055 47.466 13.3064C47.0143 12.545 46.7885 11.6674 46.7885 10.6736C46.7885 9.65406 47.0208 8.77001 47.4854 8.02147C47.95 7.27293 48.5759 6.69216 49.3632 6.27917C50.1634 5.85328 51.0668 5.64033 52.0734 5.64033C53.1833 5.64033 54.0738 5.86619 54.7449 6.31789C55.429 6.75669 55.9258 7.35682 56.2356 8.11826C56.5453 8.87971 56.7002 9.7315 56.7002 10.6736C56.7002 11.2415 56.6098 11.8222 56.4292 12.4159C56.2485 12.9967 55.971 13.5387 55.5967 14.0421C55.2225 14.5325 54.732 14.9326 54.1255 15.2423C53.5189 15.5391 52.7897 15.6876 51.9379 15.6876ZM52.751 13.7517C53.5124 13.7517 54.1706 13.6226 54.7256 13.3645C55.2805 13.1064 55.7064 12.745 56.0033 12.2804C56.3001 11.8158 56.4485 11.2802 56.4485 10.6736C56.4485 10.0154 56.2936 9.46047 55.9839 9.00877C55.6871 8.54416 55.2612 8.1957 54.7062 7.96339C54.1642 7.71818 53.5124 7.59557 52.751 7.59557C51.6798 7.59557 50.8474 7.8795 50.2537 8.44736C49.66 9.00231 49.3632 9.7444 49.3632 10.6736C49.3632 11.2931 49.5052 11.8352 49.7891 12.2998C50.073 12.7515 50.4666 13.1064 50.97 13.3645C51.4862 13.6226 52.0799 13.7517 52.751 13.7517ZM56.4485 5.85328H58.9652V15.4746H56.6227C56.6227 15.4746 56.6034 15.352 56.5647 15.1068C56.5389 14.8487 56.513 14.526 56.4872 14.1389C56.4614 13.7517 56.4485 13.371 56.4485 12.9967V5.85328ZM61.2429 5.85328H63.7595V15.4746H61.2429V5.85328ZM68.2314 5.64033C68.8251 5.64033 69.3736 5.71777 69.8769 5.87264C70.3802 6.02751 70.819 6.26627 71.1933 6.58892C71.5675 6.91156 71.8579 7.32455 72.0644 7.82788C72.2709 8.3183 72.3742 8.90552 72.3742 9.58953V15.4746H69.8575V10.0348C69.8575 9.22171 69.6575 8.62804 69.2574 8.25377C68.8702 7.8666 68.2314 7.67301 67.3409 7.67301C66.6698 7.67301 66.0632 7.80207 65.5211 8.06019C64.9791 8.3183 64.5403 8.6474 64.2047 9.04748C63.8692 9.43466 63.6756 9.8412 63.624 10.2671L63.6046 9.27979C63.6692 8.82808 63.8176 8.38929 64.0499 7.96339C64.2822 7.5375 64.5919 7.15032 64.9791 6.80186C65.3792 6.4405 65.8502 6.15657 66.3923 5.95008C66.9343 5.74358 67.5474 5.64033 68.2314 5.64033ZM73.9879 5.85328H81.4604V7.80852H73.9879V5.85328ZM76.4658 3.22048H78.9825V15.4746H76.4658V3.22048ZM94.1906 15.4746H91.674V5.85328H94.1906V15.4746ZM91.8095 10.8479L91.8289 11.5061C91.803 11.6867 91.7385 11.9513 91.6353 12.2998C91.532 12.6353 91.3707 12.9967 91.1513 13.3839C90.9448 13.771 90.6738 14.1453 90.3382 14.5067C90.0027 14.8551 89.5897 15.1455 89.0993 15.3778C88.6088 15.5972 88.0281 15.7069 87.357 15.7069C86.8278 15.7069 86.3051 15.6424 85.7889 15.5133C85.2856 15.3843 84.8274 15.1713 84.4144 14.8745C84.0014 14.5647 83.6723 14.1518 83.4271 13.6355C83.1819 13.1193 83.0593 12.4675 83.0593 11.6803V5.85328H85.576V11.2544C85.576 11.8739 85.6728 12.3643 85.8663 12.7257C86.0728 13.0741 86.3697 13.3193 86.7569 13.4613C87.144 13.6033 87.6022 13.6742 88.1313 13.6742C88.8282 13.6742 89.4284 13.5258 89.9317 13.229C90.435 12.9192 90.8416 12.545 91.1513 12.1062C91.4739 11.6674 91.6933 11.2479 91.8095 10.8479ZM96.4819 5.85328H98.9986V15.4746H96.4819V5.85328ZM103.47 5.64033C104.064 5.64033 104.613 5.71777 105.116 5.87264C105.619 6.02751 106.058 6.26627 106.432 6.58892C106.807 6.91156 107.097 7.32455 107.304 7.82788C107.51 8.3183 107.613 8.90552 107.613 9.58953V15.4746H105.097V10.0348C105.097 9.22171 104.897 8.62804 104.496 8.25377C104.109 7.8666 103.47 7.67301 102.58 7.67301C101.909 7.67301 101.302 7.80207 100.76 8.06019C100.218 8.3183 99.7794 8.6474 99.4438 9.04748C99.1083 9.43466 98.9147 9.8412 98.8631 10.2671L98.8437 9.27979C98.9082 8.82808 99.0567 8.38929 99.289 7.96339C99.5213 7.5375 99.831 7.15032 100.218 6.80186C100.618 6.4405 101.089 6.15657 101.631 5.95008C102.173 5.74358 102.786 5.64033 103.47 5.64033ZM111.853 5.64033C112.446 5.64033 112.995 5.71777 113.498 5.87264C114.002 6.02751 114.44 6.26627 114.815 6.58892C115.189 6.91156 115.479 7.32455 115.686 7.82788C115.905 8.3183 116.015 8.90552 116.015 9.58953V15.4746H113.498V10.0348C113.498 9.22171 113.298 8.62804 112.898 8.25377C112.498 7.8666 111.853 7.67301 110.962 7.67301C110.291 7.67301 109.685 7.80207 109.143 8.06019C108.601 8.3183 108.162 8.6474 107.826 9.04748C107.491 9.43466 107.304 9.8412 107.265 10.2671L107.226 9.22171C107.291 8.79582 107.445 8.36993 107.691 7.94403C107.936 7.51814 108.259 7.13096 108.659 6.7825C109.059 6.43405 109.523 6.15657 110.052 5.95008C110.595 5.74358 111.195 5.64033 111.853 5.64033Z" fill="url(#paint0_angular_5234_676)"/>
<path d="M75.9763 32.5938C82.2233 35.9982 90.6794 36.9563 98.2107 35.7033C96.8987 35.3933 95.4899 35.0345 94.1778 34.7246C102.717 35.6329 112.1 32.6726 117.123 27.4052C112.013 22.185 102.578 19.309 94.059 20.3C95.3659 19.9779 96.7686 19.6059 98.0755 19.2838C90.5198 18.1043 82.0801 19.1377 75.894 22.6C76.8349 21.9833 77.4888 21.0848 77.88 20.1909C74.8948 22.5223 70.2165 22.9391 65.9452 23.331C61.6696 23.7229 56.9441 23.1951 54.4167 25.8174L54.4287 27.269C55.3349 27.2253 56.2368 27.1849 57.1431 27.1511C62.3225 26.9525 67.7521 26.8285 72.9337 26.8899C77.9664 26.9587 91.4257 27.0606 96.6245 27.099C101.889 27.1634 107.154 27.208 112.419 27.2856L112.42 27.4172C100.278 27.7173 85.1481 27.9227 72.9443 28.1803C66.805 28.2846 60.5943 28.2246 54.4345 27.9702L54.4461 29.3824C57.0164 31.9776 61.7389 31.6034 66.0163 31.9555C70.298 32.3075 74.9828 32.6775 78.0018 34.9842C77.5916 34.0973 76.9273 33.205 75.9763 32.5938Z" fill="url(#paint1_angular_5234_676)"/>
<g style="mix-blend-mode:color-burn">
<path d="M94.0642 20.299C95.371 19.9769 96.7738 19.605 98.0807 19.2829C90.5249 18.1033 82.0852 19.1368 75.8991 22.599C76.84 21.9824 77.494 21.0839 77.8851 20.19C74.9 22.5214 70.2216 22.9382 65.9504 23.33C62.1343 23.6803 57.9574 23.2981 55.3049 25.0782C57.127 24.5759 59.1317 24.4316 61.0849 24.4193C63.5986 24.401 66.1228 24.5835 68.6264 24.4006C71.13 24.2178 73.8192 23.7082 75.6127 22.3831C75.3184 22.8157 75.1746 23.4353 74.8804 23.8679C80.4775 21.205 86.878 19.8519 93.5004 19.9099C92.2087 20.469 91.0408 21.1822 90.1064 22.0523C99.4528 20.5143 109.7 22.4944 116.926 27.2044C111.773 22.1128 102.474 19.3217 94.0598 20.2958L94.0642 20.299Z" fill="#A5B9C6"/>
</g>
<g style="mix-blend-mode:multiply">
<path d="M72.9344 26.8899C77.9671 26.9587 91.4263 27.0606 96.6252 27.099C101.89 27.1634 107.155 27.208 112.42 27.2855C112.42 27.2855 88.9856 24.7742 54.4294 27.269C55.3356 27.2253 56.2375 27.1849 57.1438 27.151C62.3232 26.9525 67.7528 26.8284 72.9344 26.8899Z" fill="#ACBFCC"/>
</g>
<g style="mix-blend-mode:multiply">
<path d="M75.9759 32.5929C82.2186 35.9973 90.6747 36.9554 98.206 35.7057C96.894 35.3958 95.4895 35.0369 94.1775 34.7303C94.1775 34.7303 94.1819 34.7302 94.1863 34.7302C94.1863 34.7302 94.1819 34.7302 94.1775 34.7303C96.3122 34.9573 98.4975 34.9439 100.655 34.71C100.668 34.7099 100.681 34.7066 100.699 34.7065C100.952 34.679 101.202 34.6482 101.455 34.6141C101.49 34.6106 101.525 34.6039 101.565 34.5971C101.792 34.5664 102.024 34.5324 102.252 34.4985C102.308 34.4883 102.365 34.4782 102.418 34.4714C102.628 34.4375 102.833 34.4036 103.039 34.3631C103.113 34.3496 103.183 34.3361 103.257 34.3193C103.445 34.2822 103.633 34.2484 103.821 34.2081C103.909 34.1879 104.001 34.1677 104.088 34.1509C104.259 34.1139 104.429 34.0768 104.6 34.0366C104.7 34.013 104.805 33.9862 104.906 33.9627C105.059 33.9258 105.216 33.8855 105.369 33.8486C105.487 33.8184 105.6 33.785 105.714 33.7548C105.854 33.718 105.989 33.6811 106.129 33.641C106.256 33.6042 106.383 33.5641 106.509 33.5273C106.632 33.4905 106.754 33.4537 106.876 33.4137C107.016 33.3702 107.151 33.3235 107.287 33.2801C107.396 33.2434 107.505 33.2066 107.619 33.1699C107.763 33.1198 107.911 33.0665 108.055 33.0164C108.151 32.9798 108.252 32.9464 108.348 32.9097C108.501 32.8531 108.654 32.7931 108.806 32.7331C108.894 32.6998 108.981 32.6665 109.064 32.6332C109.225 32.5699 109.383 32.5033 109.54 32.4334C109.614 32.4002 109.692 32.3702 109.767 32.3369C109.932 32.2637 110.094 32.1906 110.26 32.1174C110.325 32.0874 110.395 32.0575 110.46 32.0275C110.631 31.9477 110.796 31.868 110.962 31.7849C111.019 31.755 111.08 31.7284 111.137 31.6985C111.307 31.6121 111.477 31.5257 111.647 31.4361C111.699 31.4095 111.747 31.3829 111.799 31.3563C111.974 31.2634 112.144 31.1671 112.314 31.0709C112.357 31.0476 112.401 31.0211 112.445 30.9978C112.619 30.8983 112.789 30.7954 112.959 30.6926C112.998 30.6693 113.037 30.6461 113.072 30.6229C113.247 30.5168 113.416 30.4073 113.582 30.2979C113.617 30.2747 113.647 30.2548 113.682 30.2316C113.852 30.1189 114.022 30.0062 114.187 29.8902C114.218 29.8703 114.248 29.8504 114.279 29.8272C114.444 29.708 114.61 29.5887 114.775 29.4661C114.801 29.4462 114.827 29.4264 114.853 29.4065C115.019 29.2839 115.175 29.1581 115.336 29.029C115.363 29.0091 115.384 28.9892 115.41 28.9694C115.567 28.8403 115.724 28.7111 115.876 28.5788C115.898 28.5589 115.919 28.5391 115.945 28.5192C116.098 28.3868 116.245 28.2511 116.393 28.1155C116.415 28.0956 116.437 28.0758 116.458 28.0559C116.602 27.9203 116.745 27.7814 116.884 27.6425C116.897 27.6325 116.906 27.6193 116.919 27.6094C109.771 32.383 99.5622 34.4616 90.1911 33.0074C91.1441 33.8687 92.3193 34.571 93.6201 35.118C86.9992 35.241 80.5769 33.9475 74.9363 31.3337C75.2377 31.7635 75.3917 32.3817 75.693 32.8115C73.8779 31.5032 71.1805 31.0187 68.674 30.8592C66.1676 30.6996 63.6467 30.9056 61.1328 30.9107C59.3591 30.9157 57.5451 30.8089 55.8602 30.4283C58.5393 31.8741 62.431 31.6618 66.0159 31.9546C70.2932 32.3066 74.9781 32.6766 78.0014 34.98C77.5912 34.0931 76.9269 33.2008 75.9759 32.5929C75.9759 32.5929 75.9759 32.5929 75.9803 32.5929C75.9803 32.5929 75.9803 32.5929 75.9759 32.5896L75.9759 32.5929Z" fill="#ACBFCC"/>
</g>
<g style="mix-blend-mode:color-burn">
<path d="M72.9443 28.1908C77.9755 28.0752 91.4321 27.848 96.6299 27.7613C101.893 27.6479 107.157 27.5543 112.42 27.4277C112.42 27.4277 89.0292 30.1569 54.4345 27.984C55.3414 28.0193 56.2439 28.0513 57.1506 28.0767C62.3329 28.227 67.7642 28.3005 72.9443 28.1908Z" fill="#A5B9C6"/>
</g>
<path style="mix-blend-mode:screen" d="M96.0803 21.5483C99.6263 21.3738 103.243 21.8079 106.549 22.79C103.131 22.0751 99.6243 21.6536 96.0803 21.5483Z" fill="url(#paint2_linear_5234_676)"/>
<path style="mix-blend-mode:screen" d="M80.8782 21.6071C83.1752 20.7931 85.685 20.3041 88.2197 20.1738C85.8142 20.5669 83.2344 21.0694 80.8782 21.6071Z" fill="url(#paint3_linear_5234_676)"/>
<path style="mix-blend-mode:screen" d="M64.4876 24.472C65.875 24.3569 67.2371 24.367 68.6302 24.4066C67.2745 24.6466 65.8598 24.6368 64.4876 24.472Z" fill="url(#paint4_linear_5234_676)"/>
<path style="mix-blend-mode:screen" d="M98.3037 28.4375C92.0357 28.8617 85.7257 28.9799 79.4353 28.8216C84.7863 28.7243 93.0142 28.5642 98.3037 28.4375Z" fill="url(#paint5_linear_5234_676)"/>
<path d="M47.3359 29.6939L47.3035 25.7635L39.6684 24.5218C39.6684 24.5218 36.3968 27.1673 32.74 27.1843L32.7429 27.5398L38.9441 27.5109C39.0776 27.2371 39.4264 27.0412 39.8337 27.0394C40.3636 27.0369 40.7954 27.3575 40.7987 27.7558C40.802 28.1541 40.3755 28.4787 39.8456 28.4812C39.4339 28.4831 39.0863 28.2905 38.9483 28.0179L32.7471 28.0467L32.75 28.4023C36.4068 28.3852 39.7218 31 39.7218 31L47.3358 29.6873L47.3359 29.6939Z" fill="url(#paint6_angular_5234_676)"/>
<path style="mix-blend-mode:screen" d="M39.7083 24.5268C41.799 25.7911 44.6936 26.278 47.2998 25.7885L47.2995 25.7589L39.7083 24.5236L39.7083 24.5268Z" fill="url(#paint7_linear_5234_676)"/>
<g style="mix-blend-mode:multiply">
<path d="M47.3356 29.693L47.3355 29.6766C44.7302 29.2114 41.857 29.7218 39.7872 30.9956L47.3356 29.693Z" fill="#B2C4D1"/>
</g>
<g style="mix-blend-mode:multiply">
<path d="M39.7649 28.6797C40.8203 28.6748 41.6709 28.2593 41.6667 27.7524C41.6626 27.2455 40.8052 26.838 39.7498 26.8429C39.1848 26.8455 38.6865 26.9663 38.3377 27.1556L32.7365 27.1817L32.7394 27.5372L38.9406 27.5083C39.0741 27.2345 39.4229 27.0386 39.8302 27.0367C40.3601 27.0343 40.7919 27.3548 40.7952 27.7532C40.7985 28.1515 40.372 28.4761 39.8421 28.4785C39.4304 28.4804 39.0828 28.2878 38.9448 28.0152L32.7436 28.0441L32.7463 28.3766L38.3082 28.3507C38.6602 28.5499 39.178 28.6791 39.7649 28.6764L39.7649 28.6797Z" fill="#B2C4D1"/>
</g>
<path d="M53.063 29.5688L53.0322 25.8359L48.6922 25.8561L48.723 29.589L53.063 29.5688Z" fill="url(#paint8_angular_5234_676)"/>
<g style="mix-blend-mode:color-burn">
<path d="M50.8689 26.3958C52.0689 26.3902 53.0347 26.1388 53.0322 25.8359L48.6922 25.8561C48.6947 26.159 49.669 26.4013 50.8646 26.3958L50.8689 26.3958Z" fill="#B0C2CF"/>
</g>
<g style="mix-blend-mode:multiply">
<path d="M50.8884 29.0277C49.6884 29.0333 48.7226 29.2847 48.7251 29.5875L53.0651 29.5673C53.0626 29.2645 52.0883 29.0221 50.8927 29.0277L50.8884 29.0277Z" fill="#B2C4D1"/>
</g>
<defs>
<radialGradient id="paint0_angular_5234_676" cx="0" cy="0" r="1" gradientUnits="userSpaceOnUse" gradientTransform="translate(75.1689 8.97461) rotate(-176.932) scale(41.1108 8.78724)">
<stop offset="0.0729167" stop-color="#FBFBFD"/>
<stop offset="0.244792" stop-color="#C8D4DA"/>
<stop offset="0.434957" stop-color="white"/>
<stop offset="0.532623" stop-color="#AEC0CE"/>
<stop offset="0.658692" stop-color="#E3E9EE"/>
<stop offset="0.708863" stop-color="#FAFBFC"/>
<stop offset="0.861413" stop-color="#D6DFE6"/>
<stop offset="0.921875" stop-color="#B8C9D3"/>
</radialGradient>
<radialGradient id="paint1_angular_5234_676" cx="0" cy="0" r="1" gradientUnits="userSpaceOnUse" gradientTransform="translate(85.7779 27.5518) rotate(-46.4041) scale(11.6647 23.3978)">
<stop offset="0.0729167" stop-color="#FBFBFD"/>
<stop offset="0.244792" stop-color="#C8D4DA"/>
<stop offset="0.434957" stop-color="white"/>
<stop offset="0.532623" stop-color="#AEC0CE"/>
<stop offset="0.658692" stop-color="#E3E9EE"/>
<stop offset="0.708863" stop-color="#FAFBFC"/>
<stop offset="0.861413" stop-color="#D6DFE6"/>
<stop offset="0.921875" stop-color="#B8C9D3"/>
</radialGradient>
<linearGradient id="paint2_linear_5234_676" x1="96.0855" y1="22.177" x2="106.543" y2="22.0909" gradientUnits="userSpaceOnUse">
<stop/>
<stop offset="0.52" stop-color="#A8A8A8"/>
<stop offset="1"/>
</linearGradient>
<linearGradient id="paint3_linear_5234_676" x1="80.8724" y1="20.9059" x2="88.2253" y2="20.8453" gradientUnits="userSpaceOnUse">
<stop/>
<stop offset="0.52" stop-color="#A8A8A8"/>
<stop offset="1"/>
</linearGradient>
<linearGradient id="paint4_linear_5234_676" x1="64.4878" y1="24.495" x2="68.6262" y2="24.4609" gradientUnits="userSpaceOnUse">
<stop/>
<stop offset="0.52" stop-color="#A8A8A8"/>
<stop offset="1"/>
</linearGradient>
<linearGradient id="paint5_linear_5234_676" x1="79.4345" y1="28.7228" x2="98.3048" y2="28.5674" gradientUnits="userSpaceOnUse">
<stop/>
<stop offset="0.52" stop-color="#A8A8A8"/>
<stop offset="1"/>
</linearGradient>
<radialGradient id="paint6_angular_5234_676" cx="0" cy="0" r="1" gradientUnits="userSpaceOnUse" gradientTransform="translate(40.0323 27.7594) rotate(-59.335) scale(3.64759 6.47152)">
<stop offset="0.0729167" stop-color="#FBFBFD"/>
<stop offset="0.244792" stop-color="#C8D4DA"/>
<stop offset="0.434957" stop-color="white"/>
<stop offset="0.532623" stop-color="#AEC0CE"/>
<stop offset="0.658692" stop-color="#E3E9EE"/>
<stop offset="0.708863" stop-color="#FAFBFC"/>
<stop offset="0.861413" stop-color="#D6DFE6"/>
<stop offset="0.921875" stop-color="#B8C9D3"/>
</radialGradient>
<linearGradient id="paint7_linear_5234_676" x1="39.7144" y1="25.2642" x2="47.2993" y2="25.2017" gradientUnits="userSpaceOnUse">
<stop stop-color="#333399"/>
<stop offset="1" stop-color="#FF00CC"/>
</linearGradient>
<radialGradient id="paint8_angular_5234_676" cx="0" cy="0" r="1" gradientUnits="userSpaceOnUse" gradientTransform="translate(50.8776 27.7125) rotate(-73.1509) scale(1.88644 2.14708)">
<stop offset="0.0729167" stop-color="#FBFBFD"/>
<stop offset="0.244792" stop-color="#C8D4DA"/>
<stop offset="0.434957" stop-color="white"/>
<stop offset="0.532623" stop-color="#AEC0CE"/>
<stop offset="0.658692" stop-color="#E3E9EE"/>
<stop offset="0.708863" stop-color="#FAFBFC"/>
<stop offset="0.861413" stop-color="#D6DFE6"/>
<stop offset="0.921875" stop-color="#B8C9D3"/>
</radialGradient>
</defs>
</svg>
