<svg width="30" height="30" viewBox="0 0 30 30" fill="none" xmlns="http://www.w3.org/2000/svg">
<path d="M25.3125 5.625C25.5611 5.625 25.7996 5.72377 25.9754 5.89959C26.1512 6.0754 26.25 6.31386 26.25 6.5625V20.625H3.75V6.5625C3.75 6.31386 3.84877 6.0754 4.02459 5.89959C4.2004 5.72377 4.43886 5.625 4.6875 5.625H25.3125ZM4.6875 3.75C3.94158 3.75 3.22621 4.04632 2.69876 4.57376C2.17132 5.10121 1.875 5.81658 1.875 6.5625V22.5H28.125V6.5625C28.125 5.81658 27.8287 5.10121 27.3012 4.57376C26.7738 4.04632 26.0584 3.75 25.3125 3.75H4.6875ZM0 23.4375H30C30 24.1834 29.7037 24.8988 29.1762 25.4262C28.6488 25.9537 27.9334 26.25 27.1875 26.25H2.8125C2.06658 26.25 1.35121 25.9537 0.823762 25.4262C0.296316 24.8988 0 24.1834 0 23.4375H0Z" fill="#37AD24"/>
</svg>
