<svg width="36" height="34" viewBox="0 0 36 34" fill="none" xmlns="http://www.w3.org/2000/svg">
<rect x="0.688477" width="34.5968" height="34" rx="17" fill="white"/>
<path d="M23.7811 11.4004C21.7839 9.99151 19.3177 10.649 17.9862 12.2614C16.6548 10.649 14.1885 9.98369 12.1913 11.4004C11.1322 12.1518 10.4665 13.4198 10.4211 14.7582C10.3152 17.7952 12.9176 20.2294 16.8893 23.963L16.9649 24.0334C17.5399 24.5735 18.425 24.5735 19 24.0256L19.0832 23.9473C23.0549 20.2216 25.6497 17.7874 25.5514 14.7504C25.506 13.4198 24.8403 12.1518 23.7811 11.4004ZM18.0619 22.7967L17.9862 22.875L17.9106 22.7967C14.3096 19.4232 11.9341 17.1925 11.9341 14.9304C11.9341 13.365 13.0689 12.1909 14.5819 12.1909C15.7469 12.1909 16.8817 12.9658 17.2827 14.0381H18.6974C19.0907 12.9658 20.2255 12.1909 21.3906 12.1909C22.9036 12.1909 24.0384 13.365 24.0384 14.9304C24.0384 17.1925 21.6629 19.4232 18.0619 22.7967Z" fill="#E10000"/>
</svg>
