<svg width="12" height="15" viewBox="0 0 12 15" fill="none" xmlns="http://www.w3.org/2000/svg">
<path fill-rule="evenodd" clip-rule="evenodd" d="M4.66699 0.666992C3.93061 0.666992 3.33366 1.26395 3.33366 2.00033H2.00033C1.26395 2.00033 0.666992 2.59728 0.666992 3.33366V13.3337C0.666992 14.0701 1.26395 14.667 2.00033 14.667H10.0003C10.7367 14.667 11.3337 14.0701 11.3337 13.3337V3.33366C11.3337 2.59728 10.7367 2.00033 10.0003 2.00033H8.66699C8.66699 1.26395 8.07006 0.666992 7.33366 0.666992H4.66699ZM7.66699 2.00033C7.66699 1.81623 7.51772 1.66699 7.33366 1.66699H4.66699C4.4829 1.66699 4.33366 1.81623 4.33366 2.00033V3.00033C4.33366 3.18442 4.4829 3.33366 4.66699 3.33366H7.33366C7.51772 3.33366 7.66699 3.18442 7.66699 3.00033V2.00033ZM8.66699 3.00033C8.66699 3.73671 8.07006 4.33366 7.33366 4.33366H4.66699C3.93061 4.33366 3.33366 3.73671 3.33366 3.00033H2.00033C1.81623 3.00033 1.66699 3.14957 1.66699 3.33366V13.3337C1.66699 13.5177 1.81623 13.667 2.00033 13.667H10.0003C10.1844 13.667 10.3337 13.5177 10.3337 13.3337V3.33366C10.3337 3.14957 10.1844 3.00033 10.0003 3.00033H8.66699Z" fill="black"/>
</svg>
