<svg width="20" height="20" viewBox="0 0 20 20" fill="none" xmlns="http://www.w3.org/2000/svg">
<g clip-path="url(#clip0_4777_2575)">
<path d="M9.9987 6.66732C10.9154 6.66732 11.6654 5.91732 11.6654 5.00065C11.6654 4.08398 10.9154 3.33398 9.9987 3.33398C9.08203 3.33398 8.33203 4.08398 8.33203 5.00065C8.33203 5.91732 9.08203 6.66732 9.9987 6.66732ZM9.9987 8.33398C9.08203 8.33398 8.33203 9.08398 8.33203 10.0007C8.33203 10.9173 9.08203 11.6673 9.9987 11.6673C10.9154 11.6673 11.6654 10.9173 11.6654 10.0007C11.6654 9.08398 10.9154 8.33398 9.9987 8.33398ZM9.9987 13.334C9.08203 13.334 8.33203 14.084 8.33203 15.0007C8.33203 15.9173 9.08203 16.6673 9.9987 16.6673C10.9154 16.6673 11.6654 15.9173 11.6654 15.0007C11.6654 14.084 10.9154 13.334 9.9987 13.334Z" fill="#A0AEC0"/>
</g>
<defs>
<clipPath id="clip0_4777_2575">
<rect width="20" height="20" fill="white"/>
</clipPath>
</defs>
</svg>
