<svg width="16" height="20" viewBox="0 0 16 20" fill="none" xmlns="http://www.w3.org/2000/svg">
<path d="M9.83268 0.833008H2.49935C2.01312 0.833008 1.5468 1.02616 1.20299 1.36998C0.85917 1.7138 0.666016 2.18011 0.666016 2.66634V17.333C0.666016 17.8192 0.85917 18.2856 1.20299 18.6294C1.5468 18.9732 2.01312 19.1663 2.49935 19.1663H13.4993C13.9856 19.1663 14.4519 18.9732 14.7957 18.6294C15.1395 18.2856 15.3327 17.8192 15.3327 17.333V6.33301L9.83268 0.833008ZM5.70585 13.8405C5.4226 14.1063 5.0046 14.2255 4.51785 14.2255C4.42347 14.2265 4.32913 14.221 4.23552 14.209V15.5162H3.41602V11.9082C3.78585 11.853 4.15954 11.8279 4.53343 11.833C5.04402 11.833 5.40702 11.9302 5.65177 12.1254C5.8846 12.3106 6.04227 12.614 6.04227 12.9715C6.04135 13.3308 5.92218 13.6343 5.70585 13.8405V13.8405ZM9.1956 15.0826C8.8106 15.4025 8.22485 15.5547 7.50893 15.5547C7.07993 15.5547 6.77652 15.5272 6.57027 15.4997V11.9091C6.94023 11.8551 7.31381 11.8297 7.68768 11.833C8.3816 11.833 8.8326 11.9577 9.1846 12.2235C9.56502 12.5058 9.80335 12.9559 9.80335 13.6022C9.80335 14.3016 9.5476 14.7847 9.1956 15.0826V15.0826ZM12.5827 12.5388H11.1783V13.3739H12.491V14.0468H11.1783V15.5171H10.3478V11.8605H12.5827V12.5388ZM9.83268 7.24967H8.91602V2.66634L13.4993 7.24967H9.83268Z" fill="#E41200"/>
</svg>
