<svg width="40" height="40" viewBox="0 0 40 40" fill="none" xmlns="http://www.w3.org/2000/svg">
<circle cx="20" cy="20" r="20" fill="#FF7A00"/>
<path d="M17.249 9.6875C17.249 9.50516 17.3214 9.3303 17.4503 9.20136C17.5793 9.07243 17.7541 9 17.9365 9H22.0615C22.2438 9 22.4187 9.07243 22.5476 9.20136C22.6765 9.3303 22.749 9.50516 22.749 9.6875C22.749 9.86984 22.6765 10.0447 22.5476 10.1736C22.4187 10.3026 22.2438 10.375 22.0615 10.375H21.374V11.8462C23.2465 12.1165 24.9978 12.9326 26.4092 14.1925C27.8205 15.4523 28.8294 17.1001 29.3097 18.9301C29.79 20.76 29.7204 22.6908 29.1097 24.4814C28.4989 26.272 27.3741 27.843 25.8757 28.998L26.7021 29.8258C26.8312 29.9547 26.9038 30.1296 26.9039 30.312C26.904 30.4945 26.8317 30.6695 26.7028 30.7986C26.5739 30.9277 26.399 31.0003 26.2165 31.0004C26.0341 31.0005 25.8591 30.9282 25.73 30.7992L24.7042 29.7735C23.2673 30.58 21.6467 31.0025 19.999 31C18.3512 31.0025 16.7306 30.58 15.2937 29.7735L14.268 30.7992C14.204 30.8631 14.1282 30.9137 14.0447 30.9482C13.9612 30.9827 13.8718 31.0004 13.7814 31.0004C13.6911 31.0003 13.6017 30.9825 13.5182 30.9478C13.4348 30.9132 13.359 30.8625 13.2952 30.7986C13.2313 30.7346 13.1807 30.6588 13.1462 30.5753C13.1117 30.4918 13.094 30.4023 13.094 30.312C13.0942 30.1296 13.1668 29.9547 13.2958 29.8258L14.1236 28.998C12.6252 27.8431 11.5004 26.2722 10.8896 24.4817C10.2788 22.6912 10.2091 20.7605 10.6892 18.9306C11.1694 17.1007 12.178 15.4529 13.5892 14.1929C15.0004 12.933 16.7516 12.1168 18.624 11.8462V10.375H17.9365C17.7541 10.375 17.5793 10.3026 17.4503 10.1736C17.3214 10.0447 17.249 9.86984 17.249 9.6875ZM20.6865 16.5625C20.6865 16.3802 20.614 16.2053 20.4851 16.0764C20.3562 15.9474 20.1813 15.875 19.999 15.875C19.8166 15.875 19.6418 15.9474 19.5128 16.0764C19.3839 16.2053 19.3115 16.3802 19.3115 16.5625V21.1853L17.3466 24.4577C17.2527 24.6142 17.2248 24.8015 17.269 24.9786C17.3132 25.1556 17.426 25.3078 17.5824 25.4017C17.7389 25.4956 17.9262 25.5235 18.1032 25.4793C18.2802 25.4351 18.4324 25.3223 18.5263 25.1659L20.5888 21.7284C20.6528 21.6216 20.6865 21.4995 20.6865 21.375V16.5625ZM10.1815 16.4071C9.8257 16.0977 9.53741 15.7183 9.33451 15.2927C9.13161 14.867 9.01846 14.4042 9.00208 13.9329C8.98569 13.4617 9.06644 12.9921 9.23929 12.5534C9.41214 12.1147 9.6734 11.7163 10.0068 11.3829C10.3402 11.0494 10.7387 10.7882 11.1774 10.6153C11.6161 10.4425 12.0857 10.3617 12.5569 10.3781C13.0282 10.3945 13.491 10.5076 13.9166 10.7105C14.3423 10.9134 14.7216 11.2017 15.0311 11.5575C12.941 12.6187 11.2426 14.3171 10.1815 16.4071ZM24.9668 11.5575C25.2763 11.2017 25.6557 10.9134 26.0813 10.7105C26.5069 10.5076 26.9698 10.3945 27.441 10.3781C27.9123 10.3617 28.3818 10.4425 28.8205 10.6153C29.2592 10.7882 29.6577 11.0494 29.9911 11.3829C30.3245 11.7163 30.5858 12.1147 30.7587 12.5534C30.9315 12.9921 31.0122 13.4617 30.9959 13.9329C30.9795 14.4042 30.8663 14.867 30.6634 15.2927C30.4605 15.7183 30.1722 16.0977 29.8165 16.4071C28.7553 14.3171 27.0569 12.6187 24.9668 11.5575Z" fill="white"/>
</svg>
