<svg width="24" height="24" viewBox="0 0 24 24" fill="none" xmlns="http://www.w3.org/2000/svg">
<path d="M14.801 8.94023L9.03096 14.7102C8.7385 15.003 8.7385 15.4774 9.03096 15.7702C9.17084 15.9119 9.36189 15.9912 9.56096 15.9902C9.76025 15.9923 9.95173 15.9128 10.091 15.7702L15.861 10.0002C16.0616 9.81326 16.1442 9.53167 16.0763 9.26594C16.0085 9.00021 15.801 8.79271 15.5352 8.72484C15.2695 8.65698 14.9879 8.73958 14.801 8.94023Z" fill="#A4A8BE"/>
<path d="M10.601 10.1002C10.601 10.5144 10.2652 10.8502 9.85096 10.8502C9.43674 10.8502 9.10096 10.5144 9.10096 10.1002C9.10096 9.68602 9.43674 9.35023 9.85096 9.35023C10.2652 9.35023 10.601 9.68602 10.601 10.1002Z" fill="#A4A8BE"/>
<path d="M15.881 14.6102C15.881 15.0244 15.5452 15.3602 15.131 15.3602C14.7167 15.3602 14.381 15.0244 14.381 14.6102C14.381 14.196 14.7167 13.8602 15.131 13.8602C15.5452 13.8602 15.881 14.196 15.881 14.6102Z" fill="#A4A8BE"/>
<path fill-rule="evenodd" clip-rule="evenodd" d="M22.6397 8.22158C22.97 9.07675 22.7535 10.0466 22.0908 10.6801C21.6112 11.1089 21.337 11.7218 21.337 12.3651C21.337 13.0085 21.6112 13.6214 22.0908 14.0501C22.7828 14.6788 23.0185 15.6675 22.6847 16.5407C22.3508 17.414 21.5157 17.9933 20.5808 18.0001H20.3308C19.7101 18.0048 19.1181 18.2625 18.6916 18.7135C18.265 19.1646 18.0409 19.7701 18.0709 20.3901C18.104 21.0135 17.8779 21.6229 17.446 22.0737C17.0142 22.5244 16.4151 22.7765 15.7908 22.7701C15.1554 22.7704 14.5506 22.4971 14.1308 22.0201C13.7004 21.5433 13.0882 21.2712 12.4458 21.2712C11.8035 21.2712 11.1913 21.5433 10.7608 22.0201C10.3411 22.4971 9.73627 22.7704 9.10085 22.7701C8.47293 22.7769 7.87051 22.5221 7.438 22.0668C7.0055 21.6116 6.78191 20.9969 6.82085 20.3701C6.84802 19.7518 6.62261 19.1489 6.19639 18.7001C5.77018 18.2512 5.1798 17.995 4.56085 17.9901H4.31085C3.4165 17.9477 2.63065 17.3835 2.30446 16.5497C1.97828 15.7158 2.1727 14.7682 2.80085 14.1301C3.27717 13.7015 3.54916 13.0909 3.54916 12.4501C3.54916 11.8094 3.27717 11.1987 2.80085 10.7701C2.06957 10.1492 1.80758 9.13558 2.1464 8.23806C2.48521 7.34054 3.35166 6.75291 4.31085 6.77012H4.56085C5.18807 6.76873 5.78675 6.50789 6.21485 6.04948C6.64295 5.59108 6.8623 4.97597 6.82085 4.35013C6.79898 3.73351 7.03017 3.13476 7.46075 2.69285C7.89133 2.25093 8.48388 2.00428 9.10085 2.01012C9.73872 2.0084 10.3454 2.28613 10.7608 2.77012C11.1955 3.24284 11.8087 3.51133 12.4508 3.51013C13.0895 3.50853 13.6985 3.24028 14.1308 2.77012C14.5445 2.28241 15.1514 2.00089 15.7908 2.00012C16.4169 1.99355 17.0177 2.24699 17.4498 2.70001C17.882 3.15304 18.1069 3.76506 18.0709 4.39013C18.0408 5.00926 18.2653 5.61374 18.6921 6.06323C19.1189 6.51273 19.711 6.76812 20.3308 6.77012H20.5808C21.4973 6.79383 22.3095 7.36642 22.6397 8.22158ZM20.9909 15.8801C21.0733 15.706 21.0234 15.4979 20.8708 15.3801V15.3201C20.0328 14.5477 19.5561 13.4599 19.5561 12.3201C19.5561 11.1804 20.0328 10.0926 20.8708 9.32013C21.0234 9.20237 21.0733 8.99428 20.9909 8.82013C20.9334 8.6434 20.7666 8.52544 20.5809 8.53013H20.3309C19.2152 8.52791 18.1492 8.06897 17.3808 7.26013C16.6193 6.45144 16.2155 5.37005 16.2608 4.26013C16.2776 4.14077 16.2411 4.02008 16.1608 3.93012C16.064 3.82921 15.9307 3.77154 15.7908 3.77013C15.6483 3.75692 15.5089 3.81722 15.4208 3.93012C14.6528 4.7775 13.5645 5.26365 12.4208 5.27012C11.2775 5.26242 10.1896 4.77648 9.42085 3.93012C9.34337 3.83176 9.22603 3.77309 9.10085 3.77013C8.96102 3.77154 8.82765 3.82921 8.73085 3.93012C8.65063 4.02008 8.61406 4.14077 8.63085 4.26013C8.69692 5.38142 8.2978 6.48036 7.52756 7.29791C6.75731 8.11547 5.68409 8.57932 4.56085 8.58012H4.34085C4.14519 8.56507 3.96416 8.68438 3.90085 8.87012C3.81838 9.04428 3.86832 9.25237 4.02085 9.37012C4.8662 10.1396 5.35192 11.227 5.36085 12.3701C5.35437 13.5137 4.86823 14.6021 4.02085 15.3701C3.86832 15.4879 3.81838 15.696 3.90085 15.8701C3.95163 16.053 4.12123 16.177 4.31085 16.1701H4.56085C5.67585 16.1744 6.74078 16.6337 7.50913 17.4417C8.27749 18.2497 8.68265 19.3363 8.63085 20.4501C8.61278 20.5665 8.64972 20.6847 8.73085 20.7701C8.83889 20.8779 8.9888 20.9327 9.14085 20.9201C9.26379 20.917 9.37983 20.8626 9.46085 20.7701C10.231 19.9098 11.3311 19.4181 12.4858 19.4181C13.6406 19.4181 14.7407 19.9098 15.5108 20.7701C15.5806 20.857 15.6806 20.9142 15.7908 20.9301C15.9307 20.9287 16.064 20.871 16.1608 20.7701C16.242 20.6847 16.2789 20.5665 16.2608 20.4501C16.22 19.3409 16.6231 18.2612 17.3808 17.4501C18.1519 16.6452 19.2162 16.187 20.3309 16.1801H20.5508C20.7503 16.1978 20.9344 16.0722 20.9909 15.8801Z" fill="#A4A8BE"/>
</svg>
