<svg width="40" height="40" viewBox="0 0 40 40" fill="none" xmlns="http://www.w3.org/2000/svg">
<circle cx="20" cy="20" r="20" fill="#0096EB"/>
<path d="M13.125 28.25C13.125 28.25 11.75 28.25 11.75 26.875C11.75 25.5 13.125 21.375 20 21.375C26.875 21.375 28.25 25.5 28.25 26.875C28.25 28.25 26.875 28.25 26.875 28.25H13.125ZM20 20C21.094 20 22.1432 19.5654 22.9168 18.7918C23.6904 18.0182 24.125 16.969 24.125 15.875C24.125 14.781 23.6904 13.7318 22.9168 12.9582C22.1432 12.1846 21.094 11.75 20 11.75C18.906 11.75 17.8568 12.1846 17.0832 12.9582C16.3096 13.7318 15.875 14.781 15.875 15.875C15.875 16.969 16.3096 18.0182 17.0832 18.7918C17.8568 19.5654 18.906 20 20 20Z" fill="white"/>
</svg>
