<svg width="24" height="24" viewBox="0 0 24 24" fill="none" xmlns="http://www.w3.org/2000/svg">
<path fill-rule="evenodd" clip-rule="evenodd" d="M17.3358 2.66391L7.58579 12.414C7.21071 12.789 7 13.2978 7 13.8282V15.9998C7 16.552 7.44772 16.9998 8 16.9998H10.1716C10.702 16.9998 11.2107 16.7891 11.5858 16.414L21.3358 6.66391C22.1168 5.88286 22.1168 4.61653 21.3358 3.83548L20.1642 2.66391C19.3832 1.88286 18.1168 1.88286 17.3358 2.66391ZM10.5251 15.3533C10.4314 15.4471 10.3042 15.4998 10.1716 15.4998H8.5V13.8282C8.5 13.6956 8.55268 13.5684 8.64645 13.4746L18.3964 3.72457C18.5917 3.5293 18.9083 3.52931 19.1036 3.72457L20.2751 4.89614C20.4704 5.0914 20.4704 5.40799 20.2751 5.60325L10.5251 15.3533Z" fill="#989898"/>
<path d="M10 3.75C10 4.16422 9.66421 4.50001 9.25 4.50001H4C3.72386 4.50001 3.5 4.72386 3.5 5.00001V20.0001C3.5 20.2762 3.72386 20.5001 4 20.5001H19C19.2761 20.5001 19.5 20.2762 19.5 20.0001V14.7501C19.5 14.3358 19.8358 14.0001 20.25 14.0001C20.6642 14.0001 21 14.3358 21 14.7501V20.0001C21 21.1046 20.1046 22.0001 19 22.0001H4C2.89543 22.0001 2 21.1046 2 20.0001V5.00001C2 3.89544 2.89543 3 4 3H9.25C9.66421 3 10 3.33579 10 3.75Z" fill="#989898"/>
</svg>
