<svg width="20" height="20" viewBox="0 0 20 20" fill="none" xmlns="http://www.w3.org/2000/svg">
<path d="M5.92676 9.23928C5.83498 9.11947 5.69949 9.04089 5.54991 9.02074C5.40034 9.00059 5.24888 9.04051 5.12867 9.13177C5.05795 9.18754 5.00091 9.25873 4.96189 9.3399L0.0617556 19.1429C-0.00764703 19.2819 -0.0190467 19.4427 0.0300624 19.59C0.0791714 19.7373 0.18477 19.8591 0.323647 19.9286C0.404824 19.9697 0.494569 19.9909 0.585539 19.9906H7.41265C7.522 19.9934 7.62979 19.9643 7.72282 19.9067C7.81585 19.8492 7.89009 19.7658 7.93643 19.6667C9.40992 16.6233 8.51673 11.996 5.92676 9.23928Z" fill="url(#paint0_linear_4777_2568)"/>
<path d="M9.52792 0.318096C8.30637 2.19786 7.59446 4.36289 7.46204 6.60078C7.32961 8.83867 7.78123 11.0726 8.77257 13.0833L12.0641 19.6664C12.1128 19.7637 12.1875 19.8455 12.28 19.9027C12.3725 19.9599 12.4792 19.9903 12.5879 19.9903H19.4137C19.4906 19.9905 19.5669 19.9755 19.638 19.9461C19.7092 19.9167 19.7739 19.8736 19.8283 19.8191C19.8827 19.7647 19.9259 19.7001 19.9552 19.6289C19.9846 19.5577 19.9996 19.4815 19.9995 19.4045C19.9995 19.3137 19.9788 19.2241 19.9388 19.1426L10.5245 0.31534C10.4798 0.220998 10.4093 0.141281 10.321 0.0854577C10.2328 0.0296347 10.1306 0 10.0262 0C9.92182 0 9.81957 0.0296347 9.73136 0.0854577C9.64315 0.141281 9.57261 0.220998 9.52792 0.31534V0.318096Z" fill="#2684FF"/>
<defs>
<linearGradient id="paint0_linear_4777_2568" x1="8.62424" y1="10.7376" x2="3.44981" y2="19.6998" gradientUnits="userSpaceOnUse">
<stop stop-color="#0052CC"/>
<stop offset="0.92" stop-color="#2684FF"/>
</linearGradient>
</defs>
</svg>
