<svg width="20" height="21" viewBox="0 0 20 21" fill="none" xmlns="http://www.w3.org/2000/svg">
<g clip-path="url(#clip0_4777_2504)">
<path d="M19.7601 9.91934L10.8973 0.990214L10.0385 0.125L3.36686 6.84662L0.316055 9.91934C0.163669 10.0737 0.078125 10.2825 0.078125 10.5002C0.078125 10.7178 0.163669 10.9267 0.316055 11.081L6.41123 17.2218L10.0385 20.8753L16.7093 14.1537L16.8132 14.0499L19.7601 11.0856C19.8365 11.0092 19.8971 10.9184 19.9384 10.8183C19.9798 10.7182 20.0011 10.6109 20.0011 10.5025C20.0011 10.3941 19.9798 10.2867 19.9384 10.1866C19.8971 10.0866 19.8365 9.99572 19.7601 9.91934ZM10.0385 13.5682L6.99325 10.5002L10.0385 7.43208L13.0829 10.5002L10.0385 13.5682Z" fill="#2684FF"/>
<path d="M10.037 7.43148C9.0793 6.46679 8.53939 5.15946 8.53526 3.79503C8.53112 2.43061 9.06309 1.11998 10.015 0.149414L3.35156 6.85992L6.97796 10.5135L10.037 7.43148Z" fill="url(#paint0_linear_4777_2504)"/>
<path d="M13.0897 10.4912L10.0371 13.5676C10.9985 14.5365 11.5385 15.8503 11.5385 17.2202C11.5385 18.5902 10.9985 19.904 10.0371 20.8729L16.7189 14.1448L13.0897 10.4912Z" fill="url(#paint1_linear_4777_2504)"/>
</g>
<defs>
<linearGradient id="paint0_linear_4777_2504" x1="9.49179" y1="4.32727" x2="5.20753" y2="8.57878" gradientUnits="userSpaceOnUse">
<stop offset="0.18" stop-color="#0052CC"/>
<stop offset="1" stop-color="#2684FF"/>
</linearGradient>
<linearGradient id="paint1_linear_4777_2504" x1="776.103" y1="900.925" x2="1212.24" y2="1181.57" gradientUnits="userSpaceOnUse">
<stop offset="0.18" stop-color="#0052CC"/>
<stop offset="1" stop-color="#2684FF"/>
</linearGradient>
<clipPath id="clip0_4777_2504">
<rect width="20" height="21" fill="white"/>
</clipPath>
</defs>
</svg>
