<svg width="18" height="18" viewBox="0 0 18 18" fill="none" xmlns="http://www.w3.org/2000/svg">
<path fill-rule="evenodd" clip-rule="evenodd" d="M2.25 5.34375C2.25 3.63512 3.63512 2.25 5.34375 2.25C7.05238 2.25 8.4375 3.63512 8.4375 5.34375V7.2C8.4375 7.88345 7.88345 8.4375 7.2 8.4375H5.34375C3.63512 8.4375 2.25 7.05238 2.25 5.34375ZM7.3125 5.34375V7.2C7.3125 7.26213 7.26213 7.3125 7.2 7.3125H5.34375C4.25644 7.3125 3.375 6.43106 3.375 5.34375C3.375 4.25644 4.25644 3.375 5.34375 3.375C6.43106 3.375 7.3125 4.25644 7.3125 5.34375Z" fill="#A4A8BE"/>
<path fill-rule="evenodd" clip-rule="evenodd" d="M2.25 12.6562C2.25 10.9476 3.63512 9.5625 5.34375 9.5625H7.2C7.88345 9.5625 8.4375 10.1165 8.4375 10.8V12.6562C8.4375 14.3649 7.05238 15.75 5.34375 15.75C3.63512 15.75 2.25 14.3649 2.25 12.6562ZM5.34375 10.6875H7.2C7.26213 10.6875 7.3125 10.7379 7.3125 10.8V12.6562C7.3125 13.7436 6.43106 14.625 5.34375 14.625C4.25644 14.625 3.375 13.7436 3.375 12.6562C3.375 11.5689 4.25644 10.6875 5.34375 10.6875Z" fill="#A4A8BE"/>
<path fill-rule="evenodd" clip-rule="evenodd" d="M12.6562 2.25C10.9476 2.25 9.5625 3.63512 9.5625 5.34375V7.2C9.5625 7.88345 10.1165 8.4375 10.8 8.4375H12.6562C14.3649 8.4375 15.75 7.05238 15.75 5.34375C15.75 3.63512 14.3649 2.25 12.6562 2.25ZM10.8 7.3125H12.6562C13.7436 7.3125 14.625 6.43106 14.625 5.34375C14.625 4.25644 13.7436 3.375 12.6562 3.375C11.5689 3.375 10.6875 4.25644 10.6875 5.34375V7.2C10.6875 7.26213 10.7379 7.3125 10.8 7.3125Z" fill="#A4A8BE"/>
<path fill-rule="evenodd" clip-rule="evenodd" d="M9.5625 10.8C9.5625 10.1165 10.1165 9.5625 10.8 9.5625H12.6562C14.3649 9.5625 15.75 10.9476 15.75 12.6562C15.75 14.3649 14.3649 15.75 12.6562 15.75C10.9476 15.75 9.5625 14.3649 9.5625 12.6562V10.8ZM10.8 10.6875H12.6562C13.7436 10.6875 14.625 11.5689 14.625 12.6562C14.625 13.7436 13.7436 14.625 12.6562 14.625C11.5689 14.625 10.6875 13.7436 10.6875 12.6562V10.8C10.6875 10.7379 10.7379 10.6875 10.8 10.6875Z" fill="#A4A8BE"/>
</svg>
