<svg width="20" height="21" viewBox="0 0 20 21" fill="none" xmlns="http://www.w3.org/2000/svg">
<g clip-path="url(#clip0_4777_2544)">
<path fill-rule="evenodd" clip-rule="evenodd" d="M7.3329 0C6.22733 0.000835882 5.33257 0.918634 5.33339 2.04958C5.33257 3.18053 6.22814 4.09833 7.33372 4.09916H9.33404V2.05042C9.33486 0.91947 8.43929 0.00167176 7.3329 0C7.33372 0 7.33372 0 7.3329 0V0ZM7.3329 5.46667H2.00033C0.894756 5.4675 -0.000814894 6.3853 2.23311e-06 7.51625C-0.00163202 8.6472 0.893939 9.56499 1.99951 9.56667H7.3329C8.43847 9.56583 9.33404 8.64803 9.33323 7.51708C9.33404 6.3853 8.43847 5.4675 7.3329 5.46667Z" fill="#36C5F0"/>
<path fill-rule="evenodd" clip-rule="evenodd" d="M20.0012 7.51625C20.002 6.3853 19.1065 5.4675 18.0009 5.46667C16.8953 5.4675 15.9997 6.3853 16.0006 7.51625V9.56667H18.0009C19.1065 9.56583 20.002 8.64803 20.0012 7.51625ZM14.6678 7.51625V2.04958C14.6686 0.91947 13.7739 0.00167176 12.6683 0C11.5627 0.000835882 10.6672 0.918634 10.668 2.04958V7.51625C10.6663 8.6472 11.5619 9.56499 12.6675 9.56667C13.7731 9.56583 14.6686 8.64803 14.6678 7.51625Z" fill="#2EB67D"/>
<path fill-rule="evenodd" clip-rule="evenodd" d="M12.6663 20.5001C13.7719 20.4993 14.6675 19.5815 14.6667 18.4505C14.6675 17.3196 13.7719 16.4018 12.6663 16.401H10.666V18.4505C10.6652 19.5807 11.5608 20.4984 12.6663 20.5001ZM12.6663 15.0326H17.9997C19.1053 15.0318 20.0009 14.114 20.0001 12.983C20.0017 11.8521 19.1061 10.9343 18.0005 10.9326H12.6672C11.5616 10.9335 10.666 11.8513 10.6668 12.9822C10.666 14.114 11.5608 15.0318 12.6663 15.0326Z" fill="#ECB22E"/>
<path fill-rule="evenodd" clip-rule="evenodd" d="M5.58721e-07 12.9832C-0.000816568 14.1141 0.894755 15.0319 2.00033 15.0328C3.1059 15.0319 4.00147 14.1141 4.00065 12.9832V10.9336H2.00033C0.894755 10.9344 -0.000816568 11.8522 5.58721e-07 12.9832ZM5.33339 12.9832V18.4499C5.33175 19.5808 6.22733 20.4986 7.3329 20.5003C8.43847 20.4994 9.33404 19.5816 9.33323 18.4507V12.9849C9.33486 11.8539 8.43929 10.9361 7.33371 10.9344C6.22732 10.9344 5.33257 11.8522 5.33339 12.9832C5.33339 12.984 5.33339 12.9832 5.33339 12.9832Z" fill="#E01E5A"/>
</g>
<defs>
<clipPath id="clip0_4777_2544">
<rect width="20" height="20.5" fill="white"/>
</clipPath>
</defs>
</svg>
