<svg width="20" height="20" viewBox="0 0 20 20" fill="none" xmlns="http://www.w3.org/2000/svg">
<g clip-path="url(#clip0_4777_2587)">
<path d="M3.54167 0H16.4583C18.4167 0 20 1.58333 20 3.54167V15.9583C20 17.9167 18.4167 19.5 16.4583 19.5H3.54167C1.58333 19.5 0 17.9167 0 15.9583V3.54167C0 1.58333 1.58333 0 3.54167 0Z" fill="#470137"/>
<path d="M10.5173 5.12402L8.01733 9.24902L10.684 13.624C10.7007 13.6574 10.709 13.6907 10.7007 13.724C10.6923 13.7574 10.659 13.7324 10.609 13.7407H8.70067C8.56733 13.7407 8.47567 13.7324 8.41733 13.649C8.24233 13.299 8.059 12.9574 7.884 12.6074C7.709 12.2657 7.51733 11.9157 7.31733 11.5574C7.11733 11.199 6.91733 10.8407 6.71733 10.474H6.70067C6.52567 10.8324 6.334 11.1907 6.14233 11.549C5.95066 11.9074 5.759 12.2657 5.57567 12.6157C5.384 12.9657 5.19233 13.324 5.00067 13.6657C4.96733 13.749 4.90067 13.7574 4.809 13.7574H2.97567C2.94233 13.7574 2.91733 13.774 2.91733 13.7324C2.909 13.699 2.91733 13.6657 2.934 13.6407L5.52567 9.39069L3.00067 5.11569C2.97567 5.08236 2.96733 5.04902 2.984 5.03236C3.00066 5.00736 3.034 4.99902 3.06733 4.99902H4.959C5.00067 4.99902 5.04233 5.00736 5.07567 5.01569C5.109 5.03236 5.134 5.05736 5.159 5.09069C5.31733 5.44902 5.50067 5.80736 5.69233 6.16569C5.89233 6.52402 6.084 6.87402 6.29233 7.22402C6.49233 7.57402 6.67566 7.92402 6.85066 8.28236H6.86733C7.04233 7.91569 7.22567 7.55736 7.409 7.20736C7.59233 6.85736 7.784 6.50736 7.97567 6.15736C8.16733 5.80736 8.35067 5.44902 8.534 5.10736C8.54233 5.07402 8.559 5.04069 8.584 5.02402C8.61733 5.00736 8.65067 4.99902 8.69233 5.00736H10.4507C10.4923 4.99902 10.534 5.02402 10.5423 5.06569C10.5507 5.07402 10.534 5.10736 10.5173 5.12402Z" fill="#FF61F6"/>
<path d="M14.368 13.9164C13.7514 13.9247 13.1347 13.7997 12.5764 13.5414C12.0514 13.2997 11.618 12.8997 11.318 12.4081C11.0097 11.8997 10.8597 11.2664 10.8597 10.5081C10.8514 9.8914 11.0097 9.28307 11.318 8.74973C11.6347 8.20807 12.093 7.75807 12.643 7.45807C13.2264 7.13307 13.9264 6.97473 14.7514 6.97473C14.793 6.97473 14.8514 6.97473 14.9264 6.98307C15.0014 6.9914 15.0847 6.9914 15.1847 6.99973V4.3664C15.1847 4.30807 15.2097 4.27473 15.268 4.27473H16.9597C17.0014 4.2664 17.0347 4.29973 17.043 4.33307C17.043 4.3414 17.043 4.34973 17.043 4.34973V12.2831C17.043 12.4331 17.0514 12.5997 17.0597 12.7831C17.0764 12.9581 17.0847 13.1247 17.093 13.2664C17.093 13.3247 17.068 13.3747 17.0097 13.3997C16.5764 13.5831 16.118 13.7164 15.6514 13.7997C15.2264 13.8747 14.8014 13.9164 14.368 13.9164ZM15.1847 12.2497V8.58307C15.1097 8.5664 15.0347 8.54973 14.9597 8.5414C14.868 8.53307 14.7764 8.52473 14.6847 8.52473C14.3597 8.52473 14.0347 8.5914 13.743 8.7414C13.4597 8.88307 13.218 9.0914 13.0347 9.35807C12.8514 9.62473 12.7597 9.98307 12.7597 10.4164C12.7514 10.7081 12.8014 10.9997 12.9014 11.2747C12.9847 11.4997 13.1097 11.6997 13.2764 11.8664C13.4347 12.0164 13.6264 12.1331 13.843 12.1997C14.068 12.2747 14.3014 12.3081 14.5347 12.3081C14.6597 12.3081 14.7764 12.2997 14.8847 12.2914C14.993 12.2997 15.0847 12.2831 15.1847 12.2497Z" fill="#FF61F6"/>
</g>
<defs>
<clipPath id="clip0_4777_2587">
<rect width="20" height="19.5" fill="white"/>
</clipPath>
</defs>
</svg>
