<svg width="20" height="21" viewBox="0 0 20 21" fill="none" xmlns="http://www.w3.org/2000/svg">
<g clip-path="url(#clip0_4777_2525)">
<path d="M10 0.5C4.47697 0.5 0 4.97697 0 10.5C0 16.023 4.47697 20.5 10 20.5C15.523 20.5 20 16.023 20 10.5C20 4.97765 15.523 0.500682 10 0.5ZM14.5861 14.9224C14.4067 15.2172 14.0225 15.3093 13.7291 15.1298C11.3811 13.6948 8.42511 13.3707 4.94439 14.1656C4.60867 14.2427 4.27431 14.0326 4.19788 13.6969C4.12078 13.3611 4.33026 13.0268 4.66667 12.9504C8.47561 12.0803 11.7434 12.455 14.3794 14.0653C14.6728 14.2462 14.7663 14.629 14.5861 14.9224ZM15.8096 12.2004C15.5838 12.5676 15.1034 12.6822 14.7369 12.457C12.0498 10.805 7.95155 10.3267 4.77243 11.2915C4.36029 11.4164 3.92494 11.1837 3.79939 10.7723C3.6752 10.3601 3.90788 9.92545 4.31934 9.7999C7.95087 8.69788 12.4661 9.23149 15.5524 11.1285C15.9195 11.3543 16.0355 11.834 15.8096 12.2004ZM15.9147 9.36455C12.6912 7.45053 7.37427 7.27448 4.29683 8.20795C3.8028 8.35807 3.28011 8.07898 3.13067 7.58495C2.98124 7.09092 3.25964 6.56824 3.75435 6.41812C7.28693 5.34613 13.1586 5.55288 16.8693 7.75554C17.3135 8.01962 17.4596 8.59348 17.1962 9.03702C16.9335 9.48192 16.3582 9.62862 15.9147 9.36455Z" fill="#2EBD59"/>
</g>
<defs>
<clipPath id="clip0_4777_2525">
<rect width="20" height="20" fill="white" transform="translate(0 0.5)"/>
</clipPath>
</defs>
</svg>
