<svg width="13" height="14" viewBox="0 0 13 14" fill="none" xmlns="http://www.w3.org/2000/svg">
<path d="M6.5 0.90625C3.13994 0.90625 0.40625 3.63994 0.40625 7C0.40625 10.3601 3.13994 13.0937 6.5 13.0937C9.86006 13.0937 12.5937 10.3601 12.5937 7C12.5937 3.63994 9.86006 0.90625 6.5 0.90625ZM9.67139 4.95771L5.73389 9.64521C5.69069 9.69666 5.63695 9.73822 5.57629 9.76708C5.51564 9.79594 5.44949 9.81143 5.38232 9.8125H5.37441C5.30871 9.81248 5.24375 9.79864 5.18374 9.77189C5.12373 9.74514 5.07001 9.70607 5.02607 9.65723L3.33857 7.78223C3.29572 7.73677 3.26238 7.68321 3.24052 7.62468C3.21866 7.56616 3.20872 7.50386 3.21128 7.44144C3.21384 7.37902 3.22886 7.31774 3.25544 7.2612C3.28202 7.20467 3.31964 7.15402 3.36608 7.11223C3.41251 7.07044 3.46684 7.03835 3.52585 7.01786C3.58487 6.99736 3.64738 6.98887 3.70973 6.99288C3.77207 6.99689 3.83298 7.01332 3.88889 7.04121C3.94479 7.0691 3.99455 7.10788 4.03525 7.15527L5.36211 8.62949L8.95361 4.35478C9.03417 4.26164 9.14815 4.20395 9.27091 4.19416C9.39367 4.18438 9.51535 4.2233 9.60964 4.30251C9.70394 4.38172 9.76327 4.49485 9.77483 4.61745C9.78638 4.74006 9.74922 4.86229 9.67139 4.95771V4.95771Z" fill="#68D391"/>
</svg>
