<svg width="19" height="19" viewBox="0 0 19 19" fill="none" xmlns="http://www.w3.org/2000/svg">
<path d="M9.5 0.5C4.53125 0.5 0.5 4.53125 0.5 9.5C0.5 14.4687 4.53125 18.5 9.5 18.5C14.4687 18.5 18.5 14.4687 18.5 9.5C18.5 4.53125 14.4687 0.5 9.5 0.5ZM9.21875 14.75C9.03333 14.75 8.85207 14.695 8.6979 14.592C8.54373 14.489 8.42357 14.3426 8.35261 14.1713C8.28165 14 8.26309 13.8115 8.29926 13.6296C8.33544 13.4477 8.42472 13.2807 8.55584 13.1496C8.68695 13.0185 8.85399 12.9292 9.03585 12.893C9.21771 12.8568 9.40621 12.8754 9.57751 12.9464C9.74882 13.0173 9.89524 13.1375 9.99825 13.2916C10.1013 13.4458 10.1562 13.6271 10.1562 13.8125C10.1562 14.0611 10.0575 14.2996 9.88166 14.4754C9.70585 14.6512 9.46739 14.75 9.21875 14.75V14.75ZM10.7862 9.96875C10.0264 10.4787 9.92187 10.9461 9.92187 11.375C9.92187 11.549 9.85273 11.716 9.72966 11.839C9.60659 11.9621 9.43967 12.0312 9.26562 12.0312C9.09157 12.0312 8.92466 11.9621 8.80158 11.839C8.67851 11.716 8.60937 11.549 8.60937 11.375C8.60937 10.348 9.08187 9.5314 10.0541 8.87844C10.9578 8.27187 11.4687 7.8875 11.4687 7.04234C11.4687 6.46766 11.1406 6.03125 10.4614 5.70828C10.3016 5.63234 9.94578 5.55828 9.50797 5.56344C8.95859 5.57047 8.53203 5.70172 8.20344 5.96609C7.58375 6.46484 7.53125 7.00765 7.53125 7.01562C7.52709 7.1018 7.506 7.18632 7.46919 7.26435C7.43237 7.34238 7.38054 7.41239 7.31666 7.4704C7.25279 7.5284 7.17811 7.57325 7.0969 7.60239C7.01569 7.63153 6.92954 7.64439 6.84336 7.64023C6.75718 7.63608 6.67266 7.61499 6.59463 7.57817C6.5166 7.54135 6.44659 7.48952 6.38859 7.42565C6.33059 7.36177 6.28574 7.2871 6.25659 7.20589C6.22745 7.12468 6.21459 7.03852 6.21875 6.95234C6.2239 6.83844 6.30312 5.81234 7.37984 4.94609C7.93812 4.49703 8.64828 4.26359 9.48922 4.25328C10.0845 4.24625 10.6437 4.34703 11.023 4.52609C12.1578 5.06281 12.7812 5.95766 12.7812 7.04234C12.7812 8.62812 11.7214 9.34015 10.7862 9.96875Z" fill="#21094E"/>
</svg>
