<svg width="30" height="30" viewBox="0 0 30 30" fill="none" xmlns="http://www.w3.org/2000/svg">
<g clip-path="url(#clip0_4727_890)">
<path d="M3.75001 11.2504C3.74995 9.39263 4.20994 7.5638 5.08891 5.92717C5.96787 4.29053 7.23846 2.89704 8.78721 1.87111C10.336 0.845184 12.1147 0.218755 13.9645 0.0477607C15.8143 -0.123234 17.6777 0.166529 19.3883 0.891174C21.0989 1.61582 22.6034 2.75279 23.7674 4.20057C24.9315 5.64835 25.719 7.36187 26.0594 9.18813C26.3999 11.0144 26.2829 12.8965 25.7187 14.6665C25.1545 16.4365 24.1608 18.0392 22.8263 19.3316C22.4456 19.6991 22.1531 20.0816 21.9769 20.4922L20.5481 23.8091C20.4756 23.9772 20.3555 24.1204 20.2026 24.221C20.0496 24.3217 19.8706 24.3753 19.6875 24.3754C19.9361 24.3754 20.1746 24.4741 20.3504 24.6499C20.5262 24.8258 20.625 25.0642 20.625 25.3129C20.625 25.5615 20.5262 25.8 20.3504 25.9758C20.1746 26.1516 19.9361 26.2504 19.6875 26.2504C19.9361 26.2504 20.1746 26.3491 20.3504 26.5249C20.5262 26.7008 20.625 26.9392 20.625 27.1879C20.625 27.4365 20.5262 27.675 20.3504 27.8508C20.1746 28.0266 19.9361 28.1254 19.6875 28.1254L19.2675 28.9635C19.1119 29.2749 18.8727 29.5368 18.5766 29.7199C18.2806 29.9031 17.9394 30.0002 17.5913 30.0004H12.4088C12.0606 30.0002 11.7194 29.9031 11.4234 29.7199C11.1273 29.5368 10.8881 29.2749 10.7325 28.9635L10.3125 28.1254C10.0639 28.1254 9.82541 28.0266 9.64959 27.8508C9.47378 27.675 9.37501 27.4365 9.37501 27.1879C9.37501 26.9392 9.47378 26.7008 9.64959 26.5249C9.82541 26.3491 10.0639 26.2504 10.3125 26.2504C10.0639 26.2504 9.82541 26.1516 9.64959 25.9758C9.47378 25.8 9.37501 25.5615 9.37501 25.3129C9.37501 25.0642 9.47378 24.8258 9.64959 24.6499C9.82541 24.4741 10.0639 24.3754 10.3125 24.3754C10.1291 24.3757 9.94966 24.3222 9.79635 24.2216C9.64305 24.1209 9.52263 23.9775 9.45001 23.8091L8.02313 20.4904C7.81883 20.0521 7.53021 19.6583 7.17376 19.3316C6.0893 18.2838 5.22719 17.0281 4.63893 15.6396C4.05068 14.2511 3.74835 12.7583 3.75001 11.2504ZM15 1.87536C13.1328 1.87504 11.3081 2.43229 9.7596 3.47569C8.21114 4.51909 7.00952 6.00111 6.30874 7.73181C5.60796 9.46251 5.43995 11.363 5.82623 13.1898C6.21251 15.0166 7.13549 16.6865 8.47688 17.9854C8.97001 18.4616 9.44063 19.0429 9.74438 19.7497L10.9313 22.5004H19.0725L20.2575 19.7497C20.5613 19.0429 21.0319 18.4616 21.525 17.9854C22.8665 16.6864 23.7895 15.0164 24.1758 13.1894C24.562 11.3624 24.3938 9.46171 23.6928 7.73094C22.9918 6.00016 21.7899 4.51816 20.2411 3.4749C18.6924 2.43165 16.8674 1.87467 15 1.87536Z" fill="#FF7A00"/>
</g>
<defs>
<clipPath id="clip0_4727_890">
<rect width="30" height="30" fill="white"/>
</clipPath>
</defs>
</svg>
