<svg width="24" height="24" viewBox="0 0 24 24" fill="none" xmlns="http://www.w3.org/2000/svg">
<path d="M12.51 11.47C12.4406 11.4022 12.3593 11.3479 12.27 11.31C12.0883 11.2304 11.8817 11.2304 11.7 11.31C11.6076 11.3477 11.5229 11.4019 11.45 11.47L9.45 13.47C9.15755 13.7628 9.15755 14.2372 9.45 14.53C9.58929 14.6729 9.78041 14.7536 9.98 14.7536C10.1796 14.7536 10.3707 14.6729 10.51 14.53L11.21 13.83V16.58C11.21 16.9942 11.5458 17.33 11.96 17.33C12.3742 17.33 12.71 16.9942 12.71 16.58V13.81L13.42 14.51C13.5592 14.6526 13.7507 14.7321 13.95 14.73C14.1491 14.7309 14.3401 14.6516 14.48 14.51C14.7725 14.2172 14.7725 13.7428 14.48 13.45L12.51 11.47Z" fill="#A4A8BE"/>
<path fill-rule="evenodd" clip-rule="evenodd" d="M15.75 2.25H8.25C4.93629 2.25 2.25 4.93629 2.25 8.25V15.75C2.25 19.0637 4.93629 21.75 8.25 21.75H15.75C17.3413 21.75 18.8674 21.1179 19.9926 19.9926C21.1179 18.8674 21.75 17.3413 21.75 15.75V8.25C21.75 4.93629 19.0637 2.25 15.75 2.25ZM10 3.75H14C13.9682 3.82957 13.9512 3.91431 13.95 4V6C13.95 6.69036 13.3904 7.25 12.7 7.25H11.33C10.6396 7.25 10.08 6.69036 10.08 6V4C10.0693 3.91237 10.0422 3.82754 10 3.75ZM15.72 20.25C18.203 20.2445 20.2145 18.233 20.22 15.75L20.25 8.25C20.2445 5.767 18.233 3.7555 15.75 3.75H15.37C15.3973 3.83086 15.4141 3.91487 15.42 4V6C15.42 7.51878 14.1888 8.75 12.67 8.75H11.33C9.81122 8.75 8.58 7.51878 8.58 6V4C8.58593 3.91487 8.60274 3.83086 8.63 3.75H8.25C5.767 3.7555 3.7555 5.767 3.75 8.25V15.75C3.7555 18.233 5.767 20.2445 8.25 20.25H15.72Z" fill="#A4A8BE"/>
</svg>
