<svg width="15" height="16" viewBox="0 0 15 16" fill="none" xmlns="http://www.w3.org/2000/svg">
<path d="M9.02495 3.33547L9.43746 4.58547C9.62385 5.16403 10.1609 5.55734 10.7687 5.56047H12.0687C12.6784 5.5566 13.2205 5.94775 13.409 6.52757C13.5975 7.1074 13.3891 7.74256 12.8937 8.09797L11.825 8.87297C11.333 9.23013 11.1262 9.863 11.3125 10.4417L11.725 11.6917C11.929 12.2724 11.7298 12.9183 11.2341 13.2832C10.7385 13.6481 10.0626 13.6465 9.56871 13.2792L8.51871 12.498C8.0265 12.1414 7.36091 12.1414 6.86871 12.498L5.81871 13.2792C5.32754 13.6387 4.66039 13.6397 4.1682 13.2816C3.67602 12.9235 3.47159 12.2884 3.66246 11.7105L4.07496 10.4605C4.26118 9.88175 4.05443 9.24888 3.56246 8.89172L2.46871 8.10422C1.96327 7.74807 1.75132 7.10253 1.94728 6.5161C2.14324 5.92966 2.70069 5.54122 3.31871 5.56047H4.61871C5.2232 5.55912 5.7592 5.17159 5.94996 4.59797L6.36246 3.34797C6.54738 2.7706 7.08291 2.37786 7.68917 2.37502C8.29542 2.37217 8.83462 2.75986 9.02495 3.33547Z" fill="#FFA33C"/>
</svg>
