<svg width="40" height="40" viewBox="0 0 40 40" fill="none" xmlns="http://www.w3.org/2000/svg">
<circle cx="20" cy="20" r="20" fill="#37AD24"/>
<path d="M21.7779 9H14.5C13.7707 9 13.0712 9.28973 12.5555 9.80546C12.0397 10.3212 11.75 11.0207 11.75 11.75V28.25C11.75 28.9793 12.0397 29.6788 12.5555 30.1945C13.0712 30.7103 13.7707 31 14.5 31H25.5C26.2293 31 26.9288 30.7103 27.4445 30.1945C27.9603 29.6788 28.25 28.9793 28.25 28.25V15.4721C28.2499 15.1075 28.105 14.7578 27.8471 14.5L22.75 9.40288C22.4922 9.14499 22.1425 9.00008 21.7779 9V9ZM22.0625 13.8125V11.0625L26.1875 15.1875H23.4375C23.0728 15.1875 22.7231 15.0426 22.4652 14.7848C22.2074 14.5269 22.0625 14.1772 22.0625 13.8125ZM23.9242 19.7992L19.7992 23.9242C19.7354 23.9883 19.6595 24.0391 19.576 24.0737C19.4925 24.1084 19.4029 24.1262 19.3125 24.1262C19.2221 24.1262 19.1325 24.1084 19.049 24.0737C18.9655 24.0391 18.8896 23.9883 18.8257 23.9242L16.7632 21.8617C16.6993 21.7978 16.6486 21.7219 16.614 21.6384C16.5794 21.5549 16.5616 21.4654 16.5616 21.375C16.5616 21.2846 16.5794 21.1951 16.614 21.1116C16.6486 21.0281 16.6993 20.9522 16.7632 20.8883C16.8923 20.7592 17.0674 20.6866 17.25 20.6866C17.3404 20.6866 17.4299 20.7044 17.5134 20.739C17.5969 20.7736 17.6728 20.8243 17.7368 20.8883L19.3125 22.4654L22.9508 18.8258C23.0798 18.6967 23.2549 18.6241 23.4375 18.6241C23.6201 18.6241 23.7952 18.6967 23.9242 18.8258C24.0533 18.9548 24.1259 19.1299 24.1259 19.3125C24.1259 19.4951 24.0533 19.6702 23.9242 19.7992Z" fill="white"/>
</svg>
