<svg width="41" height="40" viewBox="0 0 41 40" fill="none" xmlns="http://www.w3.org/2000/svg">
<path d="M12.2783 31.1065C11.9755 31.0915 11.7315 31.0677 11.4199 30.9939C11.1084 30.9201 10.8644 30.8963 10.6116 30.8137C10.0473 30.6573 9.53306 30.4334 9.01004 30.1506C7.97276 29.6438 7.07687 28.8756 6.33113 27.9046C5.59414 26.9925 5.06612 25.8689 4.84089 24.7603C4.69449 24.1809 4.67447 23.6429 4.64569 23.0461C4.6607 22.7433 4.68447 22.4993 4.69949 22.1965C4.7145 21.8937 4.79708 21.6409 4.81209 21.3381L4.99353 22.1527C5.03732 22.4467 5.13117 22.6732 5.23377 22.9585C5.37141 23.479 5.56785 23.9907 5.75554 24.4437C6.13968 25.4084 6.63267 26.2968 7.29333 27.1001C7.95399 27.9034 8.66469 28.6391 9.54307 29.2897C9.94847 29.59 10.4127 29.8816 10.8769 30.1731C11.0796 30.3232 11.3411 30.4646 11.6026 30.606L12.2783 31.1065ZM12.4172 33.2499C12.2583 33.3938 12.0318 33.4876 11.8053 33.5815C11.5789 33.6753 11.4112 33.7604 11.176 33.7954C10.7731 33.9156 10.3114 34.0444 9.83213 34.0557C8.94124 34.1283 7.96527 34.0332 7.13945 33.7354C6.25483 33.4464 5.45278 32.9046 4.86845 32.2101C4.58066 31.8923 4.28411 31.5157 4.04638 31.1303C3.96129 30.9627 3.86745 30.7362 3.7736 30.5097C3.74733 30.3333 3.66224 30.1656 3.62721 29.9304C3.82991 30.0805 3.9738 30.2394 4.10894 30.3395C4.31164 30.4897 4.45553 30.6486 4.59066 30.7487C4.9285 30.9989 5.20753 31.258 5.53661 31.4494C6.20352 31.8911 6.86167 32.274 7.61993 32.5217C8.31937 32.7782 9.12767 32.9584 9.86841 33.0885C10.2388 33.1536 10.6592 33.1511 11.0884 33.2074C11.2736 33.2399 11.5088 33.2049 11.694 33.2374C11.9968 33.2524 12.1732 33.2261 12.4172 33.2499ZM21.451 2.68956C21.7538 2.70457 22.0066 2.78715 22.3181 2.86098C22.6297 2.9348 22.8824 3.01738 23.1352 3.09996C23.7083 3.31517 24.2225 3.53914 24.7455 3.82192C25.7916 4.38747 26.6962 5.21454 27.3832 6.19426C28.0701 7.17398 28.5393 8.30635 28.7057 9.4237C28.7933 10.0118 28.8133 10.5498 28.7833 11.1554C28.7683 11.4582 28.7445 11.7022 28.6707 12.0138C28.5969 12.3253 28.5731 12.5693 28.4905 12.8221L28.3091 12.0075C28.2653 11.7135 28.2303 11.4782 28.1277 11.193L27.7147 9.63141C27.3894 8.65795 26.8877 7.71076 26.2771 6.8399C25.6665 5.96904 24.9557 5.23332 24.1362 4.57392C23.722 4.21481 23.2578 3.92327 22.8436 3.56417C22.6409 3.41402 22.3794 3.27263 22.1179 3.13124L21.451 2.68956ZM26.5323 1.6923C26.7763 1.71607 26.9615 1.7486 27.1554 1.83994C27.3406 1.87247 27.5933 1.95505 27.7873 2.04639C28.1752 2.22907 28.5631 2.41175 28.9597 2.65324C29.6942 3.14498 30.3286 3.77184 30.7452 4.55136C31.2207 5.32213 31.4697 6.18673 31.4835 7.08638C31.486 7.50679 31.4297 7.93597 31.3734 8.36514C31.3408 8.55033 31.2583 8.80308 31.2257 8.98826C31.1344 9.1822 31.1019 9.36739 30.9517 9.57009L30.8641 8.98201L30.7765 8.39393C30.7152 7.98227 30.6039 7.63818 30.5513 7.28533C30.3198 6.53834 30.0971 5.85016 29.7067 5.24706C29.3076 4.58515 28.8671 4.04963 28.3591 3.46405C28.0801 3.20504 27.7923 2.88723 27.5133 2.62822C27.3694 2.46932 27.2342 2.36922 27.0315 2.21907C26.8701 1.94255 26.6674 1.7924 26.5323 1.6923Z" fill="#42ADE2"/>
<path d="M6.01968 13.7051C4.92234 14.4096 4.7209 15.8823 5.42535 16.9796L15.1388 31.3426L18.9663 28.7888L9.24413 14.367C8.53967 13.2697 7.10825 12.9419 6.01968 13.7051ZM27.3158 23.0968L31.3611 20.3904L20.265 4.00919C19.5017 2.92062 18.0115 2.60156 16.8641 3.37358C15.7756 4.13684 15.4565 5.62707 16.2285 6.77445L27.3158 23.0968Z" fill="#FFDD67"/>
<path d="M16.915 3.30586C16.8061 3.38218 16.6973 3.45851 16.5972 3.59364C17.6707 3.13318 18.9257 3.48728 19.6127 4.467L30.7087 20.8482L31.4207 20.3815L20.3246 4.00028C19.5526 2.8529 18.0624 2.53384 16.915 3.30586Z" fill="#EBA352"/>
<path d="M18.9571 28.7285L23.1613 25.8781L11.8362 9.17036C11.0642 8.02297 9.4476 7.66262 8.30022 8.43464C7.15283 9.20666 6.85129 10.8145 7.62331 11.9619L18.9571 28.7285Z" fill="#FFDD67"/>
<path d="M8.30935 8.49309C8.20049 8.56942 8.09163 8.64575 7.99153 8.78088C9.06509 8.32042 10.4377 8.657 11.1334 9.69552L18.1579 20.1308L19.5656 20.7027L11.8454 9.22881C11.0646 8.02262 9.51554 7.71231 8.30935 8.49309Z" fill="#EBA352"/>
<path d="M22.2448 24.5721L26.4489 21.7218L15.1239 5.01401C14.3519 3.86662 12.7353 3.50627 11.5966 4.3371C10.4492 5.10912 10.1477 6.71696 10.9197 7.86435L22.2448 24.5721Z" fill="#FFDD67"/>
<path d="M11.5891 4.27881C11.4803 4.35514 11.3802 4.49027 11.2713 4.5666C12.3449 4.10614 13.7175 4.44272 14.4132 5.48124L22.3623 17.2817L23.77 17.8535L15.1251 5.01453C14.3443 3.80834 12.7365 3.50679 11.5891 4.27881ZM6.01988 13.7044C5.91102 13.7808 5.80217 13.8571 5.70207 13.9922C6.71682 13.5405 7.91301 13.9034 8.54114 14.8918L14.3269 23.4678L15.7346 24.0396L9.25309 14.4251C8.53988 13.269 7.10846 12.9412 6.01988 13.7044Z" fill="#EBA352"/>
<path d="M35.6315 7.49143C33.8598 6.49295 31.4737 8.23093 30.8105 12.6578C30.3664 15.7296 30.3801 16.6293 28.6296 17.7917L27.247 15.7734C27.247 15.7734 11.7454 26.3177 12.585 27.5151C12.585 27.5151 15.513 33.451 19.353 35.8246C25.0587 39.4231 36.1872 33.0167 35.0435 21.7055C34.3653 15.134 37.5384 8.59001 35.6315 7.49143Z" fill="#FFDD67"/>
<path d="M35.6316 7.48948C35.3025 7.29804 34.9322 7.23298 34.5705 7.22672C34.6381 7.27677 34.7557 7.25925 34.8233 7.3093C36.789 8.39912 35.4302 11.7875 34.8509 14.7592C34.3604 17.1165 33.9963 19.5152 34.4467 21.7324C36.3712 31.4245 27.2422 37.533 21.0986 36.6447C27.2209 38.1975 37.2408 32.0163 35.255 21.9125C34.8046 19.6953 35.1274 17.4231 35.6592 14.9394C36.1797 11.9764 37.5385 8.58806 35.6316 7.48948Z" fill="#EBA352"/>
<path d="M29.1238 17.4764C25.539 18.4311 20.967 24.4621 25.5803 29.606C21.9579 24.2544 25.9081 19.6986 28.5882 17.9169C28.8472 17.6378 29.1238 17.4764 29.1238 17.4764Z" fill="#EBA352"/>
</svg>
