<svg width="15" height="15" viewBox="0 0 15 15" fill="none" xmlns="http://www.w3.org/2000/svg">
<circle cx="7.5" cy="7.5" r="7.5" fill="#A4A8BE"/>
<path fill-rule="evenodd" clip-rule="evenodd" d="M3 5.8125C3 5.51413 3.11853 5.22798 3.3295 5.017C3.54048 4.80603 3.82663 4.6875 4.125 4.6875H8.34375C8.61661 4.68747 8.88019 4.78661 9.08539 4.96646C9.2906 5.14631 9.42344 5.39461 9.45919 5.66512L11.2086 4.88775C11.2942 4.8496 11.388 4.83345 11.4815 4.84077C11.5749 4.8481 11.6651 4.87866 11.7437 4.92969C11.8223 4.98072 11.887 5.05059 11.9317 5.13296C11.9765 5.21532 12 5.30757 12 5.40131V9.59869C11.9999 9.69236 11.9764 9.78452 11.9317 9.86682C11.887 9.94912 11.8224 10.0189 11.7438 10.07C11.6653 10.121 11.5752 10.1516 11.4818 10.1589C11.3885 10.1663 11.2947 10.1503 11.2091 10.1122L9.45919 9.33488C9.42344 9.60539 9.2906 9.85369 9.08539 10.0335C8.88019 10.2134 8.61661 10.3125 8.34375 10.3125H4.125C3.82663 10.3125 3.54048 10.194 3.3295 9.983C3.11853 9.77202 3 9.48587 3 9.1875V5.8125Z" fill="white"/>
</svg>
