<svg width="400" height="160" viewBox="0 0 400 160" fill="none" xmlns="http://www.w3.org/2000/svg">
<path d="M41.5899 129.346C36.525 129.346 31.8325 131.655 27.5124 136.273L24.3841 134.262C26.0227 129.942 31.8325 124.802 41.8133 118.844L53.4328 112.587C43.8989 112.587 35.7801 110.427 29.0766 106.107C22.373 101.787 17.2337 96.0517 13.6584 88.9013C10.2322 81.7508 8.51904 74.0045 8.51904 65.6623C8.51904 53.0001 12.3177 42.2744 19.9151 33.4853C28.2573 23.8024 39.5788 18.9609 53.8797 18.9609C68.3296 18.9609 79.6511 23.8024 87.8443 33.4853C95.1437 42.2744 98.7935 52.7021 98.7935 64.7685C98.7935 76.6859 95.8141 86.9647 89.8554 95.6048C83.8967 104.096 75.2566 109.384 63.935 111.47L52.3155 118.397C54.2521 118.993 56.1142 119.663 57.9018 120.408L63.4881 122.419C67.9571 124.207 72.2772 125.1 76.4483 125.1C80.7684 125.1 85.014 122.791 89.1851 118.173L92.3134 120.184C91.1216 123.462 88.5892 127.111 84.716 131.134C80.9918 135.156 76.8952 137.167 72.4262 137.167C69.5958 137.167 66.7654 136.72 63.935 135.826C61.2536 135.081 57.4549 133.815 52.539 132.027C47.6231 130.24 43.9734 129.346 41.5899 129.346ZM75.1076 93.5938C76.5973 90.9123 78.087 87.2626 79.5766 82.6446C81.0663 78.0266 81.8111 73.1852 81.8111 68.1203C81.8111 50.3931 77.7145 37.6564 69.5213 29.9101C65.2012 25.8879 59.9129 23.8769 53.6562 23.8769C43.8244 23.8769 36.525 28.2714 31.758 37.0605C27.5869 44.6579 25.5758 54.1173 25.7248 65.4389C25.8738 76.6114 27.9593 85.9964 31.9815 93.5938C36.8974 102.83 44.0478 107.448 53.4328 107.448C62.8178 107.448 70.0427 102.83 75.1076 93.5938Z" fill="#FFDB64"/>
<path d="M154.933 67.0195H146.716V35.603H154.933V67.0195ZM147.158 51.9118L147.221 54.061C147.137 54.651 146.926 55.5149 146.589 56.6527C146.252 57.7484 145.725 58.9283 145.009 60.1926C144.335 61.4568 143.45 62.6789 142.354 63.8589C141.258 64.9967 139.91 65.9449 138.308 66.7035C136.707 67.4199 134.811 67.7781 132.619 67.7781C130.892 67.7781 129.185 67.5674 127.499 67.146C125.856 66.7245 124.36 66.0292 123.011 65.0599C121.663 64.0485 120.588 62.7 119.787 61.0143C118.987 59.3287 118.586 57.2005 118.586 54.6299V35.603H126.804V53.2392C126.804 55.262 127.12 56.8634 127.752 58.0434C128.426 59.1812 129.396 59.9819 130.66 60.4454C131.924 60.909 133.42 61.1408 135.148 61.1408C137.424 61.1408 139.383 60.6561 141.027 59.6869C142.67 58.6755 143.998 57.4534 145.009 56.0206C146.063 54.5878 146.779 53.2181 147.158 51.9118ZM177.713 67.7149C174.594 67.7149 171.75 67.0406 169.179 65.6921C166.65 64.3014 164.628 62.384 163.11 59.9397C161.636 57.4534 160.898 54.5878 160.898 51.3428C160.898 48.0137 161.657 45.127 163.174 42.6827C164.691 40.2385 166.735 38.3422 169.305 36.9936C171.918 35.603 174.868 34.9076 178.155 34.9076C181.779 34.9076 184.687 35.6451 186.878 37.12C189.112 38.5529 190.734 40.5125 191.746 42.9988C192.757 45.4852 193.263 48.2665 193.263 51.3428C193.263 53.1971 192.968 55.0935 192.378 57.032C191.788 58.9283 190.882 60.6983 189.66 62.3418C188.438 63.9432 186.836 65.2496 184.856 66.261C182.875 67.2302 180.494 67.7149 177.713 67.7149ZM180.367 61.3936C182.854 61.3936 185.003 60.9722 186.815 60.1294C188.627 59.2865 190.018 58.1066 190.987 56.5895C191.956 55.0724 192.441 53.3235 192.441 51.3428C192.441 49.1936 191.935 47.3815 190.924 45.9066C189.955 44.3895 188.564 43.2517 186.752 42.4931C184.982 41.6924 182.854 41.2921 180.367 41.2921C176.87 41.2921 174.152 42.2192 172.213 44.0734C170.275 45.8855 169.305 48.3086 169.305 51.3428C169.305 53.3656 169.769 55.1356 170.696 56.6527C171.623 58.1276 172.908 59.2865 174.552 60.1294C176.238 60.9722 178.176 61.3936 180.367 61.3936ZM192.441 35.603H200.659V67.0195H193.01C193.01 67.0195 192.947 66.6192 192.82 65.8185C192.736 64.9757 192.652 63.9221 192.567 62.6579C192.483 61.3936 192.441 60.1504 192.441 58.9283V35.603ZM208.096 35.603H216.314V67.0195H208.096V35.603ZM230.916 34.9076C232.854 34.9076 234.645 35.1605 236.289 35.6662C237.932 36.1719 239.365 36.9515 240.587 38.005C241.809 39.0586 242.757 40.4071 243.432 42.0506C244.106 43.652 244.443 45.5694 244.443 47.803V67.0195H236.226V49.2568C236.226 46.6019 235.572 44.6634 234.266 43.4413C233.002 42.177 230.916 41.5449 228.008 41.5449C225.817 41.5449 223.836 41.9663 222.066 42.8092C220.296 43.652 218.863 44.7266 217.768 46.033C216.672 47.2973 216.04 48.6247 215.871 50.0154L215.808 46.7916C216.019 45.3166 216.503 43.8838 217.262 42.4931C218.02 41.1024 219.032 39.8382 220.296 38.7004C221.602 37.5204 223.141 36.5933 224.911 35.919C226.68 35.2447 228.682 34.9076 230.916 34.9076ZM249.712 35.603H274.112V41.9874H249.712V35.603ZM257.804 27.0061H266.021V67.0195H257.804V27.0061ZM315.681 67.0195H307.463V35.603H315.681V67.0195ZM307.905 51.9118L307.969 54.061C307.884 54.651 307.674 55.5149 307.337 56.6527C306.999 57.7484 306.473 58.9283 305.756 60.1926C305.082 61.4568 304.197 62.6789 303.101 63.8589C302.006 64.9967 300.657 65.9449 299.056 66.7035C297.454 67.4199 295.558 67.7781 293.367 67.7781C291.639 67.7781 289.932 67.5674 288.246 67.146C286.603 66.7245 285.107 66.0292 283.758 65.0599C282.41 64.0485 281.335 62.7 280.534 61.0143C279.734 59.3287 279.333 57.2005 279.333 54.6299V35.603H287.551V53.2392C287.551 55.262 287.867 56.8634 288.499 58.0434C289.174 59.1812 290.143 59.9819 291.407 60.4454C292.671 60.909 294.167 61.1408 295.895 61.1408C298.171 61.1408 300.13 60.6561 301.774 59.6869C303.417 58.6755 304.745 57.4534 305.756 56.0206C306.81 54.5878 307.526 53.2181 307.905 51.9118ZM323.162 35.603H331.38V67.0195H323.162V35.603ZM345.982 34.9076C347.921 34.9076 349.712 35.1605 351.355 35.6662C352.999 36.1719 354.431 36.9515 355.654 38.005C356.876 39.0586 357.824 40.4071 358.498 42.0506C359.172 43.652 359.51 45.5694 359.51 47.803V67.0195H351.292V49.2568C351.292 46.6019 350.639 44.6634 349.332 43.4413C348.068 42.177 345.982 41.5449 343.074 41.5449C340.883 41.5449 338.902 41.9663 337.132 42.8092C335.362 43.652 333.93 44.7266 332.834 46.033C331.738 47.2973 331.106 48.6247 330.938 50.0154L330.874 46.7916C331.085 45.3166 331.57 43.8838 332.328 42.4931C333.087 41.1024 334.098 39.8382 335.362 38.7004C336.669 37.5204 338.207 36.5933 339.977 35.919C341.747 35.2447 343.749 34.9076 345.982 34.9076ZM373.353 34.9076C375.292 34.9076 377.083 35.1605 378.726 35.6662C380.37 36.1719 381.802 36.9515 383.025 38.005C384.247 39.0586 385.195 40.4071 385.869 42.0506C386.586 43.652 386.944 45.5694 386.944 47.803V67.0195H378.726V49.2568C378.726 46.6019 378.073 44.6634 376.767 43.4413C375.46 42.177 373.353 41.5449 370.445 41.5449C368.254 41.5449 366.273 41.9663 364.503 42.8092C362.733 43.652 361.301 44.7266 360.205 46.033C359.109 47.2973 358.498 48.6247 358.372 50.0154L358.245 46.6019C358.456 45.2112 358.962 43.8206 359.762 42.4299C360.563 41.0392 361.617 39.775 362.923 38.6371C364.229 37.4993 365.746 36.5933 367.474 35.919C369.244 35.2447 371.204 34.9076 373.353 34.9076Z" fill="url(#paint0_angular_4820_14622)"/>
<path d="M256.203 124.393C276.601 135.509 304.213 138.637 328.805 134.546C324.521 133.534 319.921 132.362 315.636 131.35C343.518 134.316 374.157 124.65 390.561 107.45C373.875 90.4046 343.065 81.0135 315.248 84.2494C319.516 83.1977 324.096 81.9832 328.363 80.9314C303.692 77.0798 276.133 80.4543 255.934 91.7596C259.006 89.746 261.141 86.8123 262.419 83.8933C252.671 91.506 237.395 92.867 223.448 94.1466C209.487 95.4262 194.057 93.7029 185.804 102.265L185.843 107.006C188.802 106.863 191.747 106.731 194.706 106.62C211.619 105.972 229.348 105.567 246.268 105.768C262.701 105.992 306.65 106.325 323.626 106.45C340.817 106.661 358.007 106.806 375.199 107.06L375.202 107.489C335.555 108.469 286.151 109.14 246.302 109.981C226.256 110.322 205.976 110.126 185.862 109.295L185.9 113.906C194.293 122.38 209.713 121.158 223.68 122.308C237.661 123.458 252.959 124.666 262.817 132.198C261.477 129.302 259.308 126.388 256.203 124.393Z" fill="url(#paint1_angular_4820_14622)"/>
<g style="mix-blend-mode:color-burn">
<path d="M315.266 84.2464C319.533 83.1946 324.113 81.9801 328.381 80.9284C303.709 77.0768 276.151 80.4512 255.951 91.7565C259.023 89.7429 261.159 86.8092 262.436 83.8903C252.688 91.503 237.412 92.864 223.465 94.1435C211.005 95.2872 197.366 94.0393 188.705 99.8518C194.654 98.2118 201.2 97.7406 207.578 97.7002C215.786 97.6405 224.028 98.2363 232.203 97.6393C240.378 97.0423 249.16 95.3783 255.016 91.0514C254.055 92.4641 253.585 94.4871 252.625 95.8997C270.901 87.2046 291.8 82.7862 313.425 82.9758C309.207 84.8013 305.393 87.1301 302.342 89.9713C332.861 84.9492 366.321 91.4149 389.915 106.795C373.089 90.1688 342.725 81.0551 315.251 84.2357L315.266 84.2464Z" fill="#A5B9C6"/>
</g>
<g style="mix-blend-mode:multiply">
<path d="M246.269 105.769C262.702 105.993 306.651 106.326 323.627 106.451C340.818 106.662 358.009 106.807 375.2 107.06C375.2 107.06 298.681 98.8603 185.845 107.006C188.804 106.864 191.749 106.732 194.708 106.621C211.62 105.973 229.35 105.568 246.269 105.769Z" fill="#ACBFCC"/>
</g>
<g style="mix-blend-mode:multiply">
<path d="M256.202 124.39C276.586 135.506 304.197 138.635 328.79 134.554C324.505 133.542 319.92 132.37 315.635 131.369C315.635 131.369 315.65 131.369 315.664 131.369C315.664 131.369 315.65 131.369 315.635 131.369C322.606 132.111 329.742 132.067 336.785 131.303C336.828 131.303 336.871 131.292 336.928 131.291C337.757 131.202 338.571 131.101 339.4 130.99C339.514 130.978 339.628 130.956 339.757 130.934C340.5 130.834 341.257 130.723 342 130.612C342.185 130.579 342.371 130.546 342.542 130.524C343.228 130.413 343.899 130.302 344.57 130.17C344.813 130.126 345.041 130.082 345.284 130.027C345.898 129.906 346.512 129.796 347.126 129.664C347.411 129.598 347.711 129.532 347.996 129.477C348.553 129.356 349.11 129.235 349.667 129.104C349.995 129.027 350.337 128.94 350.666 128.863C351.165 128.742 351.679 128.611 352.178 128.49C352.564 128.392 352.935 128.282 353.306 128.184C353.762 128.064 354.205 127.943 354.661 127.812C355.075 127.692 355.489 127.561 355.902 127.441C356.302 127.321 356.701 127.201 357.1 127.07C357.557 126.928 357.999 126.776 358.441 126.634C358.798 126.514 359.154 126.394 359.525 126.274C359.996 126.111 360.48 125.936 360.951 125.773C361.265 125.653 361.593 125.544 361.906 125.424C362.405 125.239 362.904 125.044 363.403 124.848C363.688 124.739 363.973 124.63 364.244 124.521C364.772 124.315 365.285 124.097 365.798 123.869C366.04 123.761 366.296 123.663 366.539 123.554C367.08 123.315 367.607 123.076 368.149 122.837C368.362 122.739 368.59 122.642 368.804 122.544C369.36 122.283 369.901 122.023 370.442 121.752C370.627 121.654 370.827 121.567 371.012 121.469C371.567 121.187 372.123 120.905 372.678 120.613C372.849 120.526 373.005 120.439 373.176 120.352C373.746 120.049 374.301 119.734 374.856 119.42C374.998 119.344 375.141 119.257 375.283 119.181C375.852 118.856 376.407 118.521 376.962 118.185C377.09 118.109 377.219 118.033 377.332 117.957C377.902 117.611 378.456 117.253 378.997 116.896C379.111 116.82 379.21 116.755 379.324 116.68C379.879 116.312 380.433 115.944 380.974 115.565C381.073 115.5 381.173 115.435 381.272 115.359C381.812 114.97 382.353 114.58 382.893 114.18C382.978 114.115 383.063 114.05 383.149 113.985C383.689 113.585 384.2 113.174 384.726 112.753C384.811 112.688 384.882 112.623 384.967 112.558C385.479 112.136 385.99 111.715 386.487 111.283C386.558 111.218 386.629 111.153 386.714 111.088C387.211 110.656 387.694 110.213 388.176 109.77C388.247 109.705 388.318 109.64 388.389 109.575C388.857 109.132 389.326 108.679 389.78 108.225C389.822 108.193 389.85 108.15 389.893 108.117C366.554 123.704 333.218 130.492 302.618 125.743C305.73 128.556 309.568 130.849 313.815 132.635C292.196 133.037 271.225 128.813 252.807 120.278C253.791 121.682 254.294 123.7 255.278 125.104C249.351 120.832 240.543 119.25 232.359 118.729C224.174 118.208 215.943 118.88 207.734 118.897C201.943 118.913 196.019 118.565 190.518 117.322C199.266 122.043 211.973 121.35 223.679 122.306C237.646 123.455 252.943 124.663 262.815 132.185C261.476 129.289 259.307 126.375 256.202 124.39C256.202 124.39 256.202 124.39 256.216 124.39C256.216 124.39 256.216 124.39 256.201 124.379L256.202 124.39Z" fill="#ACBFCC"/>
</g>
<g style="mix-blend-mode:color-burn">
<path d="M246.302 110.014C262.73 109.637 306.67 108.895 323.642 108.612C340.829 108.241 358.016 107.936 375.202 107.522C375.202 107.522 298.824 116.434 185.862 109.339C188.823 109.454 191.77 109.558 194.731 109.641C211.652 110.132 229.387 110.372 246.302 110.014Z" fill="#A5B9C6"/>
</g>
<path style="mix-blend-mode:screen" d="M321.846 88.3184C333.425 87.7485 345.235 89.1662 356.03 92.3729C344.87 90.0386 333.418 88.6622 321.846 88.3184Z" fill="url(#paint2_linear_4820_14622)"/>
<path style="mix-blend-mode:screen" d="M272.207 88.508C279.708 85.8504 287.903 84.2536 296.18 83.8281C288.325 85.1116 279.901 86.7524 272.207 88.508Z" fill="url(#paint3_linear_4820_14622)"/>
<path style="mix-blend-mode:screen" d="M218.688 97.8646C223.218 97.4888 227.666 97.5218 232.214 97.6511C227.788 98.4349 223.168 98.4027 218.688 97.8646Z" fill="url(#paint4_linear_4820_14622)"/>
<path style="mix-blend-mode:screen" d="M329.11 110.82C308.643 112.205 288.039 112.592 267.499 112.074C284.971 111.757 311.838 111.234 329.11 110.82Z" fill="url(#paint5_linear_4820_14622)"/>
<path d="M162.684 114.927L162.578 102.093L137.647 98.0387C137.647 98.0387 126.964 106.677 115.023 106.733L115.033 107.893L135.282 107.799C135.718 106.905 136.857 106.265 138.187 106.259C139.917 106.251 141.327 107.298 141.338 108.599C141.348 109.899 139.956 110.959 138.225 110.967C136.881 110.973 135.746 110.345 135.296 109.454L115.047 109.549L115.056 110.71C126.997 110.654 137.821 119.192 137.821 119.192L162.683 114.906L162.684 114.927Z" fill="url(#paint6_angular_4820_14622)"/>
<path style="mix-blend-mode:screen" d="M137.778 98.0566C144.605 102.185 154.056 103.775 162.566 102.176L162.565 102.08L137.778 98.0459L137.778 98.0566Z" fill="url(#paint7_linear_4820_14622)"/>
<g style="mix-blend-mode:multiply">
<path d="M162.683 114.928L162.683 114.874C154.175 113.355 144.794 115.022 138.035 119.181L162.683 114.928Z" fill="#B2C4D1"/>
</g>
<g style="mix-blend-mode:multiply">
<path d="M137.961 111.619C141.407 111.603 144.185 110.246 144.171 108.591C144.158 106.935 141.358 105.605 137.912 105.621C136.067 105.629 134.44 106.024 133.301 106.642L115.011 106.727L115.021 107.888L135.27 107.794C135.706 106.899 136.844 106.26 138.174 106.254C139.905 106.246 141.315 107.293 141.325 108.593C141.336 109.894 139.943 110.954 138.213 110.962C136.869 110.968 135.734 110.339 135.283 109.449L115.034 109.543L115.043 110.629L133.204 110.544C134.354 111.195 136.045 111.617 137.961 111.608L137.961 111.619Z" fill="#B2C4D1"/>
</g>
<path d="M181.382 114.521L181.282 102.332L167.11 102.398L167.211 114.587L181.382 114.521Z" fill="url(#paint8_angular_4820_14622)"/>
<g style="mix-blend-mode:color-burn">
<path d="M174.218 104.16C178.136 104.142 181.29 103.321 181.282 102.332L167.11 102.398C167.118 103.387 170.3 104.178 174.204 104.16L174.218 104.16Z" fill="#B0C2CF"/>
</g>
<g style="mix-blend-mode:multiply">
<path d="M174.283 112.757C170.364 112.775 167.211 113.596 167.219 114.585L181.39 114.519C181.382 113.53 178.201 112.738 174.297 112.757L174.283 112.757Z" fill="#B2C4D1"/>
</g>
<defs>
<radialGradient id="paint0_angular_4820_14622" cx="0" cy="0" r="1" gradientUnits="userSpaceOnUse" gradientTransform="translate(252.793 47.0195) rotate(-176.888) scale(133.495 28.945)">
<stop offset="0.0729167" stop-color="#FBFBFD"/>
<stop offset="0.244792" stop-color="#C8D4DA"/>
<stop offset="0.434957" stop-color="white"/>
<stop offset="0.532623" stop-color="#AEC0CE"/>
<stop offset="0.658692" stop-color="#E3E9EE"/>
<stop offset="0.708863" stop-color="#FAFBFC"/>
<stop offset="0.861413" stop-color="#D6DFE6"/>
<stop offset="0.921875" stop-color="#B8C9D3"/>
</radialGradient>
<radialGradient id="paint1_angular_4820_14622" cx="0" cy="0" r="1" gradientUnits="userSpaceOnUse" gradientTransform="translate(288.208 107.929) rotate(-46.4041) scale(38.0887 76.4011)">
<stop offset="0.0729167" stop-color="#FBFBFD"/>
<stop offset="0.244792" stop-color="#C8D4DA"/>
<stop offset="0.434957" stop-color="white"/>
<stop offset="0.532623" stop-color="#AEC0CE"/>
<stop offset="0.658692" stop-color="#E3E9EE"/>
<stop offset="0.708863" stop-color="#FAFBFC"/>
<stop offset="0.861413" stop-color="#D6DFE6"/>
<stop offset="0.921875" stop-color="#B8C9D3"/>
</radialGradient>
<linearGradient id="paint2_linear_4820_14622" x1="321.863" y1="90.3714" x2="356.011" y2="90.0901" gradientUnits="userSpaceOnUse">
<stop/>
<stop offset="0.52" stop-color="#A8A8A8"/>
<stop offset="1"/>
</linearGradient>
<linearGradient id="paint3_linear_4820_14622" x1="272.189" y1="86.2186" x2="296.198" y2="86.0208" gradientUnits="userSpaceOnUse">
<stop/>
<stop offset="0.52" stop-color="#A8A8A8"/>
<stop offset="1"/>
</linearGradient>
<linearGradient id="paint4_linear_4820_14622" x1="218.688" y1="97.9398" x2="232.201" y2="97.8285" gradientUnits="userSpaceOnUse">
<stop/>
<stop offset="0.52" stop-color="#A8A8A8"/>
<stop offset="1"/>
</linearGradient>
<linearGradient id="paint5_linear_4820_14622" x1="267.496" y1="111.752" x2="329.113" y2="111.244" gradientUnits="userSpaceOnUse">
<stop/>
<stop offset="0.52" stop-color="#A8A8A8"/>
<stop offset="1"/>
</linearGradient>
<radialGradient id="paint6_angular_4820_14622" cx="0" cy="0" r="1" gradientUnits="userSpaceOnUse" gradientTransform="translate(138.835 108.61) rotate(-59.335) scale(11.9105 21.1315)">
<stop offset="0.0729167" stop-color="#FBFBFD"/>
<stop offset="0.244792" stop-color="#C8D4DA"/>
<stop offset="0.434957" stop-color="white"/>
<stop offset="0.532623" stop-color="#AEC0CE"/>
<stop offset="0.658692" stop-color="#E3E9EE"/>
<stop offset="0.708863" stop-color="#FAFBFC"/>
<stop offset="0.861413" stop-color="#D6DFE6"/>
<stop offset="0.921875" stop-color="#B8C9D3"/>
</radialGradient>
<linearGradient id="paint7_linear_4820_14622" x1="137.798" y1="100.464" x2="162.565" y2="100.26" gradientUnits="userSpaceOnUse">
<stop stop-color="#333399"/>
<stop offset="1" stop-color="#FF00CC"/>
</linearGradient>
<radialGradient id="paint8_angular_4820_14622" cx="0" cy="0" r="1" gradientUnits="userSpaceOnUse" gradientTransform="translate(174.246 108.46) rotate(-73.1509) scale(6.1598 7.01086)">
<stop offset="0.0729167" stop-color="#FBFBFD"/>
<stop offset="0.244792" stop-color="#C8D4DA"/>
<stop offset="0.434957" stop-color="white"/>
<stop offset="0.532623" stop-color="#AEC0CE"/>
<stop offset="0.658692" stop-color="#E3E9EE"/>
<stop offset="0.708863" stop-color="#FAFBFC"/>
<stop offset="0.861413" stop-color="#D6DFE6"/>
<stop offset="0.921875" stop-color="#B8C9D3"/>
</radialGradient>
</defs>
</svg>
